<svg width="272" height="260" viewBox="0 0 272 260" fill="none" xmlns="http://www.w3.org/2000/svg">
<g filter="url(#filter0_i_1_808)">
<path d="M6 24C6 10.7452 16.7452 0 30 0H242C255.255 0 266 10.7452 266 24V236C266 249.255 255.255 260 242 260H30C16.7452 260 6 249.255 6 236V24Z" fill="#9FE4FF"/>
</g>
<path d="M194.726 218.888C194.726 224.14 190.514 227.468 183.91 227.468C177.098 227.468 172.574 223.984 172.574 218.68H178.97C179.022 220.5 180.79 221.592 183.65 221.592C186.302 221.592 187.81 220.656 187.81 219.2C187.81 218.056 186.718 217.38 183.702 216.912L181.726 216.548C175.382 215.456 172.886 213.324 172.886 209.008C172.886 203.86 176.838 200.532 183.078 200.532C189.526 200.532 193.842 204.016 193.842 209.268H187.498C187.446 207.448 185.886 206.408 183.338 206.408C181.154 206.408 179.802 207.24 179.802 208.696C179.802 209.892 180.894 210.568 184.014 211.088L185.99 211.452C192.23 212.544 194.726 214.624 194.726 218.888Z" fill="#4395B5"/>
<path d="M169.285 218.888C169.285 224.14 165.073 227.468 158.469 227.468C151.657 227.468 147.133 223.984 147.133 218.68H153.529C153.581 220.5 155.349 221.592 158.209 221.592C160.861 221.592 162.369 220.656 162.369 219.2C162.369 218.056 161.277 217.38 158.261 216.912L156.285 216.548C149.941 215.456 147.445 213.324 147.445 209.008C147.445 203.86 151.397 200.532 157.637 200.532C164.085 200.532 168.401 204.016 168.401 209.268H162.057C162.005 207.448 160.445 206.408 157.897 206.408C155.713 206.408 154.361 207.24 154.361 208.696C154.361 209.892 155.453 210.568 158.573 211.088L160.549 211.452C166.789 212.544 169.285 214.624 169.285 218.888Z" fill="#4395B5"/>
<path d="M135.632 216.288V201H142.86V227H135.632V224.192C133.812 226.272 131.16 227.468 127.988 227.468C122.268 227.468 118.108 223.412 118.108 217.796V201H125.336V216.288C125.336 219.408 127.312 221.384 130.484 221.384C133.604 221.384 135.632 219.408 135.632 216.288Z" fill="#4395B5"/>
<path d="M112.896 227H105.668V189.56H112.896V227Z" fill="#4395B5"/>
<path d="M79.1719 227V190.6H101.272V197.36H87.0239V205.42H99.5039V212.18H87.0239V227H79.1719Z" fill="#4395B5"/>
<g filter="url(#filter1_dddd_1_808)">
<path d="M215.126 104.018C222.506 103.402 227.787 106.053 231.179 108.96C232.839 110.383 234.024 111.843 234.803 112.961C235.194 113.523 235.489 114.009 235.696 114.373C235.8 114.556 235.882 114.709 235.943 114.827C235.974 114.887 236 114.937 236.021 114.979C236.031 114.999 236.039 115.018 236.047 115.034C236.051 115.042 236.054 115.05 236.058 115.057C236.059 115.06 236.061 115.064 236.063 115.067C236.063 115.068 236.064 115.071 236.065 115.072C236.066 115.074 236.067 115.076 232 117.002L236.067 115.076C237.131 117.322 236.172 120.005 233.926 121.069C231.75 122.099 229.164 121.232 228.037 119.135L227.946 118.955C227.95 118.962 227.952 118.967 227.953 118.97C227.952 118.969 227.952 118.967 227.95 118.964C227.94 118.944 227.913 118.894 227.87 118.819C227.784 118.667 227.634 118.418 227.416 118.105C226.976 117.473 226.286 116.619 225.321 115.792C223.463 114.199 220.494 112.601 215.874 112.987C214.036 113.14 212.049 114.017 209.612 115.763C207.127 117.545 204.698 119.827 201.712 122.477C196.074 127.48 188.747 133.567 178.693 133.998C168.259 134.446 161.06 127.647 155.385 122.55C149.211 117.006 144.363 112.933 137.545 113.002C130.701 113.071 126.022 117.139 120.102 122.612C114.634 127.666 107.698 134.399 97.3263 133.998C87.1736 133.606 80.3783 127.025 75.1143 122.028C69.3443 116.549 65.3882 113.002 60.0001 113.002C54.0918 113.002 50.2334 115.697 47.7315 118.499C46.4597 119.924 45.5602 121.361 44.9825 122.44C44.6961 122.974 44.4956 123.408 44.3731 123.691C44.3121 123.832 44.2704 123.934 44.2481 123.99C44.2429 124.004 44.2386 124.015 44.2354 124.023L44.2364 124.02C43.3989 126.358 40.8255 127.575 38.4864 126.74C36.1461 125.904 34.9261 123.329 35.7618 120.989L39.8253 122.44C35.8805 121.031 35.7664 120.988 35.7638 120.985C35.764 120.984 35.7652 120.981 35.7657 120.98C35.7668 120.977 35.7674 120.973 35.7686 120.97L35.8009 120.884C35.819 120.836 35.842 120.774 35.8712 120.699C35.9295 120.551 36.0104 120.352 36.1153 120.11C36.3248 119.627 36.6324 118.967 37.0489 118.19C37.8774 116.643 39.1656 114.581 41.0186 112.505C44.7667 108.307 50.9085 104.002 60.0001 104.002C69.612 104.002 76.1898 110.637 81.3116 115.5C86.9394 120.844 91.394 124.762 97.6739 125.005C103.735 125.239 107.979 121.563 113.992 116.003C119.554 110.862 126.658 104.111 137.455 104.002C148.279 103.893 155.631 110.676 161.398 115.855C167.662 121.48 172.142 125.27 178.307 125.006C184.852 124.725 190.026 120.813 195.738 115.744C198.428 113.358 201.386 110.587 204.369 108.448C207.402 106.275 210.964 104.365 215.126 104.018ZM44.2354 124.023L44.2306 124.037L44.2296 124.039L44.2354 124.023Z" fill="url(#paint0_radial_1_808)"/>
</g>
<g filter="url(#filter2_dddd_1_808)">
<path d="M215.126 64.5899C222.506 63.9737 227.787 66.6251 231.179 69.5322C232.839 70.9553 234.024 72.4149 234.803 73.5332C235.194 74.0953 235.489 74.581 235.696 74.9453C235.8 75.1277 235.882 75.2808 235.943 75.3994C235.974 75.4587 236 75.5092 236.021 75.5508C236.031 75.5715 236.039 75.5904 236.047 75.6065C236.051 75.6144 236.054 75.6221 236.058 75.6289C236.059 75.6322 236.061 75.6357 236.063 75.6387C236.063 75.6401 236.064 75.6426 236.065 75.6436C236.066 75.6458 236.067 75.6482 232 77.5742L236.067 75.6485C237.131 77.8945 236.172 80.577 233.926 81.6406C231.75 82.6711 229.164 81.8043 228.037 79.707L227.946 79.5274C227.95 79.534 227.952 79.5391 227.953 79.542C227.952 79.5405 227.952 79.5385 227.95 79.5361C227.94 79.5161 227.913 79.466 227.87 79.3906C227.784 79.2392 227.634 78.9898 227.416 78.6768C226.976 78.0448 226.286 77.1914 225.321 76.3643C223.463 74.771 220.494 73.1728 215.874 73.5586C214.036 73.7122 212.049 74.5887 209.612 76.335C207.127 78.1167 204.698 80.3995 201.712 83.0488C196.074 88.0517 188.747 94.1388 178.693 94.5703C168.259 95.018 161.06 88.2187 155.385 83.1221C149.211 77.5779 144.363 73.5054 137.545 73.5742C130.701 73.6435 126.022 77.7108 120.102 83.1836C114.634 88.2384 107.698 94.9713 97.3263 94.5703C87.1736 94.1778 80.3783 87.5974 75.1143 82.5996C69.3443 77.1213 65.3882 73.5742 60.0001 73.5742C54.0918 73.5742 50.2334 76.2692 47.7315 79.0713C46.4597 80.4958 45.5602 81.9333 44.9825 83.0117C44.6961 83.5464 44.4956 83.9803 44.3731 84.2627C44.3121 84.4036 44.2704 84.506 44.2481 84.5625C44.2429 84.5759 44.2386 84.5866 44.2354 84.5947L44.2364 84.5918C43.3989 86.9295 40.8255 88.1469 38.4864 87.3115C36.1461 86.4756 34.9261 83.9009 35.7618 81.5606L39.8253 83.0117C35.8805 81.6028 35.7664 81.5598 35.7638 81.5567C35.764 81.5559 35.7652 81.5533 35.7657 81.5518C35.7668 81.5488 35.7674 81.5454 35.7686 81.542L35.8009 81.4561C35.819 81.4077 35.842 81.3457 35.8712 81.2715C35.9295 81.123 36.0104 80.9236 36.1153 80.6817C36.3248 80.1985 36.6324 79.5392 37.0489 78.7617C37.8774 77.2152 39.1656 75.1526 41.0186 73.0772C44.7667 68.8793 50.9085 64.5742 60.0001 64.5742C69.612 64.5742 76.1898 71.2094 81.3116 76.0723C86.9394 81.4156 91.394 85.3343 97.6739 85.5772C103.735 85.8115 107.979 82.1347 113.992 76.5752C119.554 71.4339 126.658 64.6832 137.455 64.5742C148.279 64.4652 155.631 71.2485 161.398 76.4268C167.662 82.0525 172.142 85.8424 178.307 85.5781C184.852 85.2974 190.026 81.3849 195.738 76.3164C198.428 73.9302 201.386 71.1588 204.369 69.0205C207.402 66.8469 210.964 64.9374 215.126 64.5899ZM44.2354 84.5947L44.2306 84.6094L44.2296 84.6113L44.2354 84.5947Z" fill="url(#paint1_radial_1_808)"/>
</g>
<defs>
<filter id="filter0_i_1_808" x="6" y="0" width="260" height="264" filterUnits="userSpaceOnUse" color-interpolation-filters="sRGB">
<feFlood flood-opacity="0" result="BackgroundImageFix"/>
<feBlend mode="normal" in="SourceGraphic" in2="BackgroundImageFix" result="shape"/>
<feColorMatrix in="SourceAlpha" type="matrix" values="0 0 0 0 0 0 0 0 0 0 0 0 0 0 0 0 0 0 127 0" result="hardAlpha"/>
<feOffset dy="4"/>
<feGaussianBlur stdDeviation="17.85"/>
<feComposite in2="hardAlpha" operator="arithmetic" k2="-1" k3="1"/>
<feColorMatrix type="matrix" values="0 0 0 0 0.697345 0 0 0 0 0.838038 0 0 0 0 0.893311 0 0 0 1 0"/>
<feBlend mode="normal" in2="shape" result="effect1_innerShadow_1_808"/>
</filter>
<filter id="filter1_dddd_1_808" x="0.498535" y="97.928" width="271.003" height="159.091" filterUnits="userSpaceOnUse" color-interpolation-filters="sRGB">
<feFlood flood-opacity="0" result="BackgroundImageFix"/>
<feColorMatrix in="SourceAlpha" type="matrix" values="0 0 0 0 0 0 0 0 0 0 0 0 0 0 0 0 0 0 127 0" result="hardAlpha"/>
<feOffset dy="6"/>
<feGaussianBlur stdDeviation="6"/>
<feColorMatrix type="matrix" values="0 0 0 0 0.0588235 0 0 0 0 0.227451 0 0 0 0 0.282353 0 0 0 0.1 0"/>
<feBlend mode="normal" in2="BackgroundImageFix" result="effect1_dropShadow_1_808"/>
<feColorMatrix in="SourceAlpha" type="matrix" values="0 0 0 0 0 0 0 0 0 0 0 0 0 0 0 0 0 0 127 0" result="hardAlpha"/>
<feOffset dy="22"/>
<feGaussianBlur stdDeviation="11"/>
<feColorMatrix type="matrix" values="0 0 0 0 0.0588235 0 0 0 0 0.227451 0 0 0 0 0.282353 0 0 0 0.09 0"/>
<feBlend mode="normal" in2="effect1_dropShadow_1_808" result="effect2_dropShadow_1_808"/>
<feColorMatrix in="SourceAlpha" type="matrix" values="0 0 0 0 0 0 0 0 0 0 0 0 0 0 0 0 0 0 127 0" result="hardAlpha"/>
<feOffset dy="50"/>
<feGaussianBlur stdDeviation="15"/>
<feColorMatrix type="matrix" values="0 0 0 0 0.0588235 0 0 0 0 0.227451 0 0 0 0 0.282353 0 0 0 0.05 0"/>
<feBlend mode="normal" in2="effect2_dropShadow_1_808" result="effect3_dropShadow_1_808"/>
<feColorMatrix in="SourceAlpha" type="matrix" values="0 0 0 0 0 0 0 0 0 0 0 0 0 0 0 0 0 0 127 0" result="hardAlpha"/>
<feOffset dy="88"/>
<feGaussianBlur stdDeviation="17.5"/>
<feColorMatrix type="matrix" values="0 0 0 0 0.0588235 0 0 0 0 0.227451 0 0 0 0 0.282353 0 0 0 0.01 0"/>
<feBlend mode="normal" in2="effect3_dropShadow_1_808" result="effect4_dropShadow_1_808"/>
<feBlend mode="normal" in="SourceGraphic" in2="effect4_dropShadow_1_808" result="shape"/>
</filter>
<filter id="filter2_dddd_1_808" x="0.498535" y="58.5" width="271.003" height="159.091" filterUnits="userSpaceOnUse" color-interpolation-filters="sRGB">
<feFlood flood-opacity="0" result="BackgroundImageFix"/>
<feColorMatrix in="SourceAlpha" type="matrix" values="0 0 0 0 0 0 0 0 0 0 0 0 0 0 0 0 0 0 127 0" result="hardAlpha"/>
<feOffset dy="6"/>
<feGaussianBlur stdDeviation="6"/>
<feColorMatrix type="matrix" values="0 0 0 0 0.0588235 0 0 0 0 0.227451 0 0 0 0 0.282353 0 0 0 0.1 0"/>
<feBlend mode="normal" in2="BackgroundImageFix" result="effect1_dropShadow_1_808"/>
<feColorMatrix in="SourceAlpha" type="matrix" values="0 0 0 0 0 0 0 0 0 0 0 0 0 0 0 0 0 0 127 0" result="hardAlpha"/>
<feOffset dy="22"/>
<feGaussianBlur stdDeviation="11"/>
<feColorMatrix type="matrix" values="0 0 0 0 0.0588235 0 0 0 0 0.227451 0 0 0 0 0.282353 0 0 0 0.09 0"/>
<feBlend mode="normal" in2="effect1_dropShadow_1_808" result="effect2_dropShadow_1_808"/>
<feColorMatrix in="SourceAlpha" type="matrix" values="0 0 0 0 0 0 0 0 0 0 0 0 0 0 0 0 0 0 127 0" result="hardAlpha"/>
<feOffset dy="50"/>
<feGaussianBlur stdDeviation="15"/>
<feColorMatrix type="matrix" values="0 0 0 0 0.0588235 0 0 0 0 0.227451 0 0 0 0 0.282353 0 0 0 0.05 0"/>
<feBlend mode="normal" in2="effect2_dropShadow_1_808" result="effect3_dropShadow_1_808"/>
<feColorMatrix in="SourceAlpha" type="matrix" values="0 0 0 0 0 0 0 0 0 0 0 0 0 0 0 0 0 0 127 0" result="hardAlpha"/>
<feOffset dy="88"/>
<feGaussianBlur stdDeviation="17.5"/>
<feColorMatrix type="matrix" values="0 0 0 0 0.0588235 0 0 0 0 0.227451 0 0 0 0 0.282353 0 0 0 0.01 0"/>
<feBlend mode="normal" in2="effect3_dropShadow_1_808" result="effect4_dropShadow_1_808"/>
<feBlend mode="normal" in="SourceGraphic" in2="effect4_dropShadow_1_808" result="shape"/>
</filter>
<radialGradient id="paint0_radial_1_808" cx="0" cy="0" r="1" gradientUnits="userSpaceOnUse" gradientTransform="translate(135.991 111.809) rotate(89.9768) scale(22.2102 148.359)">
<stop stop-color="white"/>
<stop offset="1" stop-color="#D0ECF7"/>
</radialGradient>
<radialGradient id="paint1_radial_1_808" cx="0" cy="0" r="1" gradientUnits="userSpaceOnUse" gradientTransform="translate(135.991 72.3811) rotate(89.9768) scale(22.2102 148.359)">
<stop stop-color="white"/>
<stop offset="1" stop-color="#D0ECF7"/>
</radialGradient>
</defs>
</svg>
