<svg xmlns="http://www.w3.org/2000/svg" width="600" height="100" viewBox="0 0 600 100">
<!-- Stadt -->
<svg width="100" height="100" x="0" y="0" xmlns="http://www.w3.org/2000/svg">
  <rect width="100" height="100" rx="10" fill="#fdf8f4" stroke="#000" stroke-width="2"/>
  <g transform="translate(30,20)">
    <rect width="10" height="20" x="0" y="10" fill="black"/>
    <rect width="10" height="30" x="10" y="0" fill="black"/>
    <rect width="10" height="20" x="20" y="10" fill="black"/>
  </g>
  <text x="50" y="85" font-size="14" text-anchor="middle" font-family="Arial" fill="black">Stadt</text>
</svg>

<!-- Land -->
<svg width="100" height="100" x="100" y="0" xmlns="http://www.w3.org/2000/svg">
  <rect width="100" height="100" rx="10" fill="#dff5dc" stroke="#000" stroke-width="2"/>
  <circle cx="50" cy="40" r="18" stroke="black" stroke-width="2" fill="none"/>
  <path d="M32,40 h36 M50,22 v36 M38,28 a18,18 0 0 1 24,24" stroke="black" fill="none"/>
  <text x="50" y="85" font-size="14" text-anchor="middle" font-family="Arial" fill="black">Land</text>
</svg>

<!-- Fluss -->
<svg width="100" height="100" x="200" y="0" xmlns="http://www.w3.org/2000/svg">
  <rect width="100" height="100" rx="10" fill="#d6edff" stroke="#000" stroke-width="2"/>
  <path d="M20,40 q5,5 10,0 t10,0 t10,0 t10,0" stroke="black" stroke-width="3" fill="none"/>
  <path d="M20,55 q5,5 10,0 t10,0 t10,0 t10,0" stroke="black" stroke-width="3" fill="none"/>
  <text x="50" y="85" font-size="14" text-anchor="middle" font-family="Arial" fill="black">Fluss</text>
</svg>

<!-- Tier -->
<svg width="100" height="100" x="300" y="0" xmlns="http://www.w3.org/2000/svg">
  <rect width="100" height="100" rx="10" fill="#fff2ea" stroke="#000" stroke-width="2"/>
  <circle cx="35" cy="40" r="8" fill="black"/>
  <circle cx="65" cy="40" r="8" fill="black"/>
  <circle cx="40" cy="60" r="7" fill="black"/>
  <circle cx="60" cy="60" r="7" fill="black"/>
  <path d="M42,55 q8,-10 16,0 q-4,10 -16,0" fill="black"/>
  <text x="50" y="85" font-size="14" text-anchor="middle" font-family="Arial" fill="black">Tier</text>
</svg>

<!-- Name -->
<svg width="100" height="100" x="400" y="0" xmlns="http://www.w3.org/2000/svg">
  <rect width="100" height="100" rx="10" fill="#fdeef2" stroke="#000" stroke-width="2"/>
  <circle cx="50" cy="35" r="10" fill="black"/>
  <path d="M35,70 q15,-20 30,0 z" fill="black"/>
  <text x="50" y="85" font-size="14" text-anchor="middle" font-family="Arial" fill="black">Name</text>
</svg>

<!-- Jackpot -->
<svg width="100" height="100" x="500" y="0" xmlns="http://www.w3.org/2000/svg">
  <rect width="100" height="100" rx="10" fill="#ffec69" stroke="#000" stroke-width="2"/>
  <polygon points="50,20 58,40 80,40 62,55 70,75 50,62 30,75 38,55 20,40 42,40" fill="black"/>
  <text x="50" y="85" font-size="14" text-anchor="middle" font-family="Arial" fill="black">Jackpot</text>
</svg>
</svg>