<svg width="282" height="263" viewBox="0 0 282 263" fill="none" xmlns="http://www.w3.org/2000/svg">
<g filter="url(#filter0_i_1_755)">
<path d="M11 24C11 10.7452 21.7452 0 35 0H247C260.255 0 271 10.7452 271 24V236C271 249.255 260.255 260 247 260H35C21.7452 260 11 249.255 11 236V24Z" fill="#D0ECF7"/>
</g>
<path d="M199.726 218.888C199.726 224.14 195.514 227.468 188.91 227.468C182.098 227.468 177.574 223.984 177.574 218.68H183.97C184.022 220.5 185.79 221.592 188.65 221.592C191.302 221.592 192.81 220.656 192.81 219.2C192.81 218.056 191.718 217.38 188.702 216.912L186.726 216.548C180.382 215.456 177.886 213.324 177.886 209.008C177.886 203.86 181.838 200.532 188.078 200.532C194.526 200.532 198.842 204.016 198.842 209.268H192.498C192.446 207.448 190.886 206.408 188.338 206.408C186.154 206.408 184.802 207.24 184.802 208.696C184.802 209.892 185.894 210.568 189.014 211.088L190.99 211.452C197.23 212.544 199.726 214.624 199.726 218.888Z" fill="#428EAC"/>
<path d="M174.285 218.888C174.285 224.14 170.073 227.468 163.469 227.468C156.657 227.468 152.133 223.984 152.133 218.68H158.529C158.581 220.5 160.349 221.592 163.209 221.592C165.861 221.592 167.369 220.656 167.369 219.2C167.369 218.056 166.277 217.38 163.261 216.912L161.285 216.548C154.941 215.456 152.445 213.324 152.445 209.008C152.445 203.86 156.397 200.532 162.637 200.532C169.085 200.532 173.401 204.016 173.401 209.268H167.057C167.005 207.448 165.445 206.408 162.897 206.408C160.713 206.408 159.361 207.24 159.361 208.696C159.361 209.892 160.453 210.568 163.573 211.088L165.549 211.452C171.789 212.544 174.285 214.624 174.285 218.888Z" fill="#428EAC"/>
<path d="M140.632 216.288V201H147.86V227H140.632V224.192C138.812 226.272 136.16 227.468 132.988 227.468C127.268 227.468 123.108 223.412 123.108 217.796V201H130.336V216.288C130.336 219.408 132.312 221.384 135.484 221.384C138.604 221.384 140.632 219.408 140.632 216.288Z" fill="#428EAC"/>
<path d="M117.896 227H110.668V189.56H117.896V227Z" fill="#428EAC"/>
<path d="M84.172 227V190.6H106.272V197.36H92.024V205.42H104.504V212.18H92.024V227H84.172Z" fill="#428EAC"/>
<g filter="url(#filter1_dddd_1_755)">
<path d="M220.126 104.018C227.506 103.402 232.787 106.053 236.179 108.96C237.839 110.383 239.024 111.843 239.803 112.961C240.194 113.523 240.489 114.009 240.696 114.373C240.8 114.556 240.882 114.709 240.943 114.827C240.974 114.887 241 114.937 241.02 114.979C241.031 114.999 241.039 115.018 241.047 115.034C241.051 115.042 241.054 115.05 241.058 115.057C241.059 115.06 241.061 115.064 241.062 115.067C241.063 115.068 241.064 115.071 241.064 115.072C241.065 115.074 241.067 115.076 237 117.002L241.067 115.076C242.131 117.322 241.172 120.005 238.926 121.069C236.75 122.099 234.164 121.232 233.037 119.135L232.946 118.955C232.949 118.962 232.952 118.967 232.953 118.97C232.952 118.969 232.951 118.967 232.95 118.964C232.94 118.944 232.913 118.894 232.87 118.819C232.784 118.667 232.634 118.418 232.416 118.105C231.976 117.473 231.286 116.619 230.321 115.792C228.463 114.199 225.493 112.601 220.874 112.987C219.036 113.14 217.048 114.017 214.612 115.763C212.127 117.545 209.698 119.827 206.712 122.477C201.074 127.48 193.747 133.567 183.693 133.998C173.259 134.446 166.06 127.647 160.385 122.55C154.211 117.006 149.363 112.933 142.545 113.002C135.701 113.071 131.021 117.139 125.102 122.612C119.634 127.666 112.697 134.399 102.326 133.998C92.1735 133.606 85.3781 127.025 80.1142 122.028C74.3442 116.549 70.3881 113.002 65 113.002C59.0916 113.002 55.2333 115.697 52.7314 118.499C51.4596 119.924 50.5601 121.361 49.9824 122.44C49.696 122.974 49.4955 123.408 49.373 123.691C49.3119 123.832 49.2702 123.934 49.248 123.99C49.2428 124.004 49.2384 124.015 49.2353 124.023L49.2363 124.02C48.3988 126.358 45.8254 127.575 43.4863 126.74C41.146 125.904 39.9259 123.329 40.7617 120.989L44.8252 122.44C40.8804 121.031 40.7663 120.988 40.7636 120.985C40.7639 120.984 40.765 120.981 40.7656 120.98C40.7667 120.977 40.7673 120.973 40.7685 120.97L40.8008 120.884C40.8189 120.836 40.8419 120.774 40.8711 120.699C40.9294 120.551 41.0103 120.352 41.1152 120.11C41.3247 119.627 41.6323 118.967 42.0488 118.19C42.8773 116.643 44.1654 114.581 46.0185 112.505C49.7666 108.307 55.9083 104.002 65 104.002C74.6119 104.002 81.1897 110.637 86.3115 115.5C91.9393 120.844 96.3939 124.762 102.674 125.005C108.735 125.239 112.979 121.563 118.992 116.003C124.553 110.862 131.657 104.111 142.455 104.002C153.279 103.893 160.631 110.676 166.397 115.855C172.662 121.48 177.142 125.27 183.307 125.006C189.852 124.725 195.026 120.813 200.738 115.744C203.427 113.358 206.386 110.587 209.369 108.448C212.401 106.275 215.964 104.365 220.126 104.018ZM49.2353 124.023L49.2304 124.037L49.2295 124.039L49.2353 124.023Z" fill="url(#paint0_radial_1_755)"/>
</g>
<g filter="url(#filter2_dddd_1_755)">
<path d="M219.71 99.0354C228.626 98.2911 235.192 101.529 239.433 105.164C240.84 106.37 241.968 107.598 242.851 108.699L243.447 108.417L245.578 112.918L245.587 112.941C245.607 112.979 245.649 113.064 245.699 113.19C247.757 117.879 245.723 123.382 241.066 125.587C236.472 127.763 231.013 125.934 228.632 121.501L228.603 121.447L228.575 121.391L228.523 121.288L228.313 120.962C228.059 120.598 227.643 120.083 227.067 119.588C226.126 118.782 224.588 117.838 221.853 117.936L221.29 117.969C220.743 118.015 219.63 118.318 217.526 119.826C215.317 121.41 213.188 123.416 210.031 126.217C204.428 131.189 195.908 138.478 183.908 138.993C171.109 139.543 162.408 131.087 157.044 126.27C150.629 120.508 147.179 117.956 142.595 118.002C137.955 118.049 134.63 120.613 128.495 126.283C123.315 131.073 114.891 139.488 102.133 138.994C89.8351 138.519 81.7448 130.471 76.6713 125.654C70.5125 119.806 68.0288 118.002 65.0004 118.002C61.1139 118.002 58.5956 119.589 56.809 121.453L56.4613 121.829C55.5127 122.892 54.8288 123.982 54.39 124.801C54.1763 125.2 54.0348 125.508 53.9603 125.68C53.9472 125.71 53.9358 125.736 53.9271 125.756L53.8617 125.955L53.7953 126.086C51.8898 130.772 46.6136 133.166 41.8051 131.449H41.8041C37.9091 130.057 35.4859 126.383 35.4994 122.469L35.0951 121.982L36.0463 119.328C36.0488 119.321 36.0506 119.314 36.0531 119.307L37.7347 114.598L38.2338 114.776C39.1883 113.136 40.513 111.164 42.2885 109.175C46.7258 104.205 54.1365 99.0022 65.0004 99.0022C76.9495 99.0024 84.9728 107.335 89.7543 111.874C95.6002 117.425 98.7466 119.85 102.867 120.009C106.523 120.15 109.259 118.192 115.598 112.331C120.971 107.364 129.417 99.1333 142.405 99.0022L142.455 104.002L141.952 104.012C131.436 104.322 124.467 110.942 118.993 116.003L117.884 117.023C112.622 121.841 108.63 125.009 103.237 125.016L102.674 125.005C96.7868 124.778 92.5035 121.319 87.3539 116.485L86.3119 115.5C81.2702 110.713 74.8172 104.209 65.4486 104.007L65.0004 104.002C55.9089 104.002 49.767 108.307 46.0189 112.505L45.6781 112.894C44.0066 114.836 42.826 116.74 42.0492 118.19C41.6328 118.967 41.3251 119.627 41.1156 120.11C41.0107 120.352 40.9298 120.551 40.8715 120.7C40.8423 120.774 40.8193 120.836 40.8011 120.884L40.7689 120.97C40.7677 120.973 40.767 120.977 40.766 120.98C40.7655 120.981 40.7644 120.984 40.764 120.985C40.7715 120.99 40.9486 121.055 44.8256 122.44L40.7621 120.989C39.9263 123.329 41.1464 125.904 43.4867 126.74C45.8257 127.575 48.3993 126.357 49.2367 124.02L49.2357 124.023C49.2388 124.015 49.2432 124.004 49.2484 123.991L49.3734 123.691C49.4653 123.479 49.6006 123.181 49.7836 122.821L49.9828 122.44C50.4883 121.496 51.2399 120.278 52.2719 119.033L52.7318 118.499C55.2337 115.697 59.0922 113.002 65.0004 113.002L65.5013 113.013C70.6373 113.226 74.525 116.721 80.1146 122.028C85.3785 127.025 92.174 133.606 102.327 133.998C111.401 134.349 117.847 129.238 122.979 124.569L125.102 122.612C131.022 117.139 135.701 113.072 142.545 113.002L143.178 113.008C149.667 113.19 154.404 117.179 160.385 122.55C165.972 127.567 173.034 134.234 183.206 134.014L183.694 133.998C193.119 133.594 200.148 128.219 205.635 123.426L206.712 122.477C209.698 119.828 212.127 117.545 214.613 115.763C216.897 114.126 218.786 113.253 220.528 113.024L220.874 112.987C225.494 112.601 228.463 114.199 230.322 115.792C231.286 116.619 231.976 117.473 232.416 118.105C232.634 118.418 232.784 118.667 232.87 118.819C232.913 118.894 232.94 118.944 232.951 118.964C232.952 118.966 232.953 118.969 232.953 118.97L233.037 119.135C234.164 121.232 236.75 122.099 238.926 121.069C241.172 120.005 242.131 117.322 241.068 115.076L237 117.002C241.023 115.097 241.065 115.074 241.065 115.072C241.064 115.071 241.064 115.068 241.063 115.067C241.061 115.064 241.06 115.06 241.058 115.057C241.055 115.05 241.051 115.042 241.047 115.034C241.039 115.018 241.031 114.999 241.021 114.979C241 114.937 240.974 114.887 240.944 114.827C240.882 114.709 240.8 114.556 240.697 114.373C240.49 114.009 240.194 113.523 239.803 112.961C239.073 111.913 237.985 110.565 236.485 109.228L236.179 108.96C232.788 106.053 227.506 103.402 220.126 104.018L219.738 104.055C215.742 104.485 212.307 106.343 209.37 108.449C206.387 110.587 203.428 113.358 200.739 115.744L199.673 116.681C194.374 121.288 189.443 124.743 183.307 125.006L182.734 125.019C177.239 125.031 173.039 121.77 167.552 116.888L166.398 115.855C160.632 110.677 153.279 103.893 142.455 104.002L142.405 99.0022C155.449 98.8709 164.187 107.15 169.739 112.135C176.353 118.075 179.31 120.173 183.092 120.011C187.683 119.814 191.658 117.116 197.419 112.004C199.949 109.759 203.198 106.721 206.456 104.385L207.099 103.932C210.378 101.671 214.598 99.4624 219.709 99.0354H219.71ZM245.74 113.299C245.741 113.304 245.743 113.309 245.744 113.311C245.744 113.312 245.745 113.314 245.745 113.314L245.745 113.312C245.744 113.311 245.744 113.309 245.744 113.308C245.742 113.305 245.74 113.3 245.738 113.293L245.737 113.291C245.738 113.294 245.739 113.297 245.74 113.299ZM245.661 113.104C245.656 113.093 245.651 113.082 245.646 113.07C245.642 113.06 245.637 113.049 245.632 113.038C245.643 113.062 245.652 113.085 245.661 113.104Z" fill="url(#paint1_linear_1_755)" fill-opacity="0.48"/>
</g>
<g filter="url(#filter3_dddd_1_755)">
<path d="M220.126 64.5899C227.506 63.9737 232.787 66.6251 236.179 69.5322C237.839 70.9553 239.024 72.4149 239.803 73.5332C240.194 74.0953 240.489 74.581 240.696 74.9453C240.8 75.1277 240.882 75.2808 240.943 75.3994C240.974 75.4587 241 75.5092 241.02 75.5508C241.031 75.5715 241.039 75.5904 241.047 75.6065C241.051 75.6144 241.054 75.6221 241.058 75.6289C241.059 75.6322 241.061 75.6357 241.062 75.6387C241.063 75.6401 241.064 75.6426 241.064 75.6436C241.065 75.6458 241.067 75.6482 237 77.5742L241.067 75.6485C242.131 77.8945 241.172 80.577 238.926 81.6406C236.75 82.6711 234.164 81.8043 233.037 79.707L232.946 79.5274C232.949 79.534 232.952 79.5391 232.953 79.542C232.952 79.5405 232.951 79.5385 232.95 79.5361C232.94 79.5161 232.913 79.466 232.87 79.3906C232.784 79.2392 232.634 78.9898 232.416 78.6768C231.976 78.0448 231.286 77.1914 230.321 76.3643C228.463 74.771 225.493 73.1728 220.874 73.5586C219.036 73.7122 217.048 74.5887 214.612 76.335C212.127 78.1167 209.698 80.3995 206.712 83.0488C201.074 88.0517 193.747 94.1388 183.693 94.5703C173.259 95.018 166.06 88.2187 160.385 83.1221C154.211 77.5779 149.363 73.5054 142.545 73.5742C135.701 73.6435 131.021 77.7108 125.102 83.1836C119.634 88.2384 112.697 94.9713 102.326 94.5703C92.1735 94.1778 85.3781 87.5974 80.1142 82.5996C74.3442 77.1213 70.3881 73.5742 65 73.5742C59.0916 73.5742 55.2333 76.2692 52.7314 79.0713C51.4596 80.4958 50.5601 81.9333 49.9824 83.0117C49.696 83.5464 49.4955 83.9803 49.373 84.2627C49.3119 84.4036 49.2702 84.506 49.248 84.5625C49.2428 84.5759 49.2384 84.5866 49.2353 84.5947L49.2363 84.5918C48.3988 86.9295 45.8254 88.1469 43.4863 87.3115C41.146 86.4756 39.9259 83.9009 40.7617 81.5606L44.8252 83.0117C40.8804 81.6028 40.7663 81.5598 40.7636 81.5567C40.7639 81.5559 40.765 81.5533 40.7656 81.5518C40.7667 81.5488 40.7673 81.5454 40.7685 81.542L40.8008 81.4561C40.8189 81.4077 40.8419 81.3457 40.8711 81.2715C40.9294 81.123 41.0103 80.9236 41.1152 80.6817C41.3247 80.1985 41.6323 79.5392 42.0488 78.7617C42.8773 77.2152 44.1654 75.1526 46.0185 73.0772C49.7666 68.8793 55.9083 64.5742 65 64.5742C74.6119 64.5742 81.1897 71.2094 86.3115 76.0723C91.9393 81.4156 96.3939 85.3343 102.674 85.5772C108.735 85.8115 112.979 82.1347 118.992 76.5752C124.553 71.4339 131.657 64.6832 142.455 64.5742C153.279 64.4652 160.631 71.2485 166.397 76.4268C172.662 82.0525 177.142 85.8424 183.307 85.5781C189.852 85.2974 195.026 81.3849 200.738 76.3164C203.427 73.9302 206.386 71.1588 209.369 69.0205C212.401 66.8469 215.964 64.9374 220.126 64.5899ZM49.2353 84.5947L49.2304 84.6094L49.2295 84.6113L49.2353 84.5947Z" fill="url(#paint2_radial_1_755)"/>
</g>
<g filter="url(#filter4_dddd_1_755)">
<path d="M219.71 59.6075C228.626 58.8631 235.192 62.1012 239.433 65.7364C240.84 66.9422 241.968 68.17 242.851 69.2706L243.447 68.9893L245.578 73.4903L245.587 73.5127C245.607 73.5509 245.649 73.6363 245.699 73.7618C247.757 78.4512 245.723 83.9537 241.066 86.1592C236.472 88.3347 231.013 86.5056 228.632 82.0733L228.603 82.0186L228.575 81.9629L228.523 81.8604L228.313 81.5342C228.059 81.1699 227.643 80.6546 227.067 80.1602C226.126 79.3543 224.588 78.41 221.853 78.5079L221.29 78.5411C220.743 78.5868 219.63 78.8901 217.526 80.3985C215.317 81.9815 213.188 83.9879 210.031 86.7891C204.428 91.7607 195.908 99.0505 183.908 99.5655C171.109 100.115 162.408 91.6591 157.044 86.8418C150.629 81.0803 147.179 78.528 142.595 78.5743C137.955 78.6214 134.63 81.1847 128.495 86.8555C123.315 91.6446 114.891 100.06 102.133 99.5665C89.8351 99.091 81.7448 91.0427 76.6713 86.2256C70.5125 80.3782 68.0288 78.5744 65.0004 78.5743C61.1139 78.5743 58.5956 80.1615 56.809 82.0254L56.4613 82.4014C55.5127 83.4638 54.8288 84.5541 54.39 85.3731C54.1763 85.7721 54.0348 86.0803 53.9603 86.252C53.9472 86.2822 53.9358 86.3076 53.9271 86.3282L53.8617 86.5274L53.7953 86.6583C51.8898 91.3441 46.6136 93.7376 41.8051 92.0206H41.8041C37.9091 90.6292 35.4859 86.9553 35.4994 83.0411L35.0951 82.5538L36.0463 79.9004C36.0488 79.8934 36.0506 79.886 36.0531 79.879L37.7347 75.17L38.2338 75.3477C39.1883 73.708 40.513 71.7356 42.2885 69.7471C46.7258 64.7773 54.1365 59.5743 65.0004 59.5743C76.9495 59.5744 84.9728 67.9066 89.7543 72.4463C95.6002 77.9967 98.7466 80.4216 102.867 80.5811C106.523 80.7225 109.259 78.7636 115.598 72.9034C120.971 67.9363 129.417 59.7053 142.405 59.5743L142.455 64.5743L141.952 64.584C131.436 64.8936 124.467 71.5143 118.993 76.5752L117.884 77.5948C112.622 82.4127 108.63 85.5806 103.237 85.5879L102.674 85.5772C96.7868 85.3496 92.5035 81.8909 87.3539 77.0567L86.3119 76.0723C81.2702 71.2855 74.8172 64.7814 65.4486 64.5791L65.0004 64.5743C55.9089 64.5743 49.767 68.8794 46.0189 73.0772L45.6781 73.4659C44.0066 75.4083 42.826 77.3118 42.0492 78.7618C41.6328 79.5391 41.3251 80.1986 41.1156 80.6817C41.0107 80.9236 40.9298 81.123 40.8715 81.2715C40.8423 81.3457 40.8193 81.4077 40.8011 81.4561L40.7689 81.542C40.7677 81.5454 40.767 81.5489 40.766 81.5518C40.7655 81.5533 40.7644 81.5558 40.764 81.5567C40.7715 81.5615 40.9486 81.6271 44.8256 83.0118L40.7621 81.5606C39.9263 83.901 41.1464 86.4756 43.4867 87.3116C45.8257 88.1467 48.3993 86.9295 49.2367 84.5918L49.2357 84.5948C49.2388 84.5867 49.2432 84.5758 49.2484 84.5625L49.3734 84.2627C49.4653 84.0508 49.6006 83.7535 49.7836 83.3926L49.9828 83.0118C50.4883 82.0682 51.2399 80.8496 52.2719 79.6055L52.7318 79.0713C55.2337 76.2693 59.0922 73.5743 65.0004 73.5743L65.5013 73.585C70.6373 73.7984 74.525 77.2926 80.1146 82.5997C85.3785 87.5974 92.174 94.1778 102.327 94.5704C111.401 94.9211 117.847 89.8102 122.979 85.1407L125.102 83.1836C131.022 77.7109 135.701 73.6435 142.545 73.5743L143.178 73.5801C149.667 73.7616 154.404 77.7511 160.385 83.1221C165.972 88.1391 173.034 94.8058 183.206 94.586L183.694 94.5704C193.119 94.1657 200.148 88.7906 205.635 83.9981L206.712 83.0489C209.698 80.3996 212.127 78.1167 214.613 76.335C216.897 74.698 218.786 73.825 220.528 73.5958L220.874 73.5586C225.494 73.173 228.463 74.7711 230.322 76.3643C231.286 77.1914 231.976 78.0449 232.416 78.6768C232.634 78.9898 232.784 79.2393 232.87 79.3907C232.913 79.4659 232.94 79.5162 232.951 79.5362C232.952 79.5385 232.953 79.5406 232.953 79.542L233.037 79.7071C234.164 81.8042 236.75 82.6711 238.926 81.6407C241.172 80.5769 242.131 77.8944 241.068 75.6485L237 77.5743C241.023 75.6692 241.065 75.646 241.065 75.6436C241.064 75.6427 241.064 75.6402 241.063 75.6387C241.061 75.6357 241.06 75.6322 241.058 75.629C241.055 75.6222 241.051 75.6144 241.047 75.6065C241.039 75.5904 241.031 75.5714 241.021 75.5508C241 75.5093 240.974 75.4586 240.944 75.3995C240.882 75.2809 240.8 75.1276 240.697 74.9454C240.49 74.5811 240.194 74.0953 239.803 73.5333C239.073 72.4849 237.985 71.1367 236.485 69.7999L236.179 69.5323C232.788 66.6251 227.506 63.9738 220.126 64.5899L219.738 64.627C215.742 65.057 212.307 66.9149 209.37 69.0206C206.387 71.1588 203.428 73.9303 200.739 76.3165L199.673 77.253C194.374 81.86 189.443 85.3148 183.307 85.5782L182.734 85.5909C177.239 85.6028 173.039 82.3424 167.552 77.46L166.398 76.4268C160.632 71.2486 153.279 64.4654 142.455 64.5743L142.405 59.5743C155.449 59.4429 164.187 67.7216 169.739 72.7071C176.353 78.6473 179.31 80.745 183.092 80.5831C187.683 80.3861 191.658 77.6881 197.419 72.5762C199.949 70.3313 203.198 67.2931 206.456 64.9571L207.099 64.504C210.378 62.2428 214.598 60.0345 219.709 59.6075H219.71ZM245.74 73.8711C245.741 73.8761 245.743 73.8806 245.744 73.8829C245.744 73.8844 245.745 73.8858 245.745 73.8858L245.745 73.8838C245.744 73.883 245.744 73.8814 245.744 73.8799C245.742 73.8768 245.74 73.8717 245.738 73.8653L245.737 73.8633C245.738 73.8662 245.739 73.8689 245.74 73.8711ZM245.661 73.6758C245.656 73.6653 245.651 73.6536 245.646 73.6417C245.642 73.6319 245.637 73.6214 245.632 73.6104C245.643 73.6344 245.652 73.6566 245.661 73.6758Z" fill="url(#paint3_linear_1_755)" fill-opacity="0.48"/>
</g>
<defs>
<filter id="filter0_i_1_755" x="11" y="0" width="260" height="264" filterUnits="userSpaceOnUse" color-interpolation-filters="sRGB">
<feFlood flood-opacity="0" result="BackgroundImageFix"/>
<feBlend mode="normal" in="SourceGraphic" in2="BackgroundImageFix" result="shape"/>
<feColorMatrix in="SourceAlpha" type="matrix" values="0 0 0 0 0 0 0 0 0 0 0 0 0 0 0 0 0 0 127 0" result="hardAlpha"/>
<feOffset dy="4"/>
<feGaussianBlur stdDeviation="17.85"/>
<feComposite in2="hardAlpha" operator="arithmetic" k2="-1" k3="1"/>
<feColorMatrix type="matrix" values="0 0 0 0 0.697345 0 0 0 0 0.838038 0 0 0 0 0.893311 0 0 0 1 0"/>
<feBlend mode="normal" in2="shape" result="effect1_innerShadow_1_755"/>
</filter>
<filter id="filter1_dddd_1_755" x="5.49841" y="97.928" width="271.003" height="159.091" filterUnits="userSpaceOnUse" color-interpolation-filters="sRGB">
<feFlood flood-opacity="0" result="BackgroundImageFix"/>
<feColorMatrix in="SourceAlpha" type="matrix" values="0 0 0 0 0 0 0 0 0 0 0 0 0 0 0 0 0 0 127 0" result="hardAlpha"/>
<feOffset dy="6"/>
<feGaussianBlur stdDeviation="6"/>
<feColorMatrix type="matrix" values="0 0 0 0 0.0588235 0 0 0 0 0.227451 0 0 0 0 0.282353 0 0 0 0.1 0"/>
<feBlend mode="normal" in2="BackgroundImageFix" result="effect1_dropShadow_1_755"/>
<feColorMatrix in="SourceAlpha" type="matrix" values="0 0 0 0 0 0 0 0 0 0 0 0 0 0 0 0 0 0 127 0" result="hardAlpha"/>
<feOffset dy="22"/>
<feGaussianBlur stdDeviation="11"/>
<feColorMatrix type="matrix" values="0 0 0 0 0.0588235 0 0 0 0 0.227451 0 0 0 0 0.282353 0 0 0 0.09 0"/>
<feBlend mode="normal" in2="effect1_dropShadow_1_755" result="effect2_dropShadow_1_755"/>
<feColorMatrix in="SourceAlpha" type="matrix" values="0 0 0 0 0 0 0 0 0 0 0 0 0 0 0 0 0 0 127 0" result="hardAlpha"/>
<feOffset dy="50"/>
<feGaussianBlur stdDeviation="15"/>
<feColorMatrix type="matrix" values="0 0 0 0 0.0588235 0 0 0 0 0.227451 0 0 0 0 0.282353 0 0 0 0.05 0"/>
<feBlend mode="normal" in2="effect2_dropShadow_1_755" result="effect3_dropShadow_1_755"/>
<feColorMatrix in="SourceAlpha" type="matrix" values="0 0 0 0 0 0 0 0 0 0 0 0 0 0 0 0 0 0 127 0" result="hardAlpha"/>
<feOffset dy="88"/>
<feGaussianBlur stdDeviation="17.5"/>
<feColorMatrix type="matrix" values="0 0 0 0 0.0588235 0 0 0 0 0.227451 0 0 0 0 0.282353 0 0 0 0.01 0"/>
<feBlend mode="normal" in2="effect3_dropShadow_1_755" result="effect4_dropShadow_1_755"/>
<feBlend mode="normal" in="SourceGraphic" in2="effect4_dropShadow_1_755" result="shape"/>
</filter>
<filter id="filter2_dddd_1_755" x="0.0950928" y="92.928" width="281.405" height="169.091" filterUnits="userSpaceOnUse" color-interpolation-filters="sRGB">
<feFlood flood-opacity="0" result="BackgroundImageFix"/>
<feColorMatrix in="SourceAlpha" type="matrix" values="0 0 0 0 0 0 0 0 0 0 0 0 0 0 0 0 0 0 127 0" result="hardAlpha"/>
<feOffset dy="6"/>
<feGaussianBlur stdDeviation="6"/>
<feColorMatrix type="matrix" values="0 0 0 0 0.0588235 0 0 0 0 0.227451 0 0 0 0 0.282353 0 0 0 0.1 0"/>
<feBlend mode="normal" in2="BackgroundImageFix" result="effect1_dropShadow_1_755"/>
<feColorMatrix in="SourceAlpha" type="matrix" values="0 0 0 0 0 0 0 0 0 0 0 0 0 0 0 0 0 0 127 0" result="hardAlpha"/>
<feOffset dy="22"/>
<feGaussianBlur stdDeviation="11"/>
<feColorMatrix type="matrix" values="0 0 0 0 0.0588235 0 0 0 0 0.227451 0 0 0 0 0.282353 0 0 0 0.09 0"/>
<feBlend mode="normal" in2="effect1_dropShadow_1_755" result="effect2_dropShadow_1_755"/>
<feColorMatrix in="SourceAlpha" type="matrix" values="0 0 0 0 0 0 0 0 0 0 0 0 0 0 0 0 0 0 127 0" result="hardAlpha"/>
<feOffset dy="50"/>
<feGaussianBlur stdDeviation="15"/>
<feColorMatrix type="matrix" values="0 0 0 0 0.0588235 0 0 0 0 0.227451 0 0 0 0 0.282353 0 0 0 0.05 0"/>
<feBlend mode="normal" in2="effect2_dropShadow_1_755" result="effect3_dropShadow_1_755"/>
<feColorMatrix in="SourceAlpha" type="matrix" values="0 0 0 0 0 0 0 0 0 0 0 0 0 0 0 0 0 0 127 0" result="hardAlpha"/>
<feOffset dy="88"/>
<feGaussianBlur stdDeviation="17.5"/>
<feColorMatrix type="matrix" values="0 0 0 0 0.0588235 0 0 0 0 0.227451 0 0 0 0 0.282353 0 0 0 0.01 0"/>
<feBlend mode="normal" in2="effect3_dropShadow_1_755" result="effect4_dropShadow_1_755"/>
<feBlend mode="normal" in="SourceGraphic" in2="effect4_dropShadow_1_755" result="shape"/>
</filter>
<filter id="filter3_dddd_1_755" x="5.49841" y="58.5" width="271.003" height="159.091" filterUnits="userSpaceOnUse" color-interpolation-filters="sRGB">
<feFlood flood-opacity="0" result="BackgroundImageFix"/>
<feColorMatrix in="SourceAlpha" type="matrix" values="0 0 0 0 0 0 0 0 0 0 0 0 0 0 0 0 0 0 127 0" result="hardAlpha"/>
<feOffset dy="6"/>
<feGaussianBlur stdDeviation="6"/>
<feColorMatrix type="matrix" values="0 0 0 0 0.0588235 0 0 0 0 0.227451 0 0 0 0 0.282353 0 0 0 0.1 0"/>
<feBlend mode="normal" in2="BackgroundImageFix" result="effect1_dropShadow_1_755"/>
<feColorMatrix in="SourceAlpha" type="matrix" values="0 0 0 0 0 0 0 0 0 0 0 0 0 0 0 0 0 0 127 0" result="hardAlpha"/>
<feOffset dy="22"/>
<feGaussianBlur stdDeviation="11"/>
<feColorMatrix type="matrix" values="0 0 0 0 0.0588235 0 0 0 0 0.227451 0 0 0 0 0.282353 0 0 0 0.09 0"/>
<feBlend mode="normal" in2="effect1_dropShadow_1_755" result="effect2_dropShadow_1_755"/>
<feColorMatrix in="SourceAlpha" type="matrix" values="0 0 0 0 0 0 0 0 0 0 0 0 0 0 0 0 0 0 127 0" result="hardAlpha"/>
<feOffset dy="50"/>
<feGaussianBlur stdDeviation="15"/>
<feColorMatrix type="matrix" values="0 0 0 0 0.0588235 0 0 0 0 0.227451 0 0 0 0 0.282353 0 0 0 0.05 0"/>
<feBlend mode="normal" in2="effect2_dropShadow_1_755" result="effect3_dropShadow_1_755"/>
<feColorMatrix in="SourceAlpha" type="matrix" values="0 0 0 0 0 0 0 0 0 0 0 0 0 0 0 0 0 0 127 0" result="hardAlpha"/>
<feOffset dy="88"/>
<feGaussianBlur stdDeviation="17.5"/>
<feColorMatrix type="matrix" values="0 0 0 0 0.0588235 0 0 0 0 0.227451 0 0 0 0 0.282353 0 0 0 0.01 0"/>
<feBlend mode="normal" in2="effect3_dropShadow_1_755" result="effect4_dropShadow_1_755"/>
<feBlend mode="normal" in="SourceGraphic" in2="effect4_dropShadow_1_755" result="shape"/>
</filter>
<filter id="filter4_dddd_1_755" x="0.0950928" y="53.5" width="281.405" height="169.091" filterUnits="userSpaceOnUse" color-interpolation-filters="sRGB">
<feFlood flood-opacity="0" result="BackgroundImageFix"/>
<feColorMatrix in="SourceAlpha" type="matrix" values="0 0 0 0 0 0 0 0 0 0 0 0 0 0 0 0 0 0 127 0" result="hardAlpha"/>
<feOffset dy="6"/>
<feGaussianBlur stdDeviation="6"/>
<feColorMatrix type="matrix" values="0 0 0 0 0.0588235 0 0 0 0 0.227451 0 0 0 0 0.282353 0 0 0 0.1 0"/>
<feBlend mode="normal" in2="BackgroundImageFix" result="effect1_dropShadow_1_755"/>
<feColorMatrix in="SourceAlpha" type="matrix" values="0 0 0 0 0 0 0 0 0 0 0 0 0 0 0 0 0 0 127 0" result="hardAlpha"/>
<feOffset dy="22"/>
<feGaussianBlur stdDeviation="11"/>
<feColorMatrix type="matrix" values="0 0 0 0 0.0588235 0 0 0 0 0.227451 0 0 0 0 0.282353 0 0 0 0.09 0"/>
<feBlend mode="normal" in2="effect1_dropShadow_1_755" result="effect2_dropShadow_1_755"/>
<feColorMatrix in="SourceAlpha" type="matrix" values="0 0 0 0 0 0 0 0 0 0 0 0 0 0 0 0 0 0 127 0" result="hardAlpha"/>
<feOffset dy="50"/>
<feGaussianBlur stdDeviation="15"/>
<feColorMatrix type="matrix" values="0 0 0 0 0.0588235 0 0 0 0 0.227451 0 0 0 0 0.282353 0 0 0 0.05 0"/>
<feBlend mode="normal" in2="effect2_dropShadow_1_755" result="effect3_dropShadow_1_755"/>
<feColorMatrix in="SourceAlpha" type="matrix" values="0 0 0 0 0 0 0 0 0 0 0 0 0 0 0 0 0 0 127 0" result="hardAlpha"/>
<feOffset dy="88"/>
<feGaussianBlur stdDeviation="17.5"/>
<feColorMatrix type="matrix" values="0 0 0 0 0.0588235 0 0 0 0 0.227451 0 0 0 0 0.282353 0 0 0 0.01 0"/>
<feBlend mode="normal" in2="effect3_dropShadow_1_755" result="effect4_dropShadow_1_755"/>
<feBlend mode="normal" in="SourceGraphic" in2="effect4_dropShadow_1_755" result="shape"/>
</filter>
<radialGradient id="paint0_radial_1_755" cx="0" cy="0" r="1" gradientUnits="userSpaceOnUse" gradientTransform="translate(140.991 111.809) rotate(89.9768) scale(22.2102 148.359)">
<stop stop-color="white"/>
<stop offset="1" stop-color="#D0ECF7"/>
</radialGradient>
<linearGradient id="paint1_linear_1_755" x1="141" y1="103.928" x2="141" y2="134.019" gradientUnits="userSpaceOnUse">
<stop stop-color="#428EAC" stop-opacity="0.24"/>
<stop offset="1" stop-color="#428EAC"/>
</linearGradient>
<radialGradient id="paint2_radial_1_755" cx="0" cy="0" r="1" gradientUnits="userSpaceOnUse" gradientTransform="translate(140.991 72.3811) rotate(89.9768) scale(22.2102 148.359)">
<stop stop-color="white"/>
<stop offset="1" stop-color="#D0ECF7"/>
</radialGradient>
<linearGradient id="paint3_linear_1_755" x1="141" y1="64.5" x2="141" y2="94.5914" gradientUnits="userSpaceOnUse">
<stop stop-color="#428EAC" stop-opacity="0.24"/>
<stop offset="1" stop-color="#428EAC"/>
</linearGradient>
</defs>
</svg>
