<svg width="260" height="262" viewBox="0 0 260 262" fill="none" xmlns="http://www.w3.org/2000/svg">
<g filter="url(#filter0_i_1_771)">
<path d="M0 24C0 10.7452 10.7452 0 24 0H236C249.255 0 260 10.7452 260 24V236C260 249.255 249.255 260 236 260H24C10.7452 260 0 249.255 0 236V24Z" fill="#E9E9E9"/>
</g>
<path d="M179.611 218.524V206.668H175.503V201H179.611V194.76H186.839V201H192.559V206.668H186.839V218.108C186.839 219.46 187.775 220.448 189.127 220.448H192.559V227H188.503C183.355 227 179.611 223.464 179.611 218.524Z" fill="black" fill-opacity="0.31"/>
<path d="M144.844 214C144.844 206.148 149.784 200.532 156.7 200.532C159.976 200.532 162.784 201.78 164.864 203.964V189.56H172.092V227H164.864V224.036C162.784 226.22 159.976 227.468 156.7 227.468C149.784 227.468 144.844 221.8 144.844 214ZM152.54 214C152.54 218.108 155.036 220.916 158.676 220.916C162.368 220.916 164.864 218.108 164.864 214C164.864 209.892 162.368 207.084 158.676 207.084C155.036 207.084 152.54 209.892 152.54 214Z" fill="black" fill-opacity="0.31"/>
<path d="M140.774 209.32V227H133.546V224.556C131.83 226.376 129.282 227.52 126.266 227.52C121.17 227.52 117.582 224.296 117.582 219.564C117.582 214.624 121.586 211.4 127.618 211.4H133.546V209.476C133.546 207.76 132.038 206.668 129.75 206.668C127.462 206.668 125.798 207.76 125.798 209.372H118.466C118.466 204.224 123.302 200.48 129.75 200.48C136.146 200.48 140.774 204.224 140.774 209.32ZM133.546 216.288H128.606C126.422 216.288 124.966 217.276 124.966 218.888C124.966 220.552 126.526 221.592 129.022 221.592C131.674 221.592 133.494 220.292 133.546 218.42V216.288Z" fill="black" fill-opacity="0.31"/>
<path d="M101.204 218.524V206.668H97.0964V201H101.204V194.76H108.432V201H114.152V206.668H108.432V218.108C108.432 219.46 109.368 220.448 110.72 220.448H114.152V227H110.096C104.948 227 101.204 223.464 101.204 218.524Z" fill="black" fill-opacity="0.31"/>
<path d="M94.86 216.184C94.86 223.048 89.504 227.468 81.496 227.468C73.28 227.468 67.716 222.84 67.716 215.82H75.36C75.412 218.836 77.804 220.708 81.496 220.708C85.084 220.708 87.216 218.94 87.216 216.496C87.216 214.312 85.552 213.168 81.444 212.336L78.532 211.816C71.876 210.516 68.184 206.72 68.184 201.104C68.184 194.5 73.176 190.132 80.664 190.132C88.36 190.132 93.612 194.76 93.612 201.624H85.968C85.968 198.66 83.888 196.892 80.716 196.892C77.752 196.892 75.88 198.4 75.88 200.792C75.88 203.08 77.544 204.328 81.6 205.056L84.46 205.576C91.168 206.72 94.86 210.516 94.86 216.184Z" fill="black" fill-opacity="0.31"/>
<g filter="url(#filter1_dddd_1_771)">
<path d="M197.487 156.625C200.532 156.625 203 159.093 203 162.138C203 165.182 200.532 167.65 197.487 167.65H61.5127C58.4682 167.65 56 165.182 56 162.138C56.0001 159.093 58.4683 156.625 61.5127 156.625H66.1064V84.5312C66.1067 81.2177 68.7929 78.5312 72.1064 78.5312H92.75V34C92.7502 30.6865 95.4365 28.0001 98.75 28H160.25C163.563 28.0001 166.25 30.6865 166.25 34V100.581H185.976C189.289 100.581 191.975 103.268 191.976 106.581V156.625H197.487ZM82.8066 125.388C81.7023 125.388 80.807 126.283 80.8066 127.388V138.087C80.8066 139.191 81.7021 140.087 82.8066 140.087H93.5068C94.6111 140.087 95.5068 139.191 95.5068 138.087V127.388C95.5065 126.284 94.6109 125.388 93.5068 125.388H82.8066ZM109.45 125.388C108.346 125.388 107.451 126.283 107.45 127.388V138.087C107.45 139.191 108.346 140.087 109.45 140.087H120.15C121.255 140.087 122.15 139.191 122.15 138.087V127.388C122.15 126.284 121.255 125.388 120.15 125.388H109.45ZM137.932 125.388C136.827 125.388 135.932 126.283 135.932 127.388V138.087C135.932 139.191 136.827 140.087 137.932 140.087H148.632C149.736 140.087 150.632 139.191 150.632 138.087V127.388C150.632 126.284 149.736 125.388 148.632 125.388H137.932ZM164.575 125.388C163.471 125.388 162.576 126.283 162.575 127.388V138.087C162.575 139.191 163.471 140.087 164.575 140.087H175.275C176.38 140.087 177.275 139.191 177.275 138.087V127.388C177.275 126.284 176.38 125.388 175.275 125.388H164.575ZM82.8066 98.7432C81.7024 98.7432 80.8072 99.639 80.8066 100.743V111.443C80.8066 112.548 81.7021 113.443 82.8066 113.443H93.5068C94.6111 113.443 95.5068 112.548 95.5068 111.443V100.743C95.5063 99.6392 94.6108 98.7435 93.5068 98.7432H82.8066ZM109.45 98.7432C108.346 98.7433 107.451 99.6391 107.45 100.743V111.443C107.45 112.548 108.346 113.443 109.45 113.443H120.15C121.255 113.443 122.15 112.548 122.15 111.443V100.743C122.15 99.6392 121.254 98.7434 120.15 98.7432H109.45ZM137.932 98.7432C136.827 98.7432 135.932 99.639 135.932 100.743V111.443C135.932 112.548 136.827 113.443 137.932 113.443H148.632C149.736 113.443 150.632 112.548 150.632 111.443V100.743C150.631 99.6392 149.736 98.7435 148.632 98.7432H137.932ZM109.45 72.0996C108.346 72.0997 107.451 72.9955 107.45 74.0996V84.7998C107.45 85.9043 108.346 86.7997 109.45 86.7998H120.15C121.255 86.7996 122.15 85.9042 122.15 84.7998V74.0996C122.15 72.9955 121.255 72.0998 120.15 72.0996H109.45ZM137.932 72.0996C136.827 72.0996 135.932 72.9954 135.932 74.0996V84.7998C135.932 85.9044 136.827 86.7998 137.932 86.7998H148.632C149.736 86.7995 150.632 85.9042 150.632 84.7998V74.0996C150.631 72.9956 149.736 72.0999 148.632 72.0996H137.932ZM109.45 45.4561C108.346 45.4562 107.451 46.3518 107.45 47.4561V58.1562C107.45 59.2607 108.346 60.1561 109.45 60.1562H120.15C121.255 60.156 122.15 59.2606 122.15 58.1562V47.4561C122.15 46.3519 121.255 45.4563 120.15 45.4561H109.45ZM137.932 45.4561C136.827 45.4561 135.932 46.3518 135.932 47.4561V58.1562C135.932 59.2607 136.827 60.1562 137.932 60.1562H148.632C149.736 60.1559 150.632 59.2605 150.632 58.1562V47.4561C150.632 46.352 149.736 45.4564 148.632 45.4561H137.932Z" fill="url(#paint0_radial_1_771)"/>
</g>
<g filter="url(#filter2_dddd_1_771)">
<path d="M163.75 34C163.75 32.1274 162.279 30.5985 160.43 30.5049L160.25 30.5H98.75C96.8174 30.5001 95.2502 32.0671 95.25 34V81.0312H72.1064C70.1738 81.0312 68.6067 82.5982 68.6064 84.5312V159.125H61.5127C59.8491 159.125 58.5001 160.474 58.5 162.138C58.5 163.801 59.8489 165.15 61.5127 165.15H197.487C199.151 165.15 200.5 163.801 200.5 162.138C200.5 160.474 199.151 159.125 197.487 159.125H189.476V106.581C189.475 104.709 188.004 103.18 186.155 103.086L185.976 103.081H163.75V34ZM93.5078 122.888C95.9919 122.889 98.006 124.903 98.0068 127.387V138.087C98.0068 140.573 95.9914 142.586 93.5078 142.587H82.8066C80.3214 142.587 78.3066 140.572 78.3066 138.087V127.387C78.3075 124.903 80.3209 122.888 82.8066 122.888H93.5078ZM120.151 122.888C122.636 122.888 124.65 124.903 124.65 127.387V138.087C124.65 140.572 122.635 142.586 120.151 142.587H109.45C106.965 142.587 104.95 140.572 104.95 138.087V127.387C104.951 124.903 106.965 122.888 109.45 122.888H120.151ZM148.633 122.888C151.117 122.889 153.131 124.903 153.132 127.387V138.087C153.132 140.573 151.116 142.586 148.633 142.587H137.932C135.446 142.587 133.432 140.572 133.432 138.087V127.387C133.433 124.903 135.446 122.888 137.932 122.888H148.633ZM175.276 122.888C177.761 122.888 179.775 124.903 179.775 127.387V138.087C179.775 140.572 177.76 142.586 175.276 142.587H164.575C162.09 142.587 160.075 140.572 160.075 138.087V127.387C160.076 124.903 162.09 122.888 164.575 122.888H175.276ZM165.075 137.587H174.775V127.888H165.075V137.587ZM138.432 137.587H148.132V127.888H138.432V137.587ZM109.95 137.587H119.65V127.888H109.95V137.587ZM83.3066 137.587H93.0068V127.888H83.3066V137.587ZM93.5078 96.2432C95.9923 96.244 98.0056 98.259 98.0068 100.742V111.443C98.0068 113.929 95.9914 115.943 93.5078 115.943H82.8066C80.3214 115.943 78.3066 113.929 78.3066 111.443V100.742C78.3078 98.2595 80.3205 96.2432 82.8066 96.2432H93.5078ZM120.151 96.2432C122.636 96.2439 124.649 98.2593 124.65 100.742V111.443C124.65 113.929 122.635 115.943 120.151 115.943H109.45C106.965 115.943 104.95 113.929 104.95 111.443V100.742C104.951 98.2593 106.965 96.2434 109.45 96.2432H120.151ZM148.633 96.2432C151.117 96.244 153.131 98.259 153.132 100.742V111.443C153.132 113.929 151.116 115.943 148.633 115.943H137.932C135.446 115.943 133.432 113.929 133.432 111.443V100.742C133.433 98.2595 135.446 96.2432 137.932 96.2432H148.633ZM138.432 110.943H148.132V101.243H138.432V110.943ZM109.95 110.943H119.65V101.243H109.95V110.943ZM83.3066 110.943H93.0068V101.243H83.3066V110.943ZM120.151 69.5996C122.636 69.6004 124.649 71.6152 124.65 74.0986V84.7998L124.645 85.0312C124.524 87.4091 122.558 89.2991 120.151 89.2998H109.45C106.965 89.2996 104.95 87.2852 104.95 84.7998V74.0986C104.951 71.6152 106.965 69.5999 109.45 69.5996H120.151ZM148.633 69.5996C151.117 69.6005 153.131 71.615 153.132 74.0986V84.7998L153.126 85.0312C153.005 87.4093 151.039 89.299 148.633 89.2998H137.932C135.446 89.2998 133.432 87.285 133.432 84.7998V74.0986C133.433 71.6154 135.446 69.5996 137.932 69.5996H148.633ZM138.432 84.2998H148.132V74.5996H138.432V84.2998ZM109.95 84.2998H119.65V74.5996H109.95V84.2998ZM120.151 42.9561C122.636 42.9568 124.65 44.9713 124.65 47.4551V58.1562L124.645 58.3877C124.524 60.7651 122.558 62.6555 120.151 62.6562H109.45C106.965 62.656 104.95 60.6411 104.95 58.1562V47.4551C104.951 44.9713 106.965 42.9563 109.45 42.9561H120.151ZM148.633 42.9561C151.117 42.9569 153.131 44.9711 153.132 47.4551V58.1562L153.126 58.3877C153.005 60.7654 151.039 62.6554 148.633 62.6562H137.932C135.446 62.6562 133.432 60.641 133.432 58.1562V47.4551C133.433 44.9715 135.446 42.9561 137.932 42.9561H148.633ZM138.432 57.6562H148.132V47.9561H138.432V57.6562ZM109.95 57.6562H119.65V47.9561H109.95V57.6562ZM168.75 98.0811H185.976C190.669 98.0815 194.475 101.887 194.476 106.581V154.125H197.487C201.913 154.125 205.5 157.713 205.5 162.138C205.5 166.563 201.912 170.15 197.487 170.15H61.5127C57.0875 170.15 53.5 166.563 53.5 162.138C53.5002 157.713 57.0875 154.125 61.5127 154.125H63.6064V84.5312C63.6068 79.8373 67.412 76.0312 72.1064 76.0312H90.25V34C90.2503 29.3061 94.0558 25.5001 98.75 25.5H160.25L160.688 25.5107C165.178 25.7386 168.75 29.4527 168.75 34V98.0811Z" fill="url(#paint1_linear_1_771)" fill-opacity="0.48"/>
</g>
<defs>
<filter id="filter0_i_1_771" x="0" y="0" width="260" height="264" filterUnits="userSpaceOnUse" color-interpolation-filters="sRGB">
<feFlood flood-opacity="0" result="BackgroundImageFix"/>
<feBlend mode="normal" in="SourceGraphic" in2="BackgroundImageFix" result="shape"/>
<feColorMatrix in="SourceAlpha" type="matrix" values="0 0 0 0 0 0 0 0 0 0 0 0 0 0 0 0 0 0 127 0" result="hardAlpha"/>
<feOffset dy="4"/>
<feGaussianBlur stdDeviation="17.85"/>
<feComposite in2="hardAlpha" operator="arithmetic" k2="-1" k3="1"/>
<feColorMatrix type="matrix" values="0 0 0 0 0.865479 0 0 0 0 0.865479 0 0 0 0 0.865479 0 0 0 1 0"/>
<feBlend mode="normal" in2="shape" result="effect1_innerShadow_1_771"/>
</filter>
<filter id="filter1_dddd_1_771" x="30" y="23" width="199" height="235.65" filterUnits="userSpaceOnUse" color-interpolation-filters="sRGB">
<feFlood flood-opacity="0" result="BackgroundImageFix"/>
<feColorMatrix in="SourceAlpha" type="matrix" values="0 0 0 0 0 0 0 0 0 0 0 0 0 0 0 0 0 0 127 0" result="hardAlpha"/>
<feOffset dy="4"/>
<feGaussianBlur stdDeviation="4.5"/>
<feColorMatrix type="matrix" values="0 0 0 0 0.623529 0 0 0 0 0.615686 0 0 0 0 0.615686 0 0 0 0.1 0"/>
<feBlend mode="normal" in2="BackgroundImageFix" result="effect1_dropShadow_1_771"/>
<feColorMatrix in="SourceAlpha" type="matrix" values="0 0 0 0 0 0 0 0 0 0 0 0 0 0 0 0 0 0 127 0" result="hardAlpha"/>
<feOffset dy="16"/>
<feGaussianBlur stdDeviation="8"/>
<feColorMatrix type="matrix" values="0 0 0 0 0.623529 0 0 0 0 0.615686 0 0 0 0 0.615686 0 0 0 0.09 0"/>
<feBlend mode="normal" in2="effect1_dropShadow_1_771" result="effect2_dropShadow_1_771"/>
<feColorMatrix in="SourceAlpha" type="matrix" values="0 0 0 0 0 0 0 0 0 0 0 0 0 0 0 0 0 0 127 0" result="hardAlpha"/>
<feOffset dy="36"/>
<feGaussianBlur stdDeviation="11"/>
<feColorMatrix type="matrix" values="0 0 0 0 0.623529 0 0 0 0 0.615686 0 0 0 0 0.615686 0 0 0 0.05 0"/>
<feBlend mode="normal" in2="effect2_dropShadow_1_771" result="effect3_dropShadow_1_771"/>
<feColorMatrix in="SourceAlpha" type="matrix" values="0 0 0 0 0 0 0 0 0 0 0 0 0 0 0 0 0 0 127 0" result="hardAlpha"/>
<feOffset dy="65"/>
<feGaussianBlur stdDeviation="13"/>
<feColorMatrix type="matrix" values="0 0 0 0 0.623529 0 0 0 0 0.615686 0 0 0 0 0.615686 0 0 0 0.01 0"/>
<feBlend mode="normal" in2="effect3_dropShadow_1_771" result="effect4_dropShadow_1_771"/>
<feBlend mode="normal" in="SourceGraphic" in2="effect4_dropShadow_1_771" result="shape"/>
</filter>
<filter id="filter2_dddd_1_771" x="27.5" y="20.5" width="204" height="240.65" filterUnits="userSpaceOnUse" color-interpolation-filters="sRGB">
<feFlood flood-opacity="0" result="BackgroundImageFix"/>
<feColorMatrix in="SourceAlpha" type="matrix" values="0 0 0 0 0 0 0 0 0 0 0 0 0 0 0 0 0 0 127 0" result="hardAlpha"/>
<feOffset dy="4"/>
<feGaussianBlur stdDeviation="4.5"/>
<feColorMatrix type="matrix" values="0 0 0 0 0.623529 0 0 0 0 0.615686 0 0 0 0 0.615686 0 0 0 0.1 0"/>
<feBlend mode="normal" in2="BackgroundImageFix" result="effect1_dropShadow_1_771"/>
<feColorMatrix in="SourceAlpha" type="matrix" values="0 0 0 0 0 0 0 0 0 0 0 0 0 0 0 0 0 0 127 0" result="hardAlpha"/>
<feOffset dy="16"/>
<feGaussianBlur stdDeviation="8"/>
<feColorMatrix type="matrix" values="0 0 0 0 0.623529 0 0 0 0 0.615686 0 0 0 0 0.615686 0 0 0 0.09 0"/>
<feBlend mode="normal" in2="effect1_dropShadow_1_771" result="effect2_dropShadow_1_771"/>
<feColorMatrix in="SourceAlpha" type="matrix" values="0 0 0 0 0 0 0 0 0 0 0 0 0 0 0 0 0 0 127 0" result="hardAlpha"/>
<feOffset dy="36"/>
<feGaussianBlur stdDeviation="11"/>
<feColorMatrix type="matrix" values="0 0 0 0 0.623529 0 0 0 0 0.615686 0 0 0 0 0.615686 0 0 0 0.05 0"/>
<feBlend mode="normal" in2="effect2_dropShadow_1_771" result="effect3_dropShadow_1_771"/>
<feColorMatrix in="SourceAlpha" type="matrix" values="0 0 0 0 0 0 0 0 0 0 0 0 0 0 0 0 0 0 127 0" result="hardAlpha"/>
<feOffset dy="65"/>
<feGaussianBlur stdDeviation="13"/>
<feColorMatrix type="matrix" values="0 0 0 0 0.623529 0 0 0 0 0.615686 0 0 0 0 0.615686 0 0 0 0.01 0"/>
<feBlend mode="normal" in2="effect3_dropShadow_1_771" result="effect4_dropShadow_1_771"/>
<feBlend mode="normal" in="SourceGraphic" in2="effect4_dropShadow_1_771" result="shape"/>
</filter>
<radialGradient id="paint0_radial_1_771" cx="0" cy="0" r="1" gradientUnits="userSpaceOnUse" gradientTransform="translate(129.493 64.5753) rotate(89.9964) scale(103.075 108.5)">
<stop stop-color="white"/>
<stop offset="1" stop-color="#E9E9E9"/>
</radialGradient>
<linearGradient id="paint1_linear_1_771" x1="129.5" y1="28" x2="129.5" y2="167.65" gradientUnits="userSpaceOnUse">
<stop stop-color="#7D7D7D" stop-opacity="0.24"/>
<stop offset="1" stop-color="#7D7D7D"/>
</linearGradient>
</defs>
</svg>
