<svg width="260" height="260" viewBox="0 0 260 260" fill="none" xmlns="http://www.w3.org/2000/svg">
<g filter="url(#filter0_i_1_793)">
<path d="M0 24C0 10.7452 10.7452 0 24 0H236C249.255 0 260 10.7452 260 24V236C260 249.255 249.255 260 236 260H24C10.7452 260 0 249.255 0 236V24Z" fill="#FFEBDC"/>
</g>
<g clip-path="url(#clip0_1_793)" filter="url(#filter1_dddd_1_793)">
<path d="M126.498 86.3125C138.662 86.3126 143.302 94.007 150.984 106.754C153.769 111.359 158.033 113.923 162.544 116.634C167.729 119.752 173.092 122.976 175.406 129.321C176.315 131.604 176.777 134.041 176.769 136.499C176.769 146.82 168.745 155.218 158.884 155.218C153.773 155.218 148.375 153.452 142.647 151.595C137.149 149.797 131.459 147.939 126.526 147.939C121.594 147.939 115.889 149.797 110.371 151.595C104.632 153.464 99.2084 155.229 94.1121 155.229C84.2359 155.229 76.1961 146.831 76.1961 136.51C76.1784 134.054 76.6325 131.618 77.5321 129.332C79.8462 122.993 85.2066 119.772 90.3944 116.654C94.9192 113.932 99.1907 111.365 101.981 106.754C109.681 94.0067 114.333 86.3125 126.498 86.3125ZM71.7713 65.6426C79.6575 65.6426 87.7219 72.291 91.8358 82.1836C94.8073 89.3321 95.146 97.0123 92.7401 102.754C91.1525 106.541 88.503 109.268 85.078 110.644L85.0379 110.657C83.4856 111.266 81.833 111.578 80.1659 111.576C72.2796 111.576 64.2154 104.927 60.1014 95.0342C57.13 87.8857 56.7913 80.2057 59.1971 74.4639C60.7847 70.6774 63.4343 67.9386 66.8504 66.5752L66.8905 66.5605C68.4453 65.9511 70.1013 65.6401 71.7713 65.6426ZM181.206 65.6426C182.876 65.6404 184.532 65.9514 186.087 66.5605L186.133 66.5781C189.549 67.9532 192.196 70.6832 193.789 74.4697C196.198 80.2027 195.873 87.8855 192.933 95.0254C188.799 104.93 180.732 111.576 172.838 111.576C171.168 111.578 169.512 111.266 167.957 110.657L167.92 110.644C164.489 109.268 161.837 106.537 160.246 102.748C157.84 97.0178 158.182 89.3292 161.159 82.1807C165.218 72.4058 173.202 65.7602 181.022 65.6426H181.206ZM105.108 35.7832C109.561 35.7833 113.902 38.1395 117.312 42.417C120.356 46.2295 122.479 51.3719 123.274 56.8926C125.175 70.0239 119.384 81.363 110.092 82.7295C109.49 82.8195 108.882 82.8652 108.274 82.8652C103.819 82.8652 99.4834 80.505 96.0672 76.2188C93.0242 72.4036 90.8995 67.2675 90.1073 61.7559C88.2067 48.6245 93.998 37.2845 103.291 35.918C103.893 35.8282 104.5 35.7832 105.108 35.7832ZM147.892 35.7764C148.501 35.7764 149.109 35.8223 149.71 35.9121C159.003 37.2844 164.794 48.6237 162.893 61.749C162.089 67.2667 159.976 72.4035 156.935 76.2188C153.519 80.5047 149.187 82.8641 144.729 82.8643C144.122 82.8643 143.514 82.8192 142.912 82.7295C133.619 81.363 127.828 70.0233 129.728 56.8975C130.521 51.3712 132.645 46.2295 135.688 42.417C139.099 38.1395 143.44 35.7822 147.892 35.7764Z" fill="url(#paint0_radial_1_793)"/>
<path d="M147.892 30.7764C148.752 30.7764 149.607 30.841 150.449 30.9668L150.448 30.9678C157.068 31.9483 162.039 36.4419 164.953 42.1504C167.86 47.8477 168.918 55.0328 167.842 62.4658L167.841 62.4697C167.674 63.6155 167.456 64.7521 167.19 65.873C171.255 62.6806 175.971 60.7185 180.947 60.6436L180.985 60.6426H181.205C183.485 60.6404 185.747 61.0635 187.874 61.8916H187.875L187.921 61.9092L187.96 61.9238L187.999 61.9395C192.653 63.8125 196.13 67.4365 198.202 72.0781L198.398 72.5303L198.399 72.5332C201.443 79.7786 200.872 88.8773 197.557 96.9287L197.552 96.9404L197.547 96.9512C192.973 107.911 183.5 116.573 172.841 116.575L172.842 116.576L172.839 116.575L172.838 116.576L172.837 116.575C172.402 116.575 171.967 116.561 171.534 116.53C174.949 119.129 178.249 122.568 180.082 127.553C181.204 130.402 181.777 133.438 181.769 136.499C181.769 149.364 171.719 160.217 158.884 160.218H158.883C152.823 160.218 146.616 158.138 141.105 156.351L141.093 156.348C135.54 154.532 130.801 153.036 126.901 152.944L126.526 152.939C123.05 152.94 118.88 154.115 114.037 155.664L111.919 156.349C106.561 158.094 100.547 160.1 94.6791 160.224L94.1117 160.229C81.2701 160.229 71.1957 149.384 71.1957 136.51H71.1967C71.179 133.426 71.7507 130.369 72.8793 127.501C74.7207 122.544 78.016 119.121 81.4242 116.533C81.0058 116.562 80.586 116.575 80.1654 116.575V116.576L80.1635 116.575L80.1615 116.576V116.575C69.5095 116.573 60.0394 107.906 55.4848 96.9541V96.9531C52.1336 88.8908 51.5438 79.7906 54.5854 72.5312L54.5863 72.5303C56.6231 67.6727 60.1785 63.8549 64.9975 61.9316L65.0649 61.9043L65.1322 61.8799C67.2504 61.0592 69.5017 60.6402 71.7709 60.6426C76.8518 60.6426 81.6638 62.6146 85.8022 65.8652C85.5378 64.7463 85.3221 63.6109 85.1576 62.4668V62.4658C84.0829 55.0325 85.1411 47.8485 88.0483 42.1523C90.9632 36.4411 95.9376 31.9451 102.564 30.9707V30.9717C103.407 30.8464 104.258 30.7833 105.108 30.7832H105.109L105.699 30.793C111.778 30.9943 117.227 34.2903 121.22 39.2979L121.561 39.7334C123.649 42.4563 125.312 45.6429 126.499 49.0693C127.75 45.457 129.533 42.1137 131.781 39.2979C135.903 34.1286 141.574 30.7847 147.886 30.7764H147.892ZM126.497 86.3125C114.333 86.3127 109.681 94.0068 101.981 106.754C99.1903 111.365 94.9187 113.932 90.394 116.654C85.2063 119.772 79.8458 122.993 77.5317 129.332C76.6321 131.617 76.178 134.054 76.1957 136.51C76.1957 146.831 84.2357 155.229 94.1117 155.229C99.2079 155.229 104.632 153.464 110.371 151.595C115.889 149.797 121.593 147.94 126.526 147.939C131.458 147.939 137.149 149.797 142.647 151.595C148.375 153.452 153.773 155.218 158.883 155.218C168.745 155.218 176.769 146.82 176.769 136.499C176.777 134.041 176.314 131.604 175.406 129.321C173.092 122.976 167.728 119.752 162.543 116.634C158.033 113.924 153.769 111.359 150.984 106.754C143.301 94.0071 138.662 86.3126 126.497 86.3125ZM181.022 65.6426C173.202 65.7604 165.218 72.4059 161.159 82.1807C158.182 89.3291 157.84 97.0179 160.246 102.748C161.836 106.537 164.489 109.268 167.919 110.644L167.956 110.657C169.512 111.266 171.168 111.578 172.837 111.576C180.732 111.576 188.799 104.93 192.933 95.0254C195.873 87.8855 196.197 80.2027 193.788 74.4697C192.195 70.6833 189.548 67.9532 186.132 66.5781L186.086 66.5605C184.532 65.9515 182.875 65.6404 181.205 65.6426H181.022ZM71.7709 65.6426C70.101 65.6402 68.4448 65.9512 66.89 66.5605L66.85 66.5752C63.434 67.9386 60.7842 70.6775 59.1967 74.4639C56.791 80.2057 57.1297 87.8858 60.101 95.0342C64.2149 104.927 72.2793 111.576 80.1654 111.576C81.8325 111.578 83.4853 111.266 85.0375 110.657L85.0775 110.644C88.5026 109.268 91.152 106.541 92.7397 102.754C95.1456 97.0123 94.8069 89.3321 91.8354 82.1836C87.7215 72.291 79.6571 65.6426 71.7709 65.6426ZM155 84.71C151.923 86.7081 148.441 87.8641 144.73 87.8643H144.729C144.332 87.8642 143.936 87.8485 143.54 87.8213C143.659 87.9322 143.778 88.0437 143.896 88.1572C148.109 92.2271 151.542 97.9917 155.263 104.166L155.457 104.479C155.54 104.608 155.625 104.734 155.71 104.858C155.685 104.8 155.66 104.742 155.635 104.684V104.683C153.141 98.74 153.09 91.5487 155 84.71ZM97.9858 84.7002C99.8962 91.5421 99.8465 98.7333 97.352 104.687L97.351 104.688C97.339 104.716 97.3259 104.744 97.3139 104.772C97.4479 104.575 97.5779 104.373 97.7035 104.165C101.434 97.9885 104.875 92.2238 109.094 88.1543C109.21 88.0427 109.326 87.9323 109.443 87.8232C109.268 87.8352 109.093 87.8469 108.917 87.8535L108.274 87.8652C104.557 87.8651 101.068 86.7055 97.9858 84.7002ZM105.108 35.7832C104.5 35.7833 103.892 35.8282 103.29 35.918C93.9978 37.2847 88.2063 48.6247 90.1068 61.7559C90.8991 67.2674 93.0238 72.4036 96.0668 76.2188C99.4829 80.5048 103.818 82.865 108.274 82.8652C108.882 82.8652 109.49 82.8195 110.091 82.7295C119.384 81.363 125.174 70.0239 123.274 56.8926C122.479 51.3719 120.355 46.2295 117.312 42.417C113.901 38.1397 109.56 35.7833 105.108 35.7832ZM147.892 35.7764C143.439 35.7824 139.098 38.1397 135.688 42.417C132.645 46.2295 130.52 51.3713 129.728 56.8975C127.827 70.0231 133.619 81.3628 142.912 82.7295C143.513 82.8192 144.121 82.8642 144.729 82.8643C149.187 82.8641 153.519 80.5045 156.935 76.2188C159.975 72.4035 162.089 67.2667 162.893 61.749C164.793 48.6237 159.002 37.2844 149.709 35.9121C149.108 35.8223 148.5 35.7764 147.892 35.7764ZM126.5 73.8711C126.152 74.7756 125.765 75.6528 125.334 76.4961C124.37 78.3859 123.177 80.1406 121.777 81.6807C123.259 81.4377 124.829 81.3125 126.497 81.3125C128.169 81.3125 129.741 81.4378 131.226 81.6816C129.825 80.1417 128.634 78.3857 127.669 76.4961C127.239 75.6524 126.849 74.776 126.5 73.8711Z" fill="url(#paint1_linear_1_793)" fill-opacity="0.48"/>
</g>
<path d="M166.462 215.352V227H159.234V201H166.462V205.264C168.074 202.3 170.882 200.532 174.314 200.532H175.614V207.292H174.314C169.478 207.292 166.462 210.412 166.462 215.352Z" fill="#C17F4C"/>
<path d="M128.379 214C128.379 206.044 133.891 200.48 141.795 200.48C149.855 200.48 155.211 205.836 155.211 213.844V216.184H135.711C136.543 219.356 139.091 221.332 142.523 221.332C145.279 221.332 147.567 220.136 147.983 218.368H154.795C154.119 223.776 149.075 227.52 142.419 227.52C134.099 227.52 128.379 221.956 128.379 214ZM135.867 211.296H147.983C147.151 208.436 144.915 206.668 141.951 206.668C138.935 206.668 136.699 208.436 135.867 211.296Z" fill="#C17F4C"/>
<path d="M116.667 193.044C116.667 190.652 118.383 188.936 120.775 188.936C123.167 188.936 124.935 190.652 124.935 193.044C124.935 195.436 123.167 197.204 120.775 197.204C118.383 197.204 116.667 195.436 116.667 193.044ZM117.187 227V201H124.415V227H117.187Z" fill="#C17F4C"/>
<path d="M94.804 227V197.36H84.144V190.6H113.368V197.36H102.708V227H94.804Z" fill="#C17F4C"/>
<defs>
<filter id="filter0_i_1_793" x="0" y="0" width="260" height="264" filterUnits="userSpaceOnUse" color-interpolation-filters="sRGB">
<feFlood flood-opacity="0" result="BackgroundImageFix"/>
<feBlend mode="normal" in="SourceGraphic" in2="BackgroundImageFix" result="shape"/>
<feColorMatrix in="SourceAlpha" type="matrix" values="0 0 0 0 0 0 0 0 0 0 0 0 0 0 0 0 0 0 127 0" result="hardAlpha"/>
<feOffset dy="4"/>
<feGaussianBlur stdDeviation="17.85"/>
<feComposite in2="hardAlpha" operator="arithmetic" k2="-1" k3="1"/>
<feColorMatrix type="matrix" values="0 0 0 0 0.98229 0 0 0 0 0.853183 0 0 0 0 0.754815 0 0 0 1 0"/>
<feBlend mode="normal" in2="shape" result="effect1_innerShadow_1_793"/>
</filter>
<filter id="filter1_dddd_1_793" x="27" y="17" width="199" height="243" filterUnits="userSpaceOnUse" color-interpolation-filters="sRGB">
<feFlood flood-opacity="0" result="BackgroundImageFix"/>
<feColorMatrix in="SourceAlpha" type="matrix" values="0 0 0 0 0 0 0 0 0 0 0 0 0 0 0 0 0 0 127 0" result="hardAlpha"/>
<feOffset dy="4"/>
<feGaussianBlur stdDeviation="4.5"/>
<feColorMatrix type="matrix" values="0 0 0 0 0.678431 0 0 0 0 0.505882 0 0 0 0 0.360784 0 0 0 0.1 0"/>
<feBlend mode="normal" in2="BackgroundImageFix" result="effect1_dropShadow_1_793"/>
<feColorMatrix in="SourceAlpha" type="matrix" values="0 0 0 0 0 0 0 0 0 0 0 0 0 0 0 0 0 0 127 0" result="hardAlpha"/>
<feOffset dy="16"/>
<feGaussianBlur stdDeviation="8"/>
<feColorMatrix type="matrix" values="0 0 0 0 0.678431 0 0 0 0 0.505882 0 0 0 0 0.360784 0 0 0 0.09 0"/>
<feBlend mode="normal" in2="effect1_dropShadow_1_793" result="effect2_dropShadow_1_793"/>
<feColorMatrix in="SourceAlpha" type="matrix" values="0 0 0 0 0 0 0 0 0 0 0 0 0 0 0 0 0 0 127 0" result="hardAlpha"/>
<feOffset dy="36"/>
<feGaussianBlur stdDeviation="11"/>
<feColorMatrix type="matrix" values="0 0 0 0 0.678431 0 0 0 0 0.505882 0 0 0 0 0.360784 0 0 0 0.05 0"/>
<feBlend mode="normal" in2="effect2_dropShadow_1_793" result="effect3_dropShadow_1_793"/>
<feColorMatrix in="SourceAlpha" type="matrix" values="0 0 0 0 0 0 0 0 0 0 0 0 0 0 0 0 0 0 127 0" result="hardAlpha"/>
<feOffset dy="65"/>
<feGaussianBlur stdDeviation="13"/>
<feColorMatrix type="matrix" values="0 0 0 0 0.678431 0 0 0 0 0.505882 0 0 0 0 0.360784 0 0 0 0.01 0"/>
<feBlend mode="normal" in2="effect3_dropShadow_1_793" result="effect4_dropShadow_1_793"/>
<feBlend mode="normal" in="SourceGraphic" in2="effect4_dropShadow_1_793" result="shape"/>
</filter>
<radialGradient id="paint0_radial_1_793" cx="0" cy="0" r="1" gradientUnits="userSpaceOnUse" gradientTransform="translate(126.492 67.0619) rotate(89.996) scale(88.1676 296.24)">
<stop stop-color="white"/>
<stop offset="1" stop-color="#F9F0E9"/>
</radialGradient>
<linearGradient id="paint1_linear_1_793" x1="126.499" y1="35.7764" x2="126.499" y2="155.229" gradientUnits="userSpaceOnUse">
<stop stop-color="#C17F4C" stop-opacity="0.46"/>
<stop offset="1" stop-color="#C17F4C"/>
</linearGradient>
<clipPath id="clip0_1_793">
<rect width="147" height="147" fill="white" transform="translate(53 22)"/>
</clipPath>
</defs>
</svg>
