<svg width="260" height="260" viewBox="0 0 260 260" fill="none" xmlns="http://www.w3.org/2000/svg">
<g filter="url(#filter0_i_1_824)">
<path d="M0 24C0 10.7452 10.7452 0 24 0H236C249.255 0 260 10.7452 260 24V236C260 249.255 249.255 260 236 260H24C10.7452 260 0 249.255 0 236V24Z" fill="#D1CFCF"/>
</g>
<path d="M181.611 218.524V206.668H177.503V201H181.611V194.76H188.839V201H194.559V206.668H188.839V218.108C188.839 219.46 189.775 220.448 191.127 220.448H194.559V227H190.503C185.355 227 181.611 223.464 181.611 218.524Z" fill="black" fill-opacity="0.41"/>
<path d="M146.844 214C146.844 206.148 151.784 200.532 158.7 200.532C161.976 200.532 164.784 201.78 166.864 203.964V189.56H174.092V227H166.864V224.036C164.784 226.22 161.976 227.468 158.7 227.468C151.784 227.468 146.844 221.8 146.844 214ZM154.54 214C154.54 218.108 157.036 220.916 160.676 220.916C164.368 220.916 166.864 218.108 166.864 214C166.864 209.892 164.368 207.084 160.676 207.084C157.036 207.084 154.54 209.892 154.54 214Z" fill="black" fill-opacity="0.41"/>
<path d="M142.774 209.32V227H135.546V224.556C133.83 226.376 131.282 227.52 128.266 227.52C123.17 227.52 119.582 224.296 119.582 219.564C119.582 214.624 123.586 211.4 129.618 211.4H135.546V209.476C135.546 207.76 134.038 206.668 131.75 206.668C129.462 206.668 127.798 207.76 127.798 209.372H120.466C120.466 204.224 125.302 200.48 131.75 200.48C138.146 200.48 142.774 204.224 142.774 209.32ZM135.546 216.288H130.606C128.422 216.288 126.966 217.276 126.966 218.888C126.966 220.552 128.526 221.592 131.022 221.592C133.674 221.592 135.494 220.292 135.546 218.42V216.288Z" fill="black" fill-opacity="0.41"/>
<path d="M103.204 218.524V206.668H99.0964V201H103.204V194.76H110.432V201H116.152V206.668H110.432V218.108C110.432 219.46 111.368 220.448 112.72 220.448H116.152V227H112.096C106.948 227 103.204 223.464 103.204 218.524Z" fill="black" fill-opacity="0.41"/>
<path d="M96.8601 216.184C96.8601 223.048 91.5041 227.468 83.4961 227.468C75.2801 227.468 69.7161 222.84 69.7161 215.82H77.3601C77.4121 218.836 79.8041 220.708 83.4961 220.708C87.0841 220.708 89.2161 218.94 89.2161 216.496C89.2161 214.312 87.5521 213.168 83.4441 212.336L80.5321 211.816C73.8761 210.516 70.1841 206.72 70.1841 201.104C70.1841 194.5 75.1761 190.132 82.6641 190.132C90.3601 190.132 95.6121 194.76 95.6121 201.624H87.9681C87.9681 198.66 85.8881 196.892 82.7161 196.892C79.7521 196.892 77.8801 198.4 77.8801 200.792C77.8801 203.08 79.5441 204.328 83.6001 205.056L86.4601 205.576C93.1681 206.72 96.8601 210.516 96.8601 216.184Z" fill="black" fill-opacity="0.41"/>
<g filter="url(#filter1_dddd_1_824)">
<path d="M197.487 156.625C200.532 156.625 203 159.093 203 162.138C203 165.182 200.532 167.65 197.487 167.65H61.5127C58.4682 167.65 56 165.182 56 162.138C56.0001 159.093 58.4683 156.625 61.5127 156.625H66.1064V84.5312C66.1067 81.2177 68.7929 78.5312 72.1064 78.5312H92.75V34C92.7502 30.6865 95.4365 28.0001 98.75 28H160.25C163.563 28.0001 166.25 30.6865 166.25 34V100.581H185.976C189.289 100.581 191.975 103.268 191.976 106.581V156.625H197.487ZM82.8066 125.388C81.7023 125.388 80.807 126.283 80.8066 127.388V138.087C80.8066 139.191 81.7021 140.087 82.8066 140.087H93.5068C94.6111 140.087 95.5068 139.191 95.5068 138.087V127.388C95.5065 126.284 94.6109 125.388 93.5068 125.388H82.8066ZM109.45 125.388C108.346 125.388 107.451 126.283 107.45 127.388V138.087C107.45 139.191 108.346 140.087 109.45 140.087H120.15C121.255 140.087 122.15 139.191 122.15 138.087V127.388C122.15 126.284 121.255 125.388 120.15 125.388H109.45ZM137.932 125.388C136.827 125.388 135.932 126.283 135.932 127.388V138.087C135.932 139.191 136.827 140.087 137.932 140.087H148.632C149.736 140.087 150.632 139.191 150.632 138.087V127.388C150.632 126.284 149.736 125.388 148.632 125.388H137.932ZM164.575 125.388C163.471 125.388 162.576 126.283 162.575 127.388V138.087C162.575 139.191 163.471 140.087 164.575 140.087H175.275C176.38 140.087 177.275 139.191 177.275 138.087V127.388C177.275 126.284 176.38 125.388 175.275 125.388H164.575ZM82.8066 98.7432C81.7024 98.7432 80.8072 99.639 80.8066 100.743V111.443C80.8066 112.548 81.7021 113.443 82.8066 113.443H93.5068C94.6111 113.443 95.5068 112.548 95.5068 111.443V100.743C95.5063 99.6392 94.6108 98.7435 93.5068 98.7432H82.8066ZM109.45 98.7432C108.346 98.7433 107.451 99.6391 107.45 100.743V111.443C107.45 112.548 108.346 113.443 109.45 113.443H120.15C121.255 113.443 122.15 112.548 122.15 111.443V100.743C122.15 99.6392 121.254 98.7434 120.15 98.7432H109.45ZM137.932 98.7432C136.827 98.7432 135.932 99.639 135.932 100.743V111.443C135.932 112.548 136.827 113.443 137.932 113.443H148.632C149.736 113.443 150.632 112.548 150.632 111.443V100.743C150.631 99.6392 149.736 98.7435 148.632 98.7432H137.932ZM109.45 72.0996C108.346 72.0997 107.451 72.9955 107.45 74.0996V84.7998C107.45 85.9043 108.346 86.7997 109.45 86.7998H120.15C121.255 86.7996 122.15 85.9042 122.15 84.7998V74.0996C122.15 72.9955 121.255 72.0998 120.15 72.0996H109.45ZM137.932 72.0996C136.827 72.0996 135.932 72.9954 135.932 74.0996V84.7998C135.932 85.9044 136.827 86.7998 137.932 86.7998H148.632C149.736 86.7995 150.632 85.9042 150.632 84.7998V74.0996C150.631 72.9956 149.736 72.0999 148.632 72.0996H137.932ZM109.45 45.4561C108.346 45.4562 107.451 46.3518 107.45 47.4561V58.1562C107.45 59.2607 108.346 60.1561 109.45 60.1562H120.15C121.255 60.156 122.15 59.2606 122.15 58.1562V47.4561C122.15 46.3519 121.255 45.4563 120.15 45.4561H109.45ZM137.932 45.4561C136.827 45.4561 135.932 46.3518 135.932 47.4561V58.1562C135.932 59.2607 136.827 60.1562 137.932 60.1562H148.632C149.736 60.1559 150.632 59.2605 150.632 58.1562V47.4561C150.632 46.352 149.736 45.4564 148.632 45.4561H137.932Z" fill="url(#paint0_radial_1_824)"/>
</g>
<defs>
<filter id="filter0_i_1_824" x="0" y="0" width="260" height="264" filterUnits="userSpaceOnUse" color-interpolation-filters="sRGB">
<feFlood flood-opacity="0" result="BackgroundImageFix"/>
<feBlend mode="normal" in="SourceGraphic" in2="BackgroundImageFix" result="shape"/>
<feColorMatrix in="SourceAlpha" type="matrix" values="0 0 0 0 0 0 0 0 0 0 0 0 0 0 0 0 0 0 127 0" result="hardAlpha"/>
<feOffset dy="4"/>
<feGaussianBlur stdDeviation="17.85"/>
<feComposite in2="hardAlpha" operator="arithmetic" k2="-1" k3="1"/>
<feColorMatrix type="matrix" values="0 0 0 0 0.865479 0 0 0 0 0.865479 0 0 0 0 0.865479 0 0 0 1 0"/>
<feBlend mode="normal" in2="shape" result="effect1_innerShadow_1_824"/>
</filter>
<filter id="filter1_dddd_1_824" x="30" y="23" width="199" height="235.65" filterUnits="userSpaceOnUse" color-interpolation-filters="sRGB">
<feFlood flood-opacity="0" result="BackgroundImageFix"/>
<feColorMatrix in="SourceAlpha" type="matrix" values="0 0 0 0 0 0 0 0 0 0 0 0 0 0 0 0 0 0 127 0" result="hardAlpha"/>
<feOffset dy="4"/>
<feGaussianBlur stdDeviation="4.5"/>
<feColorMatrix type="matrix" values="0 0 0 0 0.623529 0 0 0 0 0.615686 0 0 0 0 0.615686 0 0 0 0.1 0"/>
<feBlend mode="normal" in2="BackgroundImageFix" result="effect1_dropShadow_1_824"/>
<feColorMatrix in="SourceAlpha" type="matrix" values="0 0 0 0 0 0 0 0 0 0 0 0 0 0 0 0 0 0 127 0" result="hardAlpha"/>
<feOffset dy="16"/>
<feGaussianBlur stdDeviation="8"/>
<feColorMatrix type="matrix" values="0 0 0 0 0.623529 0 0 0 0 0.615686 0 0 0 0 0.615686 0 0 0 0.09 0"/>
<feBlend mode="normal" in2="effect1_dropShadow_1_824" result="effect2_dropShadow_1_824"/>
<feColorMatrix in="SourceAlpha" type="matrix" values="0 0 0 0 0 0 0 0 0 0 0 0 0 0 0 0 0 0 127 0" result="hardAlpha"/>
<feOffset dy="36"/>
<feGaussianBlur stdDeviation="11"/>
<feColorMatrix type="matrix" values="0 0 0 0 0.623529 0 0 0 0 0.615686 0 0 0 0 0.615686 0 0 0 0.05 0"/>
<feBlend mode="normal" in2="effect2_dropShadow_1_824" result="effect3_dropShadow_1_824"/>
<feColorMatrix in="SourceAlpha" type="matrix" values="0 0 0 0 0 0 0 0 0 0 0 0 0 0 0 0 0 0 127 0" result="hardAlpha"/>
<feOffset dy="65"/>
<feGaussianBlur stdDeviation="13"/>
<feColorMatrix type="matrix" values="0 0 0 0 0.623529 0 0 0 0 0.615686 0 0 0 0 0.615686 0 0 0 0.01 0"/>
<feBlend mode="normal" in2="effect3_dropShadow_1_824" result="effect4_dropShadow_1_824"/>
<feBlend mode="normal" in="SourceGraphic" in2="effect4_dropShadow_1_824" result="shape"/>
</filter>
<radialGradient id="paint0_radial_1_824" cx="0" cy="0" r="1" gradientUnits="userSpaceOnUse" gradientTransform="translate(129.493 64.5753) rotate(89.8604) scale(207.925 218.868)">
<stop stop-color="white"/>
<stop offset="1" stop-color="#E9E9E9"/>
</radialGradient>
</defs>
</svg>
