<svg width="260" height="260" viewBox="0 0 260 260" fill="none" xmlns="http://www.w3.org/2000/svg">
<g filter="url(#filter0_i_1_846)">
<path d="M0 24C0 10.7452 10.7452 0 24 0H236C249.255 0 260 10.7452 260 24V236C260 249.255 249.255 260 236 260H24C10.7452 260 0 249.255 0 236V24Z" fill="#FFC598"/>
</g>
<g filter="url(#filter1_dddd_1_846)">
<path d="M126.497 86.3125C138.662 86.3125 143.302 94.0067 150.985 106.754C153.77 111.359 158.033 113.924 162.543 116.634C167.728 119.752 173.092 122.976 175.406 129.321C176.314 131.604 176.778 134.041 176.77 136.499C176.77 146.82 168.745 155.218 158.883 155.218C153.772 155.218 148.375 153.452 142.647 151.595C137.149 149.797 131.459 147.94 126.527 147.939C121.594 147.939 115.889 149.797 110.37 151.595C104.631 153.464 99.2079 155.229 94.1117 155.229C84.2355 155.229 76.1967 146.831 76.1967 136.51C76.1789 134.054 76.632 131.618 77.5316 129.332C79.8457 122.993 85.2062 119.772 90.3939 116.654C94.9188 113.932 99.1913 111.365 101.982 106.754C109.682 94.0069 114.333 86.3125 126.497 86.3125ZM71.7709 65.6426C79.657 65.6426 87.7214 72.291 91.8353 82.1836C94.8069 89.3321 95.1465 97.0123 92.7406 102.754C91.153 106.541 88.5026 109.268 85.0775 110.644L85.0375 110.657C83.4852 111.266 81.8326 111.578 80.1654 111.576C72.2792 111.576 64.2149 104.927 60.101 95.0342C57.1296 87.8857 56.7909 80.2057 59.1967 74.4639C60.7842 70.6772 63.4347 67.9386 66.851 66.5752L66.891 66.5605C68.4457 65.9512 70.1011 65.6402 71.7709 65.6426ZM181.206 65.6426C182.876 65.6405 184.532 65.9515 186.086 66.5605L186.132 66.5781C189.548 67.9531 192.195 70.6832 193.788 74.4697C196.197 80.2026 195.874 87.8856 192.934 95.0254C188.8 104.93 180.732 111.576 172.837 111.576C171.167 111.578 169.512 111.266 167.956 110.657L167.919 110.644C164.488 109.268 161.836 106.538 160.245 102.748C157.84 97.0178 158.182 89.3292 161.159 82.1807C165.218 72.4059 173.202 65.7604 181.022 65.6426H181.206ZM105.108 35.7832C109.561 35.7832 113.901 38.1395 117.312 42.417C120.355 46.2295 122.48 51.3718 123.275 56.8926C125.175 70.0236 119.385 81.3627 110.092 82.7295C109.491 82.8195 108.883 82.8652 108.275 82.8652C103.819 82.8652 99.484 80.505 96.0678 76.2188C93.0246 72.4036 90.9001 67.2676 90.1078 61.7559C88.2072 48.6245 93.9976 37.2846 103.29 35.918C103.892 35.8281 104.5 35.7832 105.108 35.7832ZM147.893 35.7764C148.501 35.7764 149.108 35.8223 149.709 35.9121C159.002 37.2844 164.793 48.6237 162.893 61.749C162.089 67.2667 159.976 72.4035 156.936 76.2188C153.52 80.505 149.187 82.8643 144.729 82.8643C144.121 82.8643 143.513 82.8192 142.912 82.7295C133.619 81.3629 127.828 70.0233 129.729 56.8975C130.521 51.3712 132.646 46.2295 135.689 42.417C139.099 38.1395 143.44 35.7821 147.893 35.7764Z" fill="url(#paint0_radial_1_846)"/>
</g>
<path d="M166.462 215.352V227H159.234V201H166.462V205.264C168.074 202.3 170.882 200.532 174.314 200.532H175.614V207.292H174.314C169.478 207.292 166.462 210.412 166.462 215.352Z" fill="#A46737"/>
<path d="M128.379 214C128.379 206.044 133.891 200.48 141.795 200.48C149.855 200.48 155.211 205.836 155.211 213.844V216.184H135.711C136.543 219.356 139.091 221.332 142.523 221.332C145.279 221.332 147.567 220.136 147.983 218.368H154.795C154.119 223.776 149.075 227.52 142.419 227.52C134.099 227.52 128.379 221.956 128.379 214ZM135.867 211.296H147.983C147.151 208.436 144.915 206.668 141.951 206.668C138.935 206.668 136.699 208.436 135.867 211.296Z" fill="#A46737"/>
<path d="M116.667 193.044C116.667 190.652 118.383 188.936 120.775 188.936C123.167 188.936 124.935 190.652 124.935 193.044C124.935 195.436 123.167 197.204 120.775 197.204C118.383 197.204 116.667 195.436 116.667 193.044ZM117.187 227V201H124.415V227H117.187Z" fill="#A46737"/>
<path d="M94.804 227V197.36H84.144V190.6H113.368V197.36H102.708V227H94.804Z" fill="#A46737"/>
<defs>
<filter id="filter0_i_1_846" x="0" y="0" width="260" height="264" filterUnits="userSpaceOnUse" color-interpolation-filters="sRGB">
<feFlood flood-opacity="0" result="BackgroundImageFix"/>
<feBlend mode="normal" in="SourceGraphic" in2="BackgroundImageFix" result="shape"/>
<feColorMatrix in="SourceAlpha" type="matrix" values="0 0 0 0 0 0 0 0 0 0 0 0 0 0 0 0 0 0 127 0" result="hardAlpha"/>
<feOffset dy="4"/>
<feGaussianBlur stdDeviation="17.85"/>
<feComposite in2="hardAlpha" operator="arithmetic" k2="-1" k3="1"/>
<feColorMatrix type="matrix" values="0 0 0 0 0.98229 0 0 0 0 0.853183 0 0 0 0 0.754815 0 0 0 1 0"/>
<feBlend mode="normal" in2="shape" result="effect1_innerShadow_1_846"/>
</filter>
<filter id="filter1_dddd_1_846" x="27" y="17" width="199" height="243" filterUnits="userSpaceOnUse" color-interpolation-filters="sRGB">
<feFlood flood-opacity="0" result="BackgroundImageFix"/>
<feColorMatrix in="SourceAlpha" type="matrix" values="0 0 0 0 0 0 0 0 0 0 0 0 0 0 0 0 0 0 127 0" result="hardAlpha"/>
<feOffset dy="4"/>
<feGaussianBlur stdDeviation="4.5"/>
<feColorMatrix type="matrix" values="0 0 0 0 0.678431 0 0 0 0 0.505882 0 0 0 0 0.360784 0 0 0 0.1 0"/>
<feBlend mode="normal" in2="BackgroundImageFix" result="effect1_dropShadow_1_846"/>
<feColorMatrix in="SourceAlpha" type="matrix" values="0 0 0 0 0 0 0 0 0 0 0 0 0 0 0 0 0 0 127 0" result="hardAlpha"/>
<feOffset dy="16"/>
<feGaussianBlur stdDeviation="8"/>
<feColorMatrix type="matrix" values="0 0 0 0 0.678431 0 0 0 0 0.505882 0 0 0 0 0.360784 0 0 0 0.09 0"/>
<feBlend mode="normal" in2="effect1_dropShadow_1_846" result="effect2_dropShadow_1_846"/>
<feColorMatrix in="SourceAlpha" type="matrix" values="0 0 0 0 0 0 0 0 0 0 0 0 0 0 0 0 0 0 127 0" result="hardAlpha"/>
<feOffset dy="36"/>
<feGaussianBlur stdDeviation="11"/>
<feColorMatrix type="matrix" values="0 0 0 0 0.678431 0 0 0 0 0.505882 0 0 0 0 0.360784 0 0 0 0.05 0"/>
<feBlend mode="normal" in2="effect2_dropShadow_1_846" result="effect3_dropShadow_1_846"/>
<feColorMatrix in="SourceAlpha" type="matrix" values="0 0 0 0 0 0 0 0 0 0 0 0 0 0 0 0 0 0 127 0" result="hardAlpha"/>
<feOffset dy="65"/>
<feGaussianBlur stdDeviation="13"/>
<feColorMatrix type="matrix" values="0 0 0 0 0.678431 0 0 0 0 0.505882 0 0 0 0 0.360784 0 0 0 0.01 0"/>
<feBlend mode="normal" in2="effect3_dropShadow_1_846" result="effect4_dropShadow_1_846"/>
<feBlend mode="normal" in="SourceGraphic" in2="effect4_dropShadow_1_846" result="shape"/>
</filter>
<radialGradient id="paint0_radial_1_846" cx="0" cy="0" r="1" gradientUnits="userSpaceOnUse" gradientTransform="translate(126.492 67.0619) rotate(89.996) scale(88.1676 296.241)">
<stop stop-color="white"/>
<stop offset="1" stop-color="#F9F0E9"/>
</radialGradient>
</defs>
</svg>
