<svg width="260" height="260" viewBox="0 0 260 260" fill="none" xmlns="http://www.w3.org/2000/svg">
<g filter="url(#filter0_i_1_866)">
<path d="M0 24C0 10.7452 10.7452 0 24 0H236C249.255 0 260 10.7452 260 24V236C260 249.255 249.255 260 236 260H24C10.7452 260 0 249.255 0 236V24Z" fill="#FEE04B"/>
</g>
<path d="M205.814 218.524V206.668H201.706V201H205.814V194.76H213.042V201H218.762V206.668H213.042V218.108C213.042 219.46 213.978 220.448 215.33 220.448H218.762V227H214.706C209.558 227 205.814 223.464 205.814 218.524Z" fill="#937D11"/>
<path d="M172.368 214C172.368 206.148 178.192 200.532 186.2 200.532C194.26 200.532 200.084 206.148 200.084 214C200.084 221.8 194.26 227.468 186.2 227.468C178.192 227.468 172.368 221.8 172.368 214ZM180.064 214C180.064 218.108 182.56 220.916 186.2 220.916C189.892 220.916 192.388 218.108 192.388 214C192.388 209.892 189.892 207.084 186.2 207.084C182.56 207.084 180.064 209.892 180.064 214Z" fill="#937D11"/>
<path d="M169.685 214C169.685 221.8 164.693 227.468 157.829 227.468C154.553 227.468 151.693 226.22 149.665 224.036V237.92H142.437V201H149.665V203.964C151.693 201.78 154.553 200.532 157.829 200.532C164.693 200.532 169.685 206.148 169.685 214ZM161.989 214C161.989 209.892 159.493 207.084 155.801 207.084C152.161 207.084 149.665 209.892 149.665 214C149.665 218.108 152.161 220.916 155.801 220.916C159.493 220.916 161.989 218.108 161.989 214Z" fill="#937D11"/>
<path d="M114.355 227V189.56H121.583V210.516H122.727L129.435 201H138.483L128.655 213.48L139.315 227H130.163L122.727 216.444H121.583V227H114.355Z" fill="#937D11"/>
<path d="M91.6027 214C91.6027 218.108 94.0987 220.916 97.7907 220.916C100.599 220.916 102.887 219.252 103.147 216.964H110.375C110.375 222.892 104.811 227.468 97.6347 227.468C89.6787 227.468 83.9067 221.8 83.9067 214C83.9067 206.148 89.6787 200.532 97.6347 200.532C104.863 200.532 110.375 205.056 110.375 210.984H103.147C102.887 208.748 100.599 207.084 97.7907 207.084C94.0987 207.084 91.6027 209.892 91.6027 214Z" fill="#937D11"/>
<path d="M79.8365 209.32V227H72.6085V224.556C70.8925 226.376 68.3445 227.52 65.3285 227.52C60.2325 227.52 56.6445 224.296 56.6445 219.564C56.6445 214.624 60.6485 211.4 66.6805 211.4H72.6085V209.476C72.6085 207.76 71.1005 206.668 68.8125 206.668C66.5245 206.668 64.8605 207.76 64.8605 209.372H57.5285C57.5285 204.224 62.3645 200.48 68.8125 200.48C75.2085 200.48 79.8365 204.224 79.8365 209.32ZM72.6085 216.288H67.6685C65.4845 216.288 64.0285 217.276 64.0285 218.888C64.0285 220.552 65.5885 221.592 68.0845 221.592C70.7365 221.592 72.5565 220.292 72.6085 218.42V216.288Z" fill="#937D11"/>
<path d="M43.9519 225.7V190.6H51.8559V226.168C51.8559 233.292 46.3959 238.388 38.8039 238.388H37.2439V231.16H38.8039C41.8719 231.16 43.9519 228.976 43.9519 225.7Z" fill="#937D11"/>
<g filter="url(#filter1_dddd_1_866)">
<path d="M167.577 152.748C166.709 152.752 165.861 152.481 165.156 151.975L131.999 127.937L98.8421 151.975C98.1337 152.489 97.2804 152.764 96.4054 152.761C95.5303 152.758 94.6789 152.476 93.9744 151.957C93.2697 151.438 92.7485 150.709 92.4857 149.874C92.223 149.04 92.2326 148.143 92.5131 147.314L105.445 109.011L71.9295 86.0277C71.2036 85.5302 70.6557 84.8138 70.3659 83.9828C70.0761 83.152 70.0595 82.2503 70.3187 81.4093C70.5779 80.5684 71.0992 79.8325 71.8065 79.3092C72.5138 78.7856 73.3699 78.5018 74.2498 78.4996H115.597L128.075 40.0988C128.344 39.2698 128.869 38.5471 129.573 38.0346C130.278 37.5221 131.127 37.2461 131.999 37.2461C132.871 37.2461 133.72 37.5221 134.425 38.0346C135.13 38.5471 135.654 39.2698 135.923 40.0988L148.401 78.5125H189.748C190.629 78.5119 191.487 78.7938 192.197 79.316C192.906 79.8385 193.43 80.5747 193.69 81.4162C193.951 82.2577 193.936 83.1608 193.646 83.9927C193.357 84.8248 192.808 85.5423 192.081 86.0403L158.553 109.011L171.477 147.304C171.687 147.923 171.746 148.584 171.649 149.231C171.553 149.879 171.304 150.494 170.923 151.026C170.542 151.558 170.039 151.991 169.457 152.291C168.876 152.591 168.231 152.747 167.577 152.748Z" fill="#937D11"/>
</g>
<defs>
<filter id="filter0_i_1_866" x="0" y="0" width="260" height="264" filterUnits="userSpaceOnUse" color-interpolation-filters="sRGB">
<feFlood flood-opacity="0" result="BackgroundImageFix"/>
<feBlend mode="normal" in="SourceGraphic" in2="BackgroundImageFix" result="shape"/>
<feColorMatrix in="SourceAlpha" type="matrix" values="0 0 0 0 0 0 0 0 0 0 0 0 0 0 0 0 0 0 127 0" result="hardAlpha"/>
<feOffset dy="4"/>
<feGaussianBlur stdDeviation="17.85"/>
<feComposite in2="hardAlpha" operator="arithmetic" k2="-1" k3="1"/>
<feColorMatrix type="matrix" values="0 0 0 0 0.880897 0 0 0 0 0.76827 0 0 0 0 0.208892 0 0 0 1 0"/>
<feBlend mode="normal" in2="shape" result="effect1_innerShadow_1_866"/>
</filter>
<filter id="filter1_dddd_1_866" x="36" y="24" width="192" height="242" filterUnits="userSpaceOnUse" color-interpolation-filters="sRGB">
<feFlood flood-opacity="0" result="BackgroundImageFix"/>
<feColorMatrix in="SourceAlpha" type="matrix" values="0 0 0 0 0 0 0 0 0 0 0 0 0 0 0 0 0 0 127 0" result="hardAlpha"/>
<feOffset dy="5"/>
<feGaussianBlur stdDeviation="5"/>
<feColorMatrix type="matrix" values="0 0 0 0 0.513726 0 0 0 0 0.447059 0 0 0 0 0.027451 0 0 0 0.1 0"/>
<feBlend mode="normal" in2="BackgroundImageFix" result="effect1_dropShadow_1_866"/>
<feColorMatrix in="SourceAlpha" type="matrix" values="0 0 0 0 0 0 0 0 0 0 0 0 0 0 0 0 0 0 127 0" result="hardAlpha"/>
<feOffset dy="19"/>
<feGaussianBlur stdDeviation="9.5"/>
<feColorMatrix type="matrix" values="0 0 0 0 0.513726 0 0 0 0 0.447059 0 0 0 0 0.027451 0 0 0 0.09 0"/>
<feBlend mode="normal" in2="effect1_dropShadow_1_866" result="effect2_dropShadow_1_866"/>
<feColorMatrix in="SourceAlpha" type="matrix" values="0 0 0 0 0 0 0 0 0 0 0 0 0 0 0 0 0 0 127 0" result="hardAlpha"/>
<feOffset dy="42"/>
<feGaussianBlur stdDeviation="12.5"/>
<feColorMatrix type="matrix" values="0 0 0 0 0.513726 0 0 0 0 0.447059 0 0 0 0 0.027451 0 0 0 0.05 0"/>
<feBlend mode="normal" in2="effect2_dropShadow_1_866" result="effect3_dropShadow_1_866"/>
<feColorMatrix in="SourceAlpha" type="matrix" values="0 0 0 0 0 0 0 0 0 0 0 0 0 0 0 0 0 0 127 0" result="hardAlpha"/>
<feOffset dy="75"/>
<feGaussianBlur stdDeviation="15"/>
<feColorMatrix type="matrix" values="0 0 0 0 0.513726 0 0 0 0 0.447059 0 0 0 0 0.027451 0 0 0 0.01 0"/>
<feBlend mode="normal" in2="effect3_dropShadow_1_866" result="effect4_dropShadow_1_866"/>
<feBlend mode="normal" in="SourceGraphic" in2="effect4_dropShadow_1_866" result="shape"/>
</filter>
</defs>
</svg>
