<svg width="260" height="260" viewBox="0 0 260 260" fill="none" xmlns="http://www.w3.org/2000/svg">
<g filter="url(#filter0_i_1_877)">
<path d="M0 24C0 10.7452 10.7452 0 24 0H236C249.255 0 260 10.7452 260 24V236C260 249.255 249.255 260 236 260H24C10.7452 260 0 249.255 0 236V24Z" fill="#E9E9E9"/>
</g>
<path d="M179.611 218.524V206.668H175.503V201H179.611V194.76H186.839V201H192.559V206.668H186.839V218.108C186.839 219.46 187.775 220.448 189.127 220.448H192.559V227H188.503C183.355 227 179.611 223.464 179.611 218.524Z" fill="black" fill-opacity="0.31"/>
<path d="M144.844 214C144.844 206.148 149.784 200.532 156.7 200.532C159.976 200.532 162.784 201.78 164.864 203.964V189.56H172.092V227H164.864V224.036C162.784 226.22 159.976 227.468 156.7 227.468C149.784 227.468 144.844 221.8 144.844 214ZM152.54 214C152.54 218.108 155.036 220.916 158.676 220.916C162.368 220.916 164.864 218.108 164.864 214C164.864 209.892 162.368 207.084 158.676 207.084C155.036 207.084 152.54 209.892 152.54 214Z" fill="black" fill-opacity="0.31"/>
<path d="M140.774 209.32V227H133.546V224.556C131.83 226.376 129.282 227.52 126.266 227.52C121.17 227.52 117.582 224.296 117.582 219.564C117.582 214.624 121.586 211.4 127.618 211.4H133.546V209.476C133.546 207.76 132.038 206.668 129.75 206.668C127.462 206.668 125.798 207.76 125.798 209.372H118.466C118.466 204.224 123.302 200.48 129.75 200.48C136.146 200.48 140.774 204.224 140.774 209.32ZM133.546 216.288H128.606C126.422 216.288 124.966 217.276 124.966 218.888C124.966 220.552 126.526 221.592 129.022 221.592C131.674 221.592 133.494 220.292 133.546 218.42V216.288Z" fill="black" fill-opacity="0.31"/>
<path d="M101.204 218.524V206.668H97.0964V201H101.204V194.76H108.432V201H114.152V206.668H108.432V218.108C108.432 219.46 109.368 220.448 110.72 220.448H114.152V227H110.096C104.948 227 101.204 223.464 101.204 218.524Z" fill="black" fill-opacity="0.31"/>
<path d="M94.8601 216.184C94.8601 223.048 89.5041 227.468 81.4961 227.468C73.2801 227.468 67.7161 222.84 67.7161 215.82H75.3601C75.4121 218.836 77.8041 220.708 81.4961 220.708C85.0841 220.708 87.2161 218.94 87.2161 216.496C87.2161 214.312 85.5521 213.168 81.4441 212.336L78.5321 211.816C71.8761 210.516 68.1841 206.72 68.1841 201.104C68.1841 194.5 73.1761 190.132 80.6641 190.132C88.3601 190.132 93.6121 194.76 93.6121 201.624H85.9681C85.9681 198.66 83.8881 196.892 80.7161 196.892C77.7521 196.892 75.8801 198.4 75.8801 200.792C75.8801 203.08 77.5441 204.328 81.6001 205.056L84.4601 205.576C91.1681 206.72 94.8601 210.516 94.8601 216.184Z" fill="black" fill-opacity="0.31"/>
<g filter="url(#filter1_dddd_1_877)">
<path d="M197.487 156.625C200.532 156.625 203 159.093 203 162.138C203 165.182 200.532 167.65 197.487 167.65H61.5127C58.4682 167.65 56 165.182 56 162.138C56.0001 159.093 58.4683 156.625 61.5127 156.625H66.1064V84.5312C66.1067 81.2177 68.7929 78.5312 72.1064 78.5312H92.75V34C92.7502 30.6865 95.4365 28.0001 98.75 28H160.25C163.563 28.0001 166.25 30.6865 166.25 34V100.581H185.976C189.289 100.581 191.975 103.268 191.976 106.581V156.625H197.487ZM82.8066 125.388C81.7023 125.388 80.807 126.283 80.8066 127.388V138.087C80.8066 139.191 81.7021 140.087 82.8066 140.087H93.5068C94.6111 140.087 95.5068 139.191 95.5068 138.087V127.388C95.5065 126.284 94.6109 125.388 93.5068 125.388H82.8066ZM109.45 125.388C108.346 125.388 107.451 126.283 107.45 127.388V138.087C107.45 139.191 108.346 140.087 109.45 140.087H120.15C121.255 140.087 122.15 139.191 122.15 138.087V127.388C122.15 126.284 121.255 125.388 120.15 125.388H109.45ZM137.932 125.388C136.827 125.388 135.932 126.283 135.932 127.388V138.087C135.932 139.191 136.827 140.087 137.932 140.087H148.632C149.736 140.087 150.632 139.191 150.632 138.087V127.388C150.632 126.284 149.736 125.388 148.632 125.388H137.932ZM164.575 125.388C163.471 125.388 162.576 126.283 162.575 127.388V138.087C162.575 139.191 163.471 140.087 164.575 140.087H175.275C176.38 140.087 177.275 139.191 177.275 138.087V127.388C177.275 126.284 176.38 125.388 175.275 125.388H164.575ZM82.8066 98.7432C81.7024 98.7432 80.8072 99.639 80.8066 100.743V111.443C80.8066 112.548 81.7021 113.443 82.8066 113.443H93.5068C94.6111 113.443 95.5068 112.548 95.5068 111.443V100.743C95.5063 99.6392 94.6108 98.7435 93.5068 98.7432H82.8066ZM109.45 98.7432C108.346 98.7433 107.451 99.6391 107.45 100.743V111.443C107.45 112.548 108.346 113.443 109.45 113.443H120.15C121.255 113.443 122.15 112.548 122.15 111.443V100.743C122.15 99.6392 121.254 98.7434 120.15 98.7432H109.45ZM137.932 98.7432C136.827 98.7432 135.932 99.639 135.932 100.743V111.443C135.932 112.548 136.827 113.443 137.932 113.443H148.632C149.736 113.443 150.632 112.548 150.632 111.443V100.743C150.631 99.6392 149.736 98.7435 148.632 98.7432H137.932ZM109.45 72.0996C108.346 72.0997 107.451 72.9955 107.45 74.0996V84.7998C107.45 85.9043 108.346 86.7997 109.45 86.7998H120.15C121.255 86.7996 122.15 85.9042 122.15 84.7998V74.0996C122.15 72.9955 121.255 72.0998 120.15 72.0996H109.45ZM137.932 72.0996C136.827 72.0996 135.932 72.9954 135.932 74.0996V84.7998C135.932 85.9044 136.827 86.7998 137.932 86.7998H148.632C149.736 86.7995 150.632 85.9042 150.632 84.7998V74.0996C150.631 72.9956 149.736 72.0999 148.632 72.0996H137.932ZM109.45 45.4561C108.346 45.4562 107.451 46.3518 107.45 47.4561V58.1562C107.45 59.2607 108.346 60.1561 109.45 60.1562H120.15C121.255 60.156 122.15 59.2606 122.15 58.1562V47.4561C122.15 46.3519 121.255 45.4563 120.15 45.4561H109.45ZM137.932 45.4561C136.827 45.4561 135.932 46.3518 135.932 47.4561V58.1562C135.932 59.2607 136.827 60.1562 137.932 60.1562H148.632C149.736 60.1559 150.632 59.2605 150.632 58.1562V47.4561C150.632 46.352 149.736 45.4564 148.632 45.4561H137.932Z" fill="black" fill-opacity="0.31"/>
</g>
<defs>
<filter id="filter0_i_1_877" x="0" y="0" width="260" height="264" filterUnits="userSpaceOnUse" color-interpolation-filters="sRGB">
<feFlood flood-opacity="0" result="BackgroundImageFix"/>
<feBlend mode="normal" in="SourceGraphic" in2="BackgroundImageFix" result="shape"/>
<feColorMatrix in="SourceAlpha" type="matrix" values="0 0 0 0 0 0 0 0 0 0 0 0 0 0 0 0 0 0 127 0" result="hardAlpha"/>
<feOffset dy="4"/>
<feGaussianBlur stdDeviation="17.85"/>
<feComposite in2="hardAlpha" operator="arithmetic" k2="-1" k3="1"/>
<feColorMatrix type="matrix" values="0 0 0 0 0.865479 0 0 0 0 0.865479 0 0 0 0 0.865479 0 0 0 1 0"/>
<feBlend mode="normal" in2="shape" result="effect1_innerShadow_1_877"/>
</filter>
<filter id="filter1_dddd_1_877" x="30" y="23" width="199" height="235.65" filterUnits="userSpaceOnUse" color-interpolation-filters="sRGB">
<feFlood flood-opacity="0" result="BackgroundImageFix"/>
<feColorMatrix in="SourceAlpha" type="matrix" values="0 0 0 0 0 0 0 0 0 0 0 0 0 0 0 0 0 0 127 0" result="hardAlpha"/>
<feOffset dy="4"/>
<feGaussianBlur stdDeviation="4.5"/>
<feColorMatrix type="matrix" values="0 0 0 0 0.623529 0 0 0 0 0.615686 0 0 0 0 0.615686 0 0 0 0.1 0"/>
<feBlend mode="normal" in2="BackgroundImageFix" result="effect1_dropShadow_1_877"/>
<feColorMatrix in="SourceAlpha" type="matrix" values="0 0 0 0 0 0 0 0 0 0 0 0 0 0 0 0 0 0 127 0" result="hardAlpha"/>
<feOffset dy="16"/>
<feGaussianBlur stdDeviation="8"/>
<feColorMatrix type="matrix" values="0 0 0 0 0.623529 0 0 0 0 0.615686 0 0 0 0 0.615686 0 0 0 0.09 0"/>
<feBlend mode="normal" in2="effect1_dropShadow_1_877" result="effect2_dropShadow_1_877"/>
<feColorMatrix in="SourceAlpha" type="matrix" values="0 0 0 0 0 0 0 0 0 0 0 0 0 0 0 0 0 0 127 0" result="hardAlpha"/>
<feOffset dy="36"/>
<feGaussianBlur stdDeviation="11"/>
<feColorMatrix type="matrix" values="0 0 0 0 0.623529 0 0 0 0 0.615686 0 0 0 0 0.615686 0 0 0 0.05 0"/>
<feBlend mode="normal" in2="effect2_dropShadow_1_877" result="effect3_dropShadow_1_877"/>
<feColorMatrix in="SourceAlpha" type="matrix" values="0 0 0 0 0 0 0 0 0 0 0 0 0 0 0 0 0 0 127 0" result="hardAlpha"/>
<feOffset dy="65"/>
<feGaussianBlur stdDeviation="13"/>
<feColorMatrix type="matrix" values="0 0 0 0 0.623529 0 0 0 0 0.615686 0 0 0 0 0.615686 0 0 0 0.01 0"/>
<feBlend mode="normal" in2="effect3_dropShadow_1_877" result="effect4_dropShadow_1_877"/>
<feBlend mode="normal" in="SourceGraphic" in2="effect4_dropShadow_1_877" result="shape"/>
</filter>
</defs>
</svg>
