<svg width="260" height="260" viewBox="0 0 260 260" fill="none" xmlns="http://www.w3.org/2000/svg">
<g filter="url(#filter0_i_1_871)">
<path d="M0 24C0 10.7452 10.7452 0 24 0H236C249.255 0 260 10.7452 260 24V236C260 249.255 249.255 260 236 260H24C10.7452 260 0 249.255 0 236V24Z" fill="#FDE9E7"/>
</g>
<path d="M173.153 214C173.153 206.044 178.665 200.48 186.569 200.48C194.629 200.48 199.985 205.836 199.985 213.844V216.184H180.485C181.317 219.356 183.865 221.332 187.297 221.332C190.053 221.332 192.341 220.136 192.757 218.368H199.569C198.893 223.776 193.849 227.52 187.193 227.52C178.873 227.52 173.153 221.956 173.153 214ZM180.641 211.296H192.757C191.925 208.436 189.689 206.668 186.725 206.668C183.709 206.668 181.473 208.436 180.641 211.296Z" fill="#CA8B85"/>
<path d="M136.079 211.348V227H128.851V201H136.079V203.6C137.743 201.676 140.291 200.532 143.203 200.532C146.375 200.532 149.027 201.832 150.743 204.016C152.563 201.832 155.475 200.532 158.907 200.532C164.835 200.532 169.255 204.432 169.255 209.84V227H162.027V211.348C162.027 208.436 160.207 206.616 157.347 206.616C154.435 206.616 152.667 208.436 152.667 211.348V227H145.439V211.348C145.439 208.436 143.619 206.616 140.759 206.616C137.847 206.616 136.079 208.436 136.079 211.348Z" fill="#CA8B85"/>
<path d="M123.481 209.32V227H116.253V224.556C114.537 226.376 111.989 227.52 108.973 227.52C103.877 227.52 100.289 224.296 100.289 219.564C100.289 214.624 104.293 211.4 110.325 211.4H116.253V209.476C116.253 207.76 114.745 206.668 112.457 206.668C110.169 206.668 108.505 207.76 108.505 209.372H101.173C101.173 204.224 106.009 200.48 112.457 200.48C118.853 200.48 123.481 204.224 123.481 209.32ZM116.253 216.288H111.313C109.129 216.288 107.673 217.276 107.673 218.888C107.673 220.552 109.233 221.592 111.729 221.592C114.381 221.592 116.201 220.292 116.253 218.42V216.288Z" fill="#CA8B85"/>
<path d="M61.1721 227V190.6H67.0481L87.7961 213.636V190.6H95.4401V227H89.5641L68.8161 203.964V227H61.1721Z" fill="#CA8B85"/>
<g filter="url(#filter1_dddd_1_871)">
<path d="M114.283 104.119C115.322 103.778 116.436 103.952 117.394 104.479C120.052 105.941 125.118 108.083 135.463 108.083C143.142 108.083 147.654 106.304 149.847 105.083C150.95 104.468 152.226 104.084 153.45 104.396C159.376 105.903 177.39 111.818 187.122 129.73C192.314 139.288 192.987 149.119 192.701 152.826C179.922 162.166 154.133 164 134.088 164C114.043 164 87.3628 160.255 78.1719 153.917C78.1719 153.917 76.7963 145.667 81.838 132.375C88.0165 116.086 104.829 107.229 114.283 104.119ZM134.547 32C153.341 32.0002 168.576 47.2356 168.576 66.0293C168.576 84.8231 153.341 100.058 134.547 100.059C115.753 100.059 100.517 84.8233 100.517 66.0293C100.517 47.2354 115.753 32 134.547 32Z" fill="#CA8B85"/>
</g>
<defs>
<filter id="filter0_i_1_871" x="0" y="0" width="260" height="264" filterUnits="userSpaceOnUse" color-interpolation-filters="sRGB">
<feFlood flood-opacity="0" result="BackgroundImageFix"/>
<feBlend mode="normal" in="SourceGraphic" in2="BackgroundImageFix" result="shape"/>
<feColorMatrix in="SourceAlpha" type="matrix" values="0 0 0 0 0 0 0 0 0 0 0 0 0 0 0 0 0 0 127 0" result="hardAlpha"/>
<feOffset dy="4"/>
<feGaussianBlur stdDeviation="17.85"/>
<feComposite in2="hardAlpha" operator="arithmetic" k2="-1" k3="1"/>
<feColorMatrix type="matrix" values="0 0 0 0 1 0 0 0 0 0.827087 0 0 0 0 0.809796 0 0 0 1 0"/>
<feBlend mode="normal" in2="shape" result="effect1_innerShadow_1_871"/>
</filter>
<filter id="filter1_dddd_1_871" x="53.0005" y="27" width="164.756" height="224" filterUnits="userSpaceOnUse" color-interpolation-filters="sRGB">
<feFlood flood-opacity="0" result="BackgroundImageFix"/>
<feColorMatrix in="SourceAlpha" type="matrix" values="0 0 0 0 0 0 0 0 0 0 0 0 0 0 0 0 0 0 127 0" result="hardAlpha"/>
<feOffset dy="4"/>
<feGaussianBlur stdDeviation="4.5"/>
<feColorMatrix type="matrix" values="0 0 0 0 0.803922 0 0 0 0 0.509804 0 0 0 0 0.478431 0 0 0 0.1 0"/>
<feBlend mode="normal" in2="BackgroundImageFix" result="effect1_dropShadow_1_871"/>
<feColorMatrix in="SourceAlpha" type="matrix" values="0 0 0 0 0 0 0 0 0 0 0 0 0 0 0 0 0 0 127 0" result="hardAlpha"/>
<feOffset dy="16"/>
<feGaussianBlur stdDeviation="8"/>
<feColorMatrix type="matrix" values="0 0 0 0 0.803922 0 0 0 0 0.509804 0 0 0 0 0.478431 0 0 0 0.09 0"/>
<feBlend mode="normal" in2="effect1_dropShadow_1_871" result="effect2_dropShadow_1_871"/>
<feColorMatrix in="SourceAlpha" type="matrix" values="0 0 0 0 0 0 0 0 0 0 0 0 0 0 0 0 0 0 127 0" result="hardAlpha"/>
<feOffset dy="35"/>
<feGaussianBlur stdDeviation="10.5"/>
<feColorMatrix type="matrix" values="0 0 0 0 0.803922 0 0 0 0 0.509804 0 0 0 0 0.478431 0 0 0 0.05 0"/>
<feBlend mode="normal" in2="effect2_dropShadow_1_871" result="effect3_dropShadow_1_871"/>
<feColorMatrix in="SourceAlpha" type="matrix" values="0 0 0 0 0 0 0 0 0 0 0 0 0 0 0 0 0 0 127 0" result="hardAlpha"/>
<feOffset dy="62"/>
<feGaussianBlur stdDeviation="12.5"/>
<feColorMatrix type="matrix" values="0 0 0 0 0.803922 0 0 0 0 0.509804 0 0 0 0 0.478431 0 0 0 0.01 0"/>
<feBlend mode="normal" in2="effect3_dropShadow_1_871" result="effect4_dropShadow_1_871"/>
<feBlend mode="normal" in="SourceGraphic" in2="effect4_dropShadow_1_871" result="shape"/>
</filter>
</defs>
</svg>
