<svg width="260" height="260" viewBox="0 0 260 260" fill="none" xmlns="http://www.w3.org/2000/svg">
<g filter="url(#filter0_i_1_856)">
<path d="M0 24C0 10.7452 10.7452 0 24 0H236C249.255 0 260 10.7452 260 24V236C260 249.255 249.255 260 236 260H24C10.7452 260 0 249.255 0 236V24Z" fill="#D4EEC9"/>
</g>
<g filter="url(#filter1_dddd_1_856)">
<path d="M60 101C60 82.4348 67.375 64.6301 80.5025 51.5025C93.6301 38.375 111.435 31 130 31C148.565 31 166.37 38.375 179.497 51.5025C192.625 64.6301 200 82.4348 200 101C200 119.565 192.625 137.37 179.497 150.497C166.37 163.625 148.565 171 130 171C111.435 171 93.6301 163.625 80.5025 150.497C67.375 137.37 60 119.565 60 101ZM125.625 40.4237C119.762 42.2087 113.944 47.5987 109.114 56.655C107.86 59.0058 106.708 61.5492 105.658 64.285C111.826 65.6587 118.537 66.5337 125.625 66.7962V40.4237ZM97.1787 61.9662C98.4271 58.6004 99.83 55.4563 101.388 52.5338C102.91 49.6788 104.657 46.949 106.611 44.37C99.161 47.455 92.3932 51.9807 86.6963 57.6875C89.8696 59.3033 93.3637 60.7237 97.1787 61.9662ZM90.7038 96.625C91.0188 87.2625 92.3487 78.3638 94.5187 70.305C89.7801 68.7963 85.1951 66.8422 80.825 64.4688C73.8543 73.8246 69.7177 84.986 68.9075 96.625H90.7038ZM102.954 72.6412C100.888 80.4785 99.7136 88.5241 99.4537 96.625H125.625V75.5462C117.662 75.2837 110.024 74.2775 102.954 72.6412ZM134.375 75.5375V96.625H160.537C160.28 88.5245 159.109 80.4789 157.046 72.6412C149.976 74.2775 142.338 75.2663 134.375 75.5375ZM99.4625 105.375C99.7688 114.011 101.003 122.122 102.954 129.359C110.4 127.668 117.992 126.698 125.625 126.463V105.375H99.4625ZM134.375 105.375V126.454C142.338 126.716 149.976 127.722 157.046 129.359C158.997 122.122 160.231 114.011 160.546 105.375H134.375ZM105.658 137.715C106.708 140.451 107.86 142.994 109.114 145.345C113.944 154.401 119.771 159.782 125.625 161.576V135.213C118.537 135.475 111.826 136.341 105.658 137.715ZM106.62 157.63C104.663 155.051 102.913 152.322 101.388 149.466C99.7793 146.415 98.3734 143.261 97.1787 140.025C93.5795 141.182 90.0749 142.616 86.6963 144.312C92.3932 150.019 99.1697 154.545 106.62 157.63ZM94.5187 131.695C92.25 123.095 90.9672 114.265 90.695 105.375H68.9075C69.7177 117.014 73.8543 128.175 80.825 137.531C84.9375 135.274 89.5312 133.314 94.5187 131.695ZM153.389 157.63C160.835 154.547 167.6 150.024 173.295 144.321C169.919 142.625 166.418 141.192 162.821 140.034C161.626 143.267 160.22 146.418 158.613 149.466C157.09 152.321 155.343 155.051 153.389 157.63ZM134.375 135.204V161.576C140.238 159.791 146.056 154.401 150.886 145.345C152.146 142.994 153.298 140.451 154.342 137.715C147.777 136.274 141.093 135.427 134.375 135.204ZM165.481 131.695C170.469 133.314 175.062 135.274 179.175 137.531C186.146 128.175 190.282 117.014 191.092 105.375H169.305C169.033 114.265 167.75 123.095 165.481 131.695ZM191.092 96.625C190.282 84.986 186.146 73.8246 179.175 64.4688C175.062 66.7262 170.469 68.6863 165.481 70.305C167.651 78.355 168.981 87.2625 169.305 96.625H191.092ZM158.613 52.5338C160.164 55.4621 161.57 58.6062 162.83 61.9662C166.423 60.808 169.922 59.3746 173.295 57.6788C167.599 51.9792 160.834 47.4595 153.389 44.3788C155.296 46.855 157.046 49.6025 158.613 52.5338ZM154.342 64.285C153.344 61.675 152.19 59.1271 150.886 56.655C146.056 47.5987 140.238 42.2175 134.375 40.4237V66.7875C141.463 66.525 148.174 65.6587 154.342 64.285Z" fill="#75AC5D"/>
</g>
<path d="M160.172 214C160.172 206.148 165.112 200.532 172.028 200.532C175.304 200.532 178.112 201.78 180.192 203.964V189.56H187.42V227H180.192V224.036C178.112 226.22 175.304 227.468 172.028 227.468C165.112 227.468 160.172 221.8 160.172 214ZM167.868 214C167.868 218.108 170.364 220.916 174.004 220.916C177.696 220.916 180.192 218.108 180.192 214C180.192 209.892 177.696 207.084 174.004 207.084C170.364 207.084 167.868 209.892 167.868 214Z" fill="#75AC5D"/>
<path d="M138.486 211.972V227H131.258V201H138.486V203.912C140.254 201.78 143.01 200.532 146.234 200.532C152.006 200.532 156.218 204.692 156.218 210.464V227H148.99V211.972C148.99 208.644 146.962 206.616 143.738 206.616C140.514 206.616 138.486 208.644 138.486 211.972Z" fill="#75AC5D"/>
<path d="M125.887 209.32V227H118.659V224.556C116.943 226.376 114.395 227.52 111.379 227.52C106.283 227.52 102.695 224.296 102.695 219.564C102.695 214.624 106.699 211.4 112.731 211.4H118.659V209.476C118.659 207.76 117.151 206.668 114.863 206.668C112.575 206.668 110.911 207.76 110.911 209.372H103.579C103.579 204.224 108.415 200.48 114.863 200.48C121.259 200.48 125.887 204.224 125.887 209.32ZM118.659 216.288H113.719C111.535 216.288 110.079 217.276 110.079 218.888C110.079 220.552 111.639 221.592 114.135 221.592C116.787 221.592 118.607 220.292 118.659 218.42V216.288Z" fill="#75AC5D"/>
<path d="M76.1719 227V190.6H84.0759V220.188H99.9879V227H76.1719Z" fill="#75AC5D"/>
<defs>
<filter id="filter0_i_1_856" x="0" y="0" width="260" height="264" filterUnits="userSpaceOnUse" color-interpolation-filters="sRGB">
<feFlood flood-opacity="0" result="BackgroundImageFix"/>
<feBlend mode="normal" in="SourceGraphic" in2="BackgroundImageFix" result="shape"/>
<feColorMatrix in="SourceAlpha" type="matrix" values="0 0 0 0 0 0 0 0 0 0 0 0 0 0 0 0 0 0 127 0" result="hardAlpha"/>
<feOffset dy="4"/>
<feGaussianBlur stdDeviation="17.85"/>
<feComposite in2="hardAlpha" operator="arithmetic" k2="-1" k3="1"/>
<feColorMatrix type="matrix" values="0 0 0 0 0.767087 0 0 0 0 0.926007 0 0 0 0 0.69774 0 0 0 1 0"/>
<feBlend mode="normal" in2="shape" result="effect1_innerShadow_1_856"/>
</filter>
<filter id="filter1_dddd_1_856" x="35" y="27" width="190" height="231" filterUnits="userSpaceOnUse" color-interpolation-filters="sRGB">
<feFlood flood-opacity="0" result="BackgroundImageFix"/>
<feColorMatrix in="SourceAlpha" type="matrix" values="0 0 0 0 0 0 0 0 0 0 0 0 0 0 0 0 0 0 127 0" result="hardAlpha"/>
<feOffset dy="4"/>
<feGaussianBlur stdDeviation="4"/>
<feColorMatrix type="matrix" values="0 0 0 0 0.12549 0 0 0 0 0.513726 0 0 0 0 0.223529 0 0 0 0.1 0"/>
<feBlend mode="normal" in2="BackgroundImageFix" result="effect1_dropShadow_1_856"/>
<feColorMatrix in="SourceAlpha" type="matrix" values="0 0 0 0 0 0 0 0 0 0 0 0 0 0 0 0 0 0 127 0" result="hardAlpha"/>
<feOffset dy="15"/>
<feGaussianBlur stdDeviation="7.5"/>
<feColorMatrix type="matrix" values="0 0 0 0 0.12549 0 0 0 0 0.513726 0 0 0 0 0.223529 0 0 0 0.09 0"/>
<feBlend mode="normal" in2="effect1_dropShadow_1_856" result="effect2_dropShadow_1_856"/>
<feColorMatrix in="SourceAlpha" type="matrix" values="0 0 0 0 0 0 0 0 0 0 0 0 0 0 0 0 0 0 127 0" result="hardAlpha"/>
<feOffset dy="35"/>
<feGaussianBlur stdDeviation="10.5"/>
<feColorMatrix type="matrix" values="0 0 0 0 0.12549 0 0 0 0 0.513726 0 0 0 0 0.223529 0 0 0 0.05 0"/>
<feBlend mode="normal" in2="effect2_dropShadow_1_856" result="effect3_dropShadow_1_856"/>
<feColorMatrix in="SourceAlpha" type="matrix" values="0 0 0 0 0 0 0 0 0 0 0 0 0 0 0 0 0 0 127 0" result="hardAlpha"/>
<feOffset dy="62"/>
<feGaussianBlur stdDeviation="12.5"/>
<feColorMatrix type="matrix" values="0 0 0 0 0.12549 0 0 0 0 0.513726 0 0 0 0 0.223529 0 0 0 0.01 0"/>
<feBlend mode="normal" in2="effect3_dropShadow_1_856" result="effect4_dropShadow_1_856"/>
<feBlend mode="normal" in="SourceGraphic" in2="effect4_dropShadow_1_856" result="shape"/>
</filter>
</defs>
</svg>
