<svg width="260" height="263" viewBox="0 0 260 263" fill="none" xmlns="http://www.w3.org/2000/svg">
<g filter="url(#filter0_i_1_750)">
<path d="M0 24C0 10.7452 10.7452 0 24 0H236C249.255 0 260 10.7452 260 24V236C260 249.255 249.255 260 236 260H24C10.7452 260 0 249.255 0 236V24Z" fill="#D4EEC9"/>
</g>
<g filter="url(#filter1_dddd_1_750)">
<path d="M60 101C60 82.4348 67.375 64.6301 80.5025 51.5025C93.6301 38.375 111.435 31 130 31C148.565 31 166.37 38.375 179.497 51.5025C192.625 64.6301 200 82.4348 200 101C200 119.565 192.625 137.37 179.497 150.497C166.37 163.625 148.565 171 130 171C111.435 171 93.6301 163.625 80.5025 150.497C67.375 137.37 60 119.565 60 101ZM125.625 40.4237C119.762 42.2087 113.944 47.5987 109.114 56.655C107.86 59.0058 106.708 61.5492 105.658 64.285C111.826 65.6587 118.537 66.5337 125.625 66.7962V40.4237ZM97.1787 61.9662C98.4271 58.6004 99.83 55.4563 101.388 52.5338C102.91 49.6788 104.657 46.949 106.611 44.37C99.161 47.455 92.3932 51.9807 86.6963 57.6875C89.8696 59.3033 93.3637 60.7237 97.1787 61.9662ZM90.7038 96.625C91.0188 87.2625 92.3487 78.3638 94.5187 70.305C89.7801 68.7963 85.1951 66.8422 80.825 64.4688C73.8543 73.8246 69.7177 84.986 68.9075 96.625H90.7038ZM102.954 72.6412C100.888 80.4785 99.7136 88.5241 99.4537 96.625H125.625V75.5462C117.662 75.2837 110.024 74.2775 102.954 72.6412ZM134.375 75.5375V96.625H160.537C160.28 88.5245 159.109 80.4789 157.046 72.6412C149.976 74.2775 142.338 75.2663 134.375 75.5375ZM99.4625 105.375C99.7688 114.011 101.003 122.122 102.954 129.359C110.4 127.668 117.992 126.698 125.625 126.463V105.375H99.4625ZM134.375 105.375V126.454C142.338 126.716 149.976 127.722 157.046 129.359C158.997 122.122 160.231 114.011 160.546 105.375H134.375ZM105.658 137.715C106.708 140.451 107.86 142.994 109.114 145.345C113.944 154.401 119.771 159.782 125.625 161.576V135.213C118.537 135.475 111.826 136.341 105.658 137.715ZM106.62 157.63C104.663 155.051 102.913 152.322 101.388 149.466C99.7793 146.415 98.3734 143.261 97.1787 140.025C93.5795 141.182 90.0749 142.616 86.6963 144.312C92.3932 150.019 99.1697 154.545 106.62 157.63ZM94.5187 131.695C92.25 123.095 90.9672 114.265 90.695 105.375H68.9075C69.7177 117.014 73.8543 128.175 80.825 137.531C84.9375 135.274 89.5312 133.314 94.5187 131.695ZM153.389 157.63C160.835 154.547 167.6 150.024 173.295 144.321C169.919 142.625 166.418 141.192 162.821 140.034C161.626 143.267 160.22 146.418 158.613 149.466C157.09 152.321 155.343 155.051 153.389 157.63ZM134.375 135.204V161.576C140.238 159.791 146.056 154.401 150.886 145.345C152.146 142.994 153.298 140.451 154.342 137.715C147.777 136.274 141.093 135.427 134.375 135.204ZM165.481 131.695C170.469 133.314 175.062 135.274 179.175 137.531C186.146 128.175 190.282 117.014 191.092 105.375H169.305C169.033 114.265 167.75 123.095 165.481 131.695ZM191.092 96.625C190.282 84.986 186.146 73.8246 179.175 64.4688C175.062 66.7262 170.469 68.6863 165.481 70.305C167.651 78.355 168.981 87.2625 169.305 96.625H191.092ZM158.613 52.5338C160.164 55.4621 161.57 58.6062 162.83 61.9662C166.423 60.808 169.922 59.3746 173.295 57.6788C167.599 51.9792 160.834 47.4595 153.389 44.3788C155.296 46.855 157.046 49.6025 158.613 52.5338ZM154.342 64.285C153.344 61.675 152.19 59.1271 150.886 56.655C146.056 47.5987 140.238 42.2175 134.375 40.4237V66.7875C141.463 66.525 148.174 65.6587 154.342 64.285Z" fill="url(#paint0_radial_1_750)"/>
<path d="M200 101C200 82.7248 192.854 65.1865 180.108 52.1211L179.497 51.5029C166.37 38.3754 148.565 31 130 31C111.435 31 93.6305 38.3754 80.5029 51.5029L79.8916 52.1211C67.1464 65.1865 60 82.7248 60 101C60 119.565 67.3754 137.37 80.5029 150.497C93.6305 163.625 111.435 171 130 171C148.565 171 166.37 163.625 179.497 150.497C192.625 137.37 200 119.565 200 101ZM125.625 161.576C119.771 159.782 113.943 154.401 109.113 145.345C107.859 142.994 106.707 140.451 105.657 137.715C111.826 136.341 118.538 135.475 125.625 135.213V161.576ZM134.375 135.204C141.093 135.428 147.777 136.274 154.343 137.715C153.299 140.451 152.147 142.994 150.887 145.345L150.431 146.184C145.693 154.735 140.054 159.847 134.375 161.576V135.204ZM97.1787 140.025C98.3733 143.261 99.7796 146.414 101.388 149.466C102.913 152.321 104.663 155.051 106.62 157.63C99.1699 154.545 92.3933 150.019 86.6963 144.312C90.0749 142.616 93.5795 141.183 97.1787 140.025ZM162.821 140.034C166.417 141.192 169.919 142.625 173.295 144.321C167.6 150.024 160.835 154.547 153.389 157.63C155.343 155.051 157.089 152.321 158.612 149.466C160.22 146.417 161.626 143.267 162.821 140.034ZM139.375 152.751C141.741 150.504 144.167 147.318 146.475 142.992L146.479 142.983C146.746 142.487 147.006 141.978 147.263 141.46C144.646 141.042 142.015 140.723 139.375 140.503V152.751ZM120.625 140.519C117.92 140.742 115.287 141.058 112.739 141.46C112.997 141.981 113.259 142.492 113.525 142.991V142.992C115.83 147.313 118.257 150.496 120.625 152.744V140.519ZM90.6953 105.375C90.9675 114.265 92.2498 123.095 94.5186 131.695C89.5312 133.314 84.9376 135.274 80.8252 137.531L80.1797 136.648C73.599 127.477 69.6921 116.65 68.9072 105.375H90.6953ZM191.093 105.375C190.283 117.014 186.146 128.175 179.175 137.531C175.062 135.274 170.469 133.314 165.481 131.695C167.75 123.095 169.032 114.265 169.305 105.375H191.093ZM74.5293 110.375C75.7615 117.736 78.4559 124.78 82.458 131.089C84.4277 130.157 86.4752 129.287 88.5928 128.481C87.2589 122.52 86.3735 116.468 85.9443 110.375H74.5293ZM174.056 110.375C173.627 116.468 172.74 122.52 171.406 128.481C173.524 129.287 175.571 130.157 177.541 131.089C181.543 124.78 184.238 117.736 185.471 110.375H174.056ZM125.625 105.375V126.463C117.993 126.699 110.401 127.668 102.954 129.358L102.597 127.992C100.852 121.107 99.75 113.472 99.4629 105.375H125.625ZM160.546 105.375C160.231 114.011 158.997 122.122 157.046 129.358C149.976 127.722 142.337 126.717 134.375 126.454V105.375H160.546ZM104.766 110.375C105.143 114.969 105.794 119.361 106.68 123.487C111.291 122.632 115.947 122.039 120.625 121.711V110.375H104.766ZM139.375 121.706C144.166 122.043 148.832 122.642 153.321 123.478C154.206 119.354 154.859 114.966 155.239 110.375H139.375V121.706ZM80.8252 64.4688C85.1951 66.8421 89.7801 68.796 94.5186 70.3047C92.3486 78.3634 91.0191 87.2625 90.7041 96.625H68.9072C69.7175 84.986 73.8545 73.8246 80.8252 64.4688ZM102.954 72.6416C110.024 74.2778 117.663 75.2834 125.625 75.5459V96.625H99.4541C99.714 88.5242 100.888 80.4788 102.954 72.6416ZM157.046 72.6416C159.109 80.4791 160.28 88.5246 160.537 96.625H134.375V75.5371C142.337 75.2659 149.976 74.2778 157.046 72.6416ZM179.175 64.4688C186.146 73.8246 190.283 84.986 191.093 96.625H169.305C168.981 87.2625 167.651 78.3547 165.481 70.3047C170.469 68.686 175.062 66.7262 179.175 64.4688ZM177.541 70.9102C175.575 71.8407 173.532 72.7088 171.419 73.5127C172.707 79.2547 173.597 85.3314 174.045 91.625H185.471C184.238 84.2638 181.544 77.2193 177.541 70.9102ZM153.309 78.5215C148.82 79.3535 144.159 79.9449 139.375 80.2812V91.625H155.244C154.882 87.2201 154.235 82.8433 153.309 78.5215ZM106.688 78.5234C105.76 82.8445 105.113 87.2207 104.749 91.625H120.625V80.293C115.837 79.9564 111.175 79.3584 106.688 78.5234ZM82.46 70.9072C78.4566 77.217 75.7618 84.2628 74.5293 91.625H85.9609C86.4049 85.334 87.2918 79.2628 88.5791 73.5215C86.5057 72.7311 84.4641 71.8597 82.46 70.9072ZM125.625 66.7959C118.538 66.5334 111.826 65.6589 105.657 64.2852C106.576 61.8914 107.573 59.6449 108.648 57.5459L109.113 56.6553C113.943 47.599 119.763 42.2088 125.625 40.4238V66.7959ZM134.375 40.4238C140.237 42.2176 146.057 47.599 150.887 56.6553C152.19 59.1272 153.344 61.6753 154.343 64.2852C148.174 65.6589 141.462 66.5246 134.375 66.7871V40.4238ZM106.611 44.3701C104.657 46.9491 102.911 49.6792 101.388 52.5342C99.8303 55.4565 98.427 58.6002 97.1787 61.9658C93.3638 60.7233 89.8696 59.3033 86.6963 57.6875C92.3933 51.9807 99.1611 47.4551 106.611 44.3701ZM153.389 44.3789C160.834 47.4597 167.599 51.9792 173.295 57.6787C169.922 59.3745 166.423 60.8076 162.83 61.9658L162.351 60.7168C161.216 57.824 159.97 55.0965 158.612 52.5342C157.046 49.603 155.296 46.8551 153.389 44.3789ZM120.625 49.248C118.259 51.4955 115.833 54.6816 113.525 59.0078V59.0088C113.259 59.5086 112.996 60.0193 112.738 60.541C115.287 60.9448 117.92 61.2637 120.625 61.4883V49.248ZM139.375 61.4805C142.078 61.2575 144.708 60.9415 147.254 60.54C146.997 60.0192 146.734 59.5012 146.463 58.9873V58.9863C144.16 54.6736 141.738 51.4967 139.375 49.2529V61.4805ZM204.994 101.932C204.752 121.486 196.879 140.188 183.033 154.033C169.188 167.879 150.486 175.752 130.932 175.994L130 176C110.109 176 91.032 168.098 76.9668 154.033C62.9016 139.968 55 120.891 55 101C55 81.1088 62.9016 62.032 76.9668 47.9668C91.032 33.9016 110.109 26 130 26C149.891 26 168.968 33.9016 183.033 47.9668C197.098 62.032 205 81.1088 205 101L204.994 101.932Z" fill="url(#paint1_linear_1_750)" fill-opacity="0.48"/>
</g>
<path d="M160.172 214C160.172 206.148 165.112 200.532 172.028 200.532C175.304 200.532 178.112 201.78 180.192 203.964V189.56H187.42V227H180.192V224.036C178.112 226.22 175.304 227.468 172.028 227.468C165.112 227.468 160.172 221.8 160.172 214ZM167.868 214C167.868 218.108 170.364 220.916 174.004 220.916C177.696 220.916 180.192 218.108 180.192 214C180.192 209.892 177.696 207.084 174.004 207.084C170.364 207.084 167.868 209.892 167.868 214Z" fill="#75AC5D"/>
<path d="M138.485 211.972V227H131.257V201H138.485V203.912C140.253 201.78 143.009 200.532 146.233 200.532C152.005 200.532 156.217 204.692 156.217 210.464V227H148.989V211.972C148.989 208.644 146.961 206.616 143.737 206.616C140.513 206.616 138.485 208.644 138.485 211.972Z" fill="#75AC5D"/>
<path d="M125.887 209.32V227H118.659V224.556C116.943 226.376 114.395 227.52 111.379 227.52C106.283 227.52 102.695 224.296 102.695 219.564C102.695 214.624 106.699 211.4 112.731 211.4H118.659V209.476C118.659 207.76 117.151 206.668 114.863 206.668C112.575 206.668 110.911 207.76 110.911 209.372H103.579C103.579 204.224 108.415 200.48 114.863 200.48C121.259 200.48 125.887 204.224 125.887 209.32ZM118.659 216.288H113.719C111.535 216.288 110.079 217.276 110.079 218.888C110.079 220.552 111.639 221.592 114.135 221.592C116.787 221.592 118.607 220.292 118.659 218.42V216.288Z" fill="#75AC5D"/>
<path d="M76.172 227V190.6H84.076V220.188H99.988V227H76.172Z" fill="#75AC5D"/>
<defs>
<filter id="filter0_i_1_750" x="0" y="0" width="260" height="264" filterUnits="userSpaceOnUse" color-interpolation-filters="sRGB">
<feFlood flood-opacity="0" result="BackgroundImageFix"/>
<feBlend mode="normal" in="SourceGraphic" in2="BackgroundImageFix" result="shape"/>
<feColorMatrix in="SourceAlpha" type="matrix" values="0 0 0 0 0 0 0 0 0 0 0 0 0 0 0 0 0 0 127 0" result="hardAlpha"/>
<feOffset dy="4"/>
<feGaussianBlur stdDeviation="17.85"/>
<feComposite in2="hardAlpha" operator="arithmetic" k2="-1" k3="1"/>
<feColorMatrix type="matrix" values="0 0 0 0 0.767087 0 0 0 0 0.926007 0 0 0 0 0.69774 0 0 0 1 0"/>
<feBlend mode="normal" in2="shape" result="effect1_innerShadow_1_750"/>
</filter>
<filter id="filter1_dddd_1_750" x="30" y="22" width="200" height="241" filterUnits="userSpaceOnUse" color-interpolation-filters="sRGB">
<feFlood flood-opacity="0" result="BackgroundImageFix"/>
<feColorMatrix in="SourceAlpha" type="matrix" values="0 0 0 0 0 0 0 0 0 0 0 0 0 0 0 0 0 0 127 0" result="hardAlpha"/>
<feOffset dy="4"/>
<feGaussianBlur stdDeviation="4"/>
<feColorMatrix type="matrix" values="0 0 0 0 0.12549 0 0 0 0 0.513726 0 0 0 0 0.223529 0 0 0 0.1 0"/>
<feBlend mode="normal" in2="BackgroundImageFix" result="effect1_dropShadow_1_750"/>
<feColorMatrix in="SourceAlpha" type="matrix" values="0 0 0 0 0 0 0 0 0 0 0 0 0 0 0 0 0 0 127 0" result="hardAlpha"/>
<feOffset dy="15"/>
<feGaussianBlur stdDeviation="7.5"/>
<feColorMatrix type="matrix" values="0 0 0 0 0.12549 0 0 0 0 0.513726 0 0 0 0 0.223529 0 0 0 0.09 0"/>
<feBlend mode="normal" in2="effect1_dropShadow_1_750" result="effect2_dropShadow_1_750"/>
<feColorMatrix in="SourceAlpha" type="matrix" values="0 0 0 0 0 0 0 0 0 0 0 0 0 0 0 0 0 0 127 0" result="hardAlpha"/>
<feOffset dy="35"/>
<feGaussianBlur stdDeviation="10.5"/>
<feColorMatrix type="matrix" values="0 0 0 0 0.12549 0 0 0 0 0.513726 0 0 0 0 0.223529 0 0 0 0.05 0"/>
<feBlend mode="normal" in2="effect2_dropShadow_1_750" result="effect3_dropShadow_1_750"/>
<feColorMatrix in="SourceAlpha" type="matrix" values="0 0 0 0 0 0 0 0 0 0 0 0 0 0 0 0 0 0 127 0" result="hardAlpha"/>
<feOffset dy="62"/>
<feGaussianBlur stdDeviation="12.5"/>
<feColorMatrix type="matrix" values="0 0 0 0 0.12549 0 0 0 0 0.513726 0 0 0 0 0.223529 0 0 0 0.01 0"/>
<feBlend mode="normal" in2="effect3_dropShadow_1_750" result="effect4_dropShadow_1_750"/>
<feBlend mode="normal" in="SourceGraphic" in2="effect4_dropShadow_1_750" result="shape"/>
</filter>
<radialGradient id="paint0_radial_1_750" cx="0" cy="0" r="1" gradientUnits="userSpaceOnUse" gradientTransform="translate(130 65.5) rotate(90) scale(105.5 322.864)">
<stop stop-color="white"/>
<stop offset="1" stop-color="#D4EEC9"/>
</radialGradient>
<linearGradient id="paint1_linear_1_750" x1="130" y1="31" x2="130" y2="171" gradientUnits="userSpaceOnUse">
<stop stop-color="#75AC5D" stop-opacity="0.24"/>
<stop offset="1" stop-color="#75AC5D"/>
</linearGradient>
</defs>
</svg>
