<svg width="260" height="260" viewBox="0 0 260 260" fill="none" xmlns="http://www.w3.org/2000/svg">
<path d="M0 24C0 10.7452 10.7452 0 24 0H236C249.255 0 260 10.7452 260 24V236C260 249.255 249.255 260 236 260H24C10.7452 260 0 249.255 0 236V24Z" fill="white"/>
<path d="M236 251V260H24V251H236ZM251 236V24C251 15.7157 244.284 9 236 9H24C15.7157 9 9 15.7157 9 24V236C9 244.284 15.7157 251 24 251V260L23.3809 259.992C10.6179 259.669 0.331002 249.382 0.0078125 236.619L0 236V24C0 10.7452 10.7452 2.73809e-07 24 0H236C249.255 0 260 10.7452 260 24V236C260 249.048 249.588 259.664 236.619 259.992L236 260V251C244.284 251 251 244.284 251 236Z" fill="black"/>
<path d="M186.094 193.527V198.707H170.098V193.527H186.094ZM174.059 186.748H181.371V212.723C181.371 213.518 181.473 214.128 181.676 214.551C181.896 214.974 182.217 215.27 182.641 215.439C183.064 215.592 183.597 215.668 184.24 215.668C184.697 215.668 185.104 215.651 185.459 215.617C185.831 215.566 186.145 215.516 186.398 215.465L186.424 220.848C185.798 221.051 185.12 221.212 184.393 221.33C183.665 221.449 182.861 221.508 181.98 221.508C180.372 221.508 178.967 221.245 177.766 220.721C176.581 220.179 175.667 219.316 175.023 218.131C174.38 216.946 174.059 215.389 174.059 213.459V186.748Z" fill="black"/>
<path d="M159.561 215.008V182H166.924V221H160.297L159.561 215.008ZM142.193 207.594V207.061C142.193 204.962 142.43 203.057 142.904 201.348C143.378 199.621 144.072 198.14 144.986 196.904C145.9 195.669 147.026 194.712 148.363 194.035C149.701 193.358 151.224 193.02 152.934 193.02C154.542 193.02 155.947 193.358 157.148 194.035C158.367 194.712 159.4 195.677 160.246 196.93C161.109 198.165 161.803 199.63 162.328 201.322C162.853 202.998 163.234 204.835 163.471 206.832V208C163.234 209.913 162.853 211.69 162.328 213.332C161.803 214.974 161.109 216.413 160.246 217.648C159.4 218.867 158.367 219.815 157.148 220.492C155.93 221.169 154.508 221.508 152.883 221.508C151.173 221.508 149.65 221.161 148.312 220.467C146.992 219.773 145.875 218.799 144.961 217.547C144.064 216.294 143.378 214.822 142.904 213.129C142.43 211.436 142.193 209.591 142.193 207.594ZM149.506 207.061V207.594C149.506 208.728 149.59 209.786 149.76 210.768C149.946 211.749 150.242 212.621 150.648 213.383C151.072 214.128 151.613 214.712 152.273 215.135C152.951 215.541 153.771 215.744 154.736 215.744C155.989 215.744 157.021 215.465 157.834 214.906C158.646 214.331 159.264 213.544 159.688 212.545C160.128 211.546 160.382 210.395 160.449 209.092V205.766C160.398 204.699 160.246 203.743 159.992 202.896C159.755 202.033 159.4 201.297 158.926 200.688C158.469 200.078 157.893 199.604 157.199 199.266C156.522 198.927 155.718 198.758 154.787 198.758C153.839 198.758 153.027 198.978 152.35 199.418C151.673 199.841 151.122 200.425 150.699 201.17C150.293 201.915 149.988 202.795 149.785 203.811C149.599 204.809 149.506 205.893 149.506 207.061Z" fill="black"/>
<path d="M130.336 214.805V202.566C130.336 201.686 130.192 200.933 129.904 200.307C129.617 199.663 129.168 199.164 128.559 198.809C127.966 198.453 127.196 198.275 126.248 198.275C125.436 198.275 124.733 198.419 124.141 198.707C123.548 198.978 123.091 199.376 122.77 199.9C122.448 200.408 122.287 201.009 122.287 201.703H114.975C114.975 200.535 115.245 199.426 115.787 198.377C116.329 197.327 117.116 196.405 118.148 195.609C119.181 194.797 120.408 194.162 121.83 193.705C123.269 193.248 124.877 193.02 126.654 193.02C128.787 193.02 130.683 193.375 132.342 194.086C134.001 194.797 135.304 195.863 136.252 197.285C137.217 198.707 137.699 200.484 137.699 202.617V214.373C137.699 215.88 137.792 217.115 137.979 218.08C138.165 219.028 138.436 219.857 138.791 220.568V221H131.402C131.047 220.255 130.776 219.324 130.59 218.207C130.421 217.073 130.336 215.939 130.336 214.805ZM131.301 204.268L131.352 208.406H127.264C126.299 208.406 125.461 208.516 124.75 208.736C124.039 208.956 123.455 209.27 122.998 209.676C122.541 210.065 122.202 210.522 121.982 211.047C121.779 211.572 121.678 212.147 121.678 212.773C121.678 213.4 121.822 213.967 122.109 214.475C122.397 214.965 122.812 215.355 123.354 215.643C123.895 215.913 124.53 216.049 125.258 216.049C126.358 216.049 127.314 215.829 128.127 215.389C128.939 214.949 129.566 214.407 130.006 213.764C130.463 213.12 130.7 212.511 130.717 211.936L132.646 215.033C132.376 215.727 132.003 216.447 131.529 217.191C131.072 217.936 130.488 218.639 129.777 219.299C129.066 219.942 128.212 220.475 127.213 220.898C126.214 221.305 125.029 221.508 123.658 221.508C121.915 221.508 120.332 221.161 118.91 220.467C117.505 219.756 116.388 218.783 115.559 217.547C114.746 216.294 114.34 214.872 114.34 213.281C114.34 211.842 114.611 210.564 115.152 209.447C115.694 208.33 116.49 207.391 117.539 206.629C118.605 205.85 119.934 205.266 121.525 204.877C123.117 204.471 124.962 204.268 127.061 204.268H131.301Z" fill="black"/>
<path d="M111.344 193.527V198.707H95.3477V193.527H111.344ZM99.3086 186.748H106.621V212.723C106.621 213.518 106.723 214.128 106.926 214.551C107.146 214.974 107.467 215.27 107.891 215.439C108.314 215.592 108.847 215.668 109.49 215.668C109.947 215.668 110.354 215.651 110.709 215.617C111.081 215.566 111.395 215.516 111.648 215.465L111.674 220.848C111.048 221.051 110.37 221.212 109.643 221.33C108.915 221.449 108.111 221.508 107.23 221.508C105.622 221.508 104.217 221.245 103.016 220.721C101.831 220.179 100.917 219.316 100.273 218.131C99.6302 216.946 99.3086 215.389 99.3086 213.459V186.748Z" fill="black"/>
<path d="M85.5469 211.326C85.5469 210.666 85.4453 210.074 85.2422 209.549C85.056 209.007 84.7005 208.516 84.1758 208.076C83.651 207.619 82.9147 207.171 81.9668 206.73C81.0189 206.29 79.7917 205.833 78.2852 205.359C76.6094 204.818 75.0182 204.208 73.5117 203.531C72.0221 202.854 70.7018 202.067 69.5508 201.17C68.4167 200.256 67.5195 199.198 66.8594 197.996C66.2161 196.794 65.8945 195.398 65.8945 193.807C65.8945 192.266 66.2331 190.87 66.9102 189.617C67.5872 188.348 68.5352 187.264 69.7539 186.367C70.9727 185.453 72.4115 184.751 74.0703 184.26C75.7461 183.769 77.5827 183.523 79.5801 183.523C82.3053 183.523 84.6836 184.014 86.7148 184.996C88.7461 185.978 90.3203 187.324 91.4375 189.033C92.5716 190.743 93.1387 192.698 93.1387 194.898H85.5723C85.5723 193.815 85.3438 192.867 84.8867 192.055C84.4466 191.225 83.7695 190.574 82.8555 190.1C81.9583 189.626 80.8242 189.389 79.4531 189.389C78.1328 189.389 77.0326 189.592 76.1523 189.998C75.2721 190.387 74.612 190.921 74.1719 191.598C73.7318 192.258 73.5117 193.003 73.5117 193.832C73.5117 194.458 73.6641 195.025 73.9688 195.533C74.2904 196.041 74.7643 196.515 75.3906 196.955C76.0169 197.395 76.7871 197.81 77.7012 198.199C78.6152 198.589 79.6732 198.969 80.875 199.342C82.8893 199.951 84.6582 200.637 86.1816 201.398C87.722 202.16 89.0085 203.015 90.041 203.963C91.0736 204.911 91.8522 205.986 92.377 207.188C92.9017 208.389 93.1641 209.752 93.1641 211.275C93.1641 212.883 92.8509 214.322 92.2246 215.592C91.5983 216.861 90.6927 217.936 89.5078 218.816C88.3229 219.697 86.9095 220.365 85.2676 220.822C83.6257 221.279 81.7891 221.508 79.7578 221.508C77.9297 221.508 76.127 221.271 74.3496 220.797C72.5723 220.306 70.9557 219.57 69.5 218.588C68.0612 217.606 66.9102 216.354 66.0469 214.83C65.1836 213.307 64.752 211.504 64.752 209.422H72.3945C72.3945 210.573 72.5723 211.546 72.9277 212.342C73.2832 213.137 73.7826 213.781 74.4258 214.271C75.0859 214.762 75.8646 215.118 76.7617 215.338C77.6758 215.558 78.6745 215.668 79.7578 215.668C81.0781 215.668 82.1615 215.482 83.0078 215.109C83.8711 214.737 84.5059 214.221 84.9121 213.561C85.3353 212.9 85.5469 212.156 85.5469 211.326Z" fill="black"/>
<path d="M197.487 156.625C200.532 156.625 203 159.093 203 162.138C203 165.182 200.532 167.65 197.487 167.65H61.5127C58.4682 167.65 56 165.182 56 162.138C56.0001 159.093 58.4683 156.625 61.5127 156.625H66.1064V84.5312C66.1067 81.2177 68.7929 78.5312 72.1064 78.5312H92.75V34C92.7502 30.6865 95.4365 28.0001 98.75 28H160.25C163.563 28.0001 166.25 30.6865 166.25 34V100.581H185.976C189.289 100.581 191.975 103.268 191.976 106.581V156.625H197.487ZM82.8066 125.388C81.7023 125.388 80.807 126.283 80.8066 127.388V138.087C80.8066 139.191 81.7021 140.087 82.8066 140.087H93.5068C94.6111 140.087 95.5068 139.191 95.5068 138.087V127.388C95.5065 126.284 94.6109 125.388 93.5068 125.388H82.8066ZM109.45 125.388C108.346 125.388 107.451 126.283 107.45 127.388V138.087C107.45 139.191 108.346 140.087 109.45 140.087H120.15C121.255 140.087 122.15 139.191 122.15 138.087V127.388C122.15 126.284 121.255 125.388 120.15 125.388H109.45ZM137.932 125.388C136.827 125.388 135.932 126.283 135.932 127.388V138.087C135.932 139.191 136.827 140.087 137.932 140.087H148.632C149.736 140.087 150.632 139.191 150.632 138.087V127.388C150.632 126.284 149.736 125.388 148.632 125.388H137.932ZM164.575 125.388C163.471 125.388 162.576 126.283 162.575 127.388V138.087C162.575 139.191 163.471 140.087 164.575 140.087H175.275C176.38 140.087 177.275 139.191 177.275 138.087V127.388C177.275 126.284 176.38 125.388 175.275 125.388H164.575ZM82.8066 98.7432C81.7024 98.7432 80.8072 99.639 80.8066 100.743V111.443C80.8066 112.548 81.7021 113.443 82.8066 113.443H93.5068C94.6111 113.443 95.5068 112.548 95.5068 111.443V100.743C95.5063 99.6392 94.6108 98.7435 93.5068 98.7432H82.8066ZM109.45 98.7432C108.346 98.7433 107.451 99.6391 107.45 100.743V111.443C107.45 112.548 108.346 113.443 109.45 113.443H120.15C121.255 113.443 122.15 112.548 122.15 111.443V100.743C122.15 99.6392 121.254 98.7434 120.15 98.7432H109.45ZM137.932 98.7432C136.827 98.7432 135.932 99.639 135.932 100.743V111.443C135.932 112.548 136.827 113.443 137.932 113.443H148.632C149.736 113.443 150.632 112.548 150.632 111.443V100.743C150.631 99.6392 149.736 98.7435 148.632 98.7432H137.932ZM109.45 72.0996C108.346 72.0997 107.451 72.9955 107.45 74.0996V84.7998C107.45 85.9043 108.346 86.7997 109.45 86.7998H120.15C121.255 86.7996 122.15 85.9042 122.15 84.7998V74.0996C122.15 72.9955 121.255 72.0998 120.15 72.0996H109.45ZM137.932 72.0996C136.827 72.0996 135.932 72.9954 135.932 74.0996V84.7998C135.932 85.9044 136.827 86.7998 137.932 86.7998H148.632C149.736 86.7995 150.632 85.9042 150.632 84.7998V74.0996C150.631 72.9956 149.736 72.0999 148.632 72.0996H137.932ZM109.45 45.4561C108.346 45.4562 107.451 46.3518 107.45 47.4561V58.1562C107.45 59.2607 108.346 60.1561 109.45 60.1562H120.15C121.255 60.156 122.15 59.2606 122.15 58.1562V47.4561C122.15 46.3519 121.255 45.4563 120.15 45.4561H109.45ZM137.932 45.4561C136.827 45.4561 135.932 46.3518 135.932 47.4561V58.1562C135.932 59.2607 136.827 60.1562 137.932 60.1562H148.632C149.736 60.1559 150.632 59.2605 150.632 58.1562V47.4561C150.632 46.352 149.736 45.4564 148.632 45.4561H137.932Z" fill="black"/>
</svg>
