<svg width="260" height="260" viewBox="0 0 260 260" fill="none" xmlns="http://www.w3.org/2000/svg">
<path d="M0 24C0 10.7452 10.7452 0 24 0H236C249.255 0 260 10.7452 260 24V236C260 249.255 249.255 260 236 260H24C10.7452 260 0 249.255 0 236V24Z" fill="#D0ECF7"/>
<path d="M236 251V260H24V251H236ZM251 236V24C251 15.7157 244.284 9 236 9H24C15.7157 9 9 15.7157 9 24V236C9 244.284 15.7157 251 24 251V260L23.3809 259.992C10.6179 259.669 0.331002 249.382 0.0078125 236.619L0 236V24C0 10.7452 10.7452 2.73809e-07 24 0H236C249.255 0 260 10.7452 260 24V236C260 249.048 249.588 259.664 236.619 259.992L236 260V251C244.284 251 251 244.284 251 236Z" fill="black"/>
<path d="M177.857 213.408C177.857 212.883 177.705 212.41 177.4 211.986C177.096 211.563 176.529 211.174 175.699 210.818C174.887 210.446 173.71 210.107 172.17 209.803C170.782 209.498 169.487 209.117 168.285 208.66C167.1 208.186 166.068 207.619 165.188 206.959C164.324 206.299 163.647 205.52 163.156 204.623C162.665 203.709 162.42 202.668 162.42 201.5C162.42 200.349 162.665 199.266 163.156 198.25C163.664 197.234 164.383 196.337 165.314 195.559C166.262 194.763 167.413 194.145 168.768 193.705C170.139 193.248 171.679 193.02 173.389 193.02C175.775 193.02 177.824 193.4 179.533 194.162C181.26 194.924 182.58 195.973 183.494 197.311C184.425 198.631 184.891 200.137 184.891 201.83H177.578C177.578 201.119 177.426 200.484 177.121 199.926C176.833 199.35 176.376 198.902 175.75 198.58C175.141 198.242 174.345 198.072 173.363 198.072C172.551 198.072 171.848 198.216 171.256 198.504C170.663 198.775 170.206 199.147 169.885 199.621C169.58 200.078 169.428 200.586 169.428 201.145C169.428 201.568 169.512 201.949 169.682 202.287C169.868 202.609 170.164 202.905 170.57 203.176C170.977 203.447 171.501 203.701 172.145 203.938C172.805 204.158 173.617 204.361 174.582 204.547C176.562 204.953 178.331 205.486 179.889 206.146C181.446 206.79 182.682 207.67 183.596 208.787C184.51 209.887 184.967 211.335 184.967 213.129C184.967 214.348 184.696 215.465 184.154 216.48C183.613 217.496 182.834 218.385 181.818 219.146C180.803 219.891 179.584 220.475 178.162 220.898C176.757 221.305 175.174 221.508 173.414 221.508C170.858 221.508 168.691 221.051 166.914 220.137C165.154 219.223 163.816 218.063 162.902 216.658C162.005 215.236 161.557 213.781 161.557 212.291H168.488C168.522 213.29 168.776 214.094 169.25 214.703C169.741 215.312 170.359 215.753 171.104 216.023C171.865 216.294 172.686 216.43 173.566 216.43C174.514 216.43 175.301 216.303 175.928 216.049C176.554 215.778 177.028 215.423 177.35 214.982C177.688 214.525 177.857 214.001 177.857 213.408Z" fill="black"/>
<path d="M151.146 213.408C151.146 212.883 150.994 212.41 150.689 211.986C150.385 211.563 149.818 211.174 148.988 210.818C148.176 210.446 146.999 210.107 145.459 209.803C144.071 209.498 142.776 209.117 141.574 208.66C140.389 208.186 139.357 207.619 138.477 206.959C137.613 206.299 136.936 205.52 136.445 204.623C135.954 203.709 135.709 202.668 135.709 201.5C135.709 200.349 135.954 199.266 136.445 198.25C136.953 197.234 137.673 196.337 138.604 195.559C139.551 194.763 140.702 194.145 142.057 193.705C143.428 193.248 144.968 193.02 146.678 193.02C149.064 193.02 151.113 193.4 152.822 194.162C154.549 194.924 155.869 195.973 156.783 197.311C157.714 198.631 158.18 200.137 158.18 201.83H150.867C150.867 201.119 150.715 200.484 150.41 199.926C150.122 199.35 149.665 198.902 149.039 198.58C148.43 198.242 147.634 198.072 146.652 198.072C145.84 198.072 145.137 198.216 144.545 198.504C143.952 198.775 143.495 199.147 143.174 199.621C142.869 200.078 142.717 200.586 142.717 201.145C142.717 201.568 142.801 201.949 142.971 202.287C143.157 202.609 143.453 202.905 143.859 203.176C144.266 203.447 144.79 203.701 145.434 203.938C146.094 204.158 146.906 204.361 147.871 204.547C149.852 204.953 151.62 205.486 153.178 206.146C154.735 206.79 155.971 207.67 156.885 208.787C157.799 209.887 158.256 211.335 158.256 213.129C158.256 214.348 157.985 215.465 157.443 216.48C156.902 217.496 156.123 218.385 155.107 219.146C154.092 219.891 152.873 220.475 151.451 220.898C150.046 221.305 148.464 221.508 146.703 221.508C144.147 221.508 141.98 221.051 140.203 220.137C138.443 219.223 137.105 218.063 136.191 216.658C135.294 215.236 134.846 213.781 134.846 212.291H141.777C141.811 213.29 142.065 214.094 142.539 214.703C143.03 215.312 143.648 215.753 144.393 216.023C145.154 216.294 145.975 216.43 146.855 216.43C147.803 216.43 148.59 216.303 149.217 216.049C149.843 215.778 150.317 215.423 150.639 214.982C150.977 214.525 151.146 214.001 151.146 213.408Z" fill="black"/>
<path d="M123.395 214.424V193.527H130.707V221H123.826L123.395 214.424ZM124.207 208.787L126.365 208.736C126.365 210.564 126.154 212.266 125.73 213.84C125.307 215.397 124.673 216.751 123.826 217.902C122.98 219.036 121.913 219.925 120.627 220.568C119.34 221.195 117.826 221.508 116.082 221.508C114.745 221.508 113.509 221.322 112.375 220.949C111.258 220.56 110.293 219.959 109.48 219.146C108.685 218.317 108.059 217.259 107.602 215.973C107.161 214.669 106.941 213.104 106.941 211.275V193.527H114.254V211.326C114.254 212.139 114.347 212.824 114.533 213.383C114.736 213.941 115.016 214.398 115.371 214.754C115.727 215.109 116.141 215.363 116.615 215.516C117.106 215.668 117.648 215.744 118.24 215.744C119.747 215.744 120.932 215.439 121.795 214.83C122.675 214.221 123.293 213.391 123.648 212.342C124.021 211.275 124.207 210.09 124.207 208.787Z" fill="black"/>
<path d="M101.102 182V221H93.7637V182H101.102Z" fill="black"/>
<path d="M72.918 184.031V221H65.3008V184.031H72.918ZM87.6445 199.824V205.766H70.8359V199.824H87.6445ZM89.4219 184.031V189.998H70.8359V184.031H89.4219Z" fill="black"/>
<path d="M209.126 104.018C216.506 103.402 221.787 106.053 225.179 108.96C226.839 110.383 228.024 111.843 228.803 112.961C229.194 113.523 229.489 114.009 229.696 114.373C229.8 114.556 229.882 114.709 229.943 114.827C229.974 114.887 230 114.937 230.021 114.979C230.031 114.999 230.039 115.018 230.047 115.034C230.051 115.042 230.054 115.05 230.058 115.057C230.059 115.06 230.061 115.064 230.062 115.067C230.063 115.068 230.064 115.071 230.064 115.072C230.065 115.074 230.067 115.076 226 117.002L230.067 115.076C231.131 117.322 230.172 120.005 227.926 121.069C225.75 122.099 223.164 121.232 222.037 119.135L221.946 118.955C221.95 118.962 221.952 118.967 221.953 118.97C221.952 118.969 221.951 118.967 221.95 118.964C221.94 118.944 221.913 118.894 221.87 118.819C221.784 118.667 221.634 118.418 221.416 118.105C220.976 117.473 220.286 116.619 219.321 115.792C217.463 114.199 214.494 112.601 209.874 112.987C208.036 113.14 206.048 114.017 203.612 115.763C201.127 117.545 198.698 119.827 195.712 122.477C190.074 127.48 182.747 133.567 172.693 133.998C162.259 134.446 155.06 127.647 149.385 122.55C143.211 117.006 138.363 112.933 131.545 113.002C124.701 113.071 120.021 117.139 114.102 122.612C108.634 127.666 101.697 134.399 91.3262 133.998C81.1735 133.606 74.3782 127.025 69.1143 122.028C63.3442 116.549 59.3881 113.002 54 113.002C48.0917 113.002 44.2334 115.697 41.7314 118.499C40.4596 119.924 39.5601 121.361 38.9824 122.44C38.696 122.974 38.4955 123.408 38.373 123.691C38.312 123.832 38.2703 123.934 38.248 123.99C38.2428 124.004 38.2385 124.015 38.2354 124.023L38.2363 124.02C37.3988 126.358 34.8254 127.575 32.4863 126.74C30.1461 125.904 28.926 123.329 29.7617 120.989L33.8252 122.44C29.8804 121.031 29.7663 120.988 29.7637 120.985C29.7639 120.984 29.7651 120.981 29.7656 120.98C29.7667 120.977 29.7673 120.973 29.7686 120.97L29.8008 120.884C29.8189 120.836 29.8419 120.774 29.8711 120.699C29.9294 120.551 30.0103 120.352 30.1152 120.11C30.3248 119.627 30.6324 118.967 31.0488 118.19C31.8773 116.643 33.1655 114.581 35.0186 112.505C38.7666 108.307 44.9084 104.002 54 104.002C63.6119 104.002 70.1897 110.637 75.3115 115.5C80.9393 120.844 85.3939 124.762 91.6738 125.005C97.7352 125.239 101.979 121.563 107.992 116.003C113.553 110.862 120.657 104.111 131.455 104.002C142.279 103.893 149.631 110.676 155.397 115.855C161.662 121.48 166.142 125.27 172.307 125.006C178.852 124.725 184.026 120.813 189.738 115.744C192.427 113.358 195.386 110.587 198.369 108.448C201.401 106.275 204.964 104.365 209.126 104.018ZM38.2354 124.023L38.2305 124.037L38.2295 124.039L38.2354 124.023Z" fill="black"/>
<path d="M209.126 64.5899C216.506 63.9737 221.787 66.6251 225.179 69.5322C226.839 70.9553 228.024 72.4149 228.803 73.5332C229.194 74.0953 229.489 74.581 229.696 74.9453C229.8 75.1277 229.882 75.2808 229.943 75.3994C229.974 75.4587 230 75.5092 230.021 75.5508C230.031 75.5715 230.039 75.5904 230.047 75.6065C230.051 75.6144 230.054 75.6221 230.058 75.6289C230.059 75.6322 230.061 75.6357 230.062 75.6387C230.063 75.6401 230.064 75.6426 230.064 75.6436C230.065 75.6458 230.067 75.6482 226 77.5742L230.067 75.6485C231.131 77.8945 230.172 80.577 227.926 81.6406C225.75 82.6711 223.164 81.8043 222.037 79.707L221.946 79.5274C221.95 79.534 221.952 79.5391 221.953 79.542C221.952 79.5405 221.951 79.5385 221.95 79.5361C221.94 79.5161 221.913 79.466 221.87 79.3906C221.784 79.2392 221.634 78.9898 221.416 78.6768C220.976 78.0448 220.286 77.1914 219.321 76.3643C217.463 74.771 214.494 73.1728 209.874 73.5586C208.036 73.7122 206.048 74.5887 203.612 76.335C201.127 78.1167 198.698 80.3995 195.712 83.0488C190.074 88.0517 182.747 94.1388 172.693 94.5703C162.259 95.018 155.06 88.2187 149.385 83.1221C143.211 77.5779 138.363 73.5054 131.545 73.5742C124.701 73.6435 120.021 77.7108 114.102 83.1836C108.634 88.2384 101.697 94.9713 91.3262 94.5703C81.1735 94.1778 74.3782 87.5974 69.1143 82.5996C63.3442 77.1213 59.3881 73.5742 54 73.5742C48.0917 73.5742 44.2334 76.2692 41.7314 79.0713C40.4596 80.4958 39.5601 81.9333 38.9824 83.0117C38.696 83.5464 38.4955 83.9803 38.373 84.2627C38.312 84.4036 38.2703 84.506 38.248 84.5625C38.2428 84.5759 38.2385 84.5866 38.2354 84.5947L38.2363 84.5918C37.3988 86.9295 34.8254 88.1469 32.4863 87.3115C30.1461 86.4756 28.926 83.9009 29.7617 81.5606L33.8252 83.0117C29.8804 81.6028 29.7663 81.5598 29.7637 81.5567C29.7639 81.5559 29.7651 81.5533 29.7656 81.5518C29.7667 81.5488 29.7673 81.5454 29.7686 81.542L29.8008 81.4561C29.8189 81.4077 29.8419 81.3457 29.8711 81.2715C29.9294 81.123 30.0103 80.9236 30.1152 80.6817C30.3248 80.1985 30.6324 79.5392 31.0488 78.7617C31.8773 77.2152 33.1655 75.1526 35.0186 73.0772C38.7666 68.8793 44.9084 64.5742 54 64.5742C63.6119 64.5742 70.1897 71.2094 75.3115 76.0723C80.9393 81.4156 85.3939 85.3343 91.6738 85.5772C97.7352 85.8115 101.979 82.1347 107.992 76.5752C113.553 71.4339 120.657 64.6832 131.455 64.5742C142.279 64.4652 149.631 71.2485 155.397 76.4268C161.662 82.0525 166.142 85.8424 172.307 85.5781C178.852 85.2974 184.026 81.3849 189.738 76.3164C192.427 73.9302 195.386 71.1588 198.369 69.0205C201.401 66.8469 204.964 64.9374 209.126 64.5899ZM38.2354 84.5947L38.2305 84.6094L38.2295 84.6113L38.2354 84.5947Z" fill="black"/>
</svg>
