<svg width="260" height="260" viewBox="0 0 260 260" fill="none" xmlns="http://www.w3.org/2000/svg">
<path d="M0 24C0 10.7452 10.7452 0 24 0H236C249.255 0 260 10.7452 260 24V236C260 249.255 249.255 260 236 260H24C10.7452 260 0 249.255 0 236V24Z" fill="#FBEBEA"/>
<path d="M236 251V260H24V251H236ZM251 236V24C251 15.7157 244.284 9 236 9H24C15.7157 9 9 15.7157 9 24V236C9 244.284 15.7157 251 24 251V260L23.3809 259.992C10.6179 259.669 0.331002 249.382 0.0078125 236.619L0 236V24C0 10.7452 10.7452 2.73809e-07 24 0H236C249.255 0 260 10.7452 260 24V236C260 249.048 249.588 259.664 236.619 259.992L236 260V251C244.284 251 251 244.284 251 236Z" fill="black"/>
<path d="M187.074 221.508C184.941 221.508 183.029 221.169 181.336 220.492C179.643 219.798 178.204 218.842 177.02 217.623C175.852 216.404 174.954 214.991 174.328 213.383C173.702 211.758 173.389 210.031 173.389 208.203V207.188C173.389 205.105 173.685 203.201 174.277 201.475C174.87 199.748 175.716 198.25 176.816 196.98C177.934 195.711 179.288 194.738 180.879 194.061C182.47 193.367 184.264 193.02 186.262 193.02C188.208 193.02 189.935 193.341 191.441 193.984C192.948 194.628 194.209 195.542 195.225 196.727C196.257 197.911 197.036 199.333 197.561 200.992C198.085 202.634 198.348 204.462 198.348 206.477V209.523H176.512V204.648H191.162V204.09C191.162 203.074 190.976 202.169 190.604 201.373C190.248 200.561 189.706 199.917 188.979 199.443C188.251 198.969 187.32 198.732 186.186 198.732C185.221 198.732 184.391 198.944 183.697 199.367C183.003 199.79 182.436 200.383 181.996 201.145C181.573 201.906 181.251 202.803 181.031 203.836C180.828 204.852 180.727 205.969 180.727 207.188V208.203C180.727 209.303 180.879 210.319 181.184 211.25C181.505 212.181 181.954 212.985 182.529 213.662C183.122 214.339 183.833 214.864 184.662 215.236C185.508 215.609 186.465 215.795 187.531 215.795C188.852 215.795 190.079 215.541 191.213 215.033C192.364 214.508 193.354 213.721 194.184 212.672L197.738 216.531C197.163 217.361 196.376 218.156 195.377 218.918C194.395 219.68 193.21 220.306 191.822 220.797C190.434 221.271 188.852 221.508 187.074 221.508Z" fill="black"/>
<path d="M136.699 199.215V221H129.361V193.527H136.242L136.699 199.215ZM135.684 206.299H133.652C133.652 204.386 133.881 202.626 134.338 201.018C134.812 199.393 135.497 197.988 136.395 196.803C137.309 195.601 138.434 194.67 139.771 194.01C141.109 193.35 142.658 193.02 144.418 193.02C145.637 193.02 146.754 193.206 147.77 193.578C148.785 193.934 149.657 194.501 150.385 195.279C151.13 196.041 151.705 197.04 152.111 198.275C152.518 199.494 152.721 200.958 152.721 202.668V221H145.408V203.48C145.408 202.228 145.239 201.263 144.9 200.586C144.562 199.909 144.079 199.435 143.453 199.164C142.844 198.893 142.107 198.758 141.244 198.758C140.296 198.758 139.467 198.952 138.756 199.342C138.062 199.731 137.486 200.273 137.029 200.967C136.572 201.644 136.234 202.439 136.014 203.354C135.794 204.268 135.684 205.249 135.684 206.299ZM152.035 205.461L149.42 205.791C149.42 203.997 149.64 202.329 150.08 200.789C150.537 199.249 151.206 197.895 152.086 196.727C152.983 195.559 154.092 194.653 155.412 194.01C156.732 193.35 158.256 193.02 159.982 193.02C161.303 193.02 162.505 193.214 163.588 193.604C164.671 193.976 165.594 194.577 166.355 195.406C167.134 196.219 167.727 197.285 168.133 198.605C168.556 199.926 168.768 201.542 168.768 203.455V221H161.43V203.455C161.43 202.186 161.26 201.221 160.922 200.561C160.6 199.883 160.126 199.418 159.5 199.164C158.891 198.893 158.163 198.758 157.316 198.758C156.436 198.758 155.666 198.936 155.006 199.291C154.346 199.63 153.796 200.104 153.355 200.713C152.915 201.322 152.585 202.033 152.365 202.846C152.145 203.641 152.035 204.513 152.035 205.461Z" fill="black"/>
<path d="M116.387 214.805V202.566C116.387 201.686 116.243 200.933 115.955 200.307C115.667 199.663 115.219 199.164 114.609 198.809C114.017 198.453 113.247 198.275 112.299 198.275C111.486 198.275 110.784 198.419 110.191 198.707C109.599 198.978 109.142 199.376 108.82 199.9C108.499 200.408 108.338 201.009 108.338 201.703H101.025C101.025 200.535 101.296 199.426 101.838 198.377C102.38 197.327 103.167 196.405 104.199 195.609C105.232 194.797 106.459 194.162 107.881 193.705C109.32 193.248 110.928 193.02 112.705 193.02C114.838 193.02 116.734 193.375 118.393 194.086C120.051 194.797 121.355 195.863 122.303 197.285C123.268 198.707 123.75 200.484 123.75 202.617V214.373C123.75 215.88 123.843 217.115 124.029 218.08C124.215 219.028 124.486 219.857 124.842 220.568V221H117.453C117.098 220.255 116.827 219.324 116.641 218.207C116.471 217.073 116.387 215.939 116.387 214.805ZM117.352 204.268L117.402 208.406H113.314C112.35 208.406 111.512 208.516 110.801 208.736C110.09 208.956 109.506 209.27 109.049 209.676C108.592 210.065 108.253 210.522 108.033 211.047C107.83 211.572 107.729 212.147 107.729 212.773C107.729 213.4 107.872 213.967 108.16 214.475C108.448 214.965 108.863 215.355 109.404 215.643C109.946 215.913 110.581 216.049 111.309 216.049C112.409 216.049 113.365 215.829 114.178 215.389C114.99 214.949 115.617 214.407 116.057 213.764C116.514 213.12 116.751 212.511 116.768 211.936L118.697 215.033C118.426 215.727 118.054 216.447 117.58 217.191C117.123 217.936 116.539 218.639 115.828 219.299C115.117 219.942 114.262 220.475 113.264 220.898C112.265 221.305 111.08 221.508 109.709 221.508C107.965 221.508 106.383 221.161 104.961 220.467C103.556 219.756 102.439 218.783 101.609 217.547C100.797 216.294 100.391 214.872 100.391 213.281C100.391 211.842 100.661 210.564 101.203 209.447C101.745 208.33 102.54 207.391 103.59 206.629C104.656 205.85 105.985 205.266 107.576 204.877C109.167 204.471 111.012 204.268 113.111 204.268H117.352Z" fill="black"/>
<path d="M95.3887 184.031V221H87.7715L72.918 196.219V221H65.3008V184.031H72.918L87.7969 208.838V184.031H95.3887Z" fill="black"/>
<path d="M76.0996 136.219C82.7241 118.754 100.792 109.287 110.869 105.999C111.909 105.66 113.02 105.831 113.975 106.363C116.787 107.925 122.194 110.271 133.381 110.271C141.73 110.271 146.573 108.302 148.867 106.997C149.965 106.372 151.238 105.99 152.463 106.298C158.653 107.854 178.094 114.125 188.562 133.394C194.109 143.603 194.827 154.105 194.521 158.065C180.87 168.042 153.324 170 131.912 170C110.5 170 82 166 72.183 159.229C72.183 159.229 70.7142 150.417 76.0996 136.219Z" fill="#181818"/>
<path d="M168.751 65.3497C168.751 85.4251 152.477 101.699 132.402 101.699C112.326 101.699 96.052 85.4251 96.052 65.3497C96.052 45.2743 112.326 29 132.402 29C152.477 29 168.751 45.2743 168.751 65.3497Z" fill="#181818"/>
</svg>
