<svg width="260" height="260" viewBox="0 0 260 260" fill="none" xmlns="http://www.w3.org/2000/svg">
<path d="M0 24C0 10.7452 10.7452 0 24 0H236C249.255 0 260 10.7452 260 24V236C260 249.255 249.255 260 236 260H24C10.7452 260 0 249.255 0 236V24Z" fill="#FEE04B"/>
<path d="M236 251V260H24V251H236ZM251 236V24C251 15.7157 244.284 9 236 9H24C15.7157 9 9 15.7157 9 24V236C9 244.284 15.7157 251 24 251V260L23.3809 259.992C10.6179 259.669 0.331002 249.382 0.0078125 236.619L0 236V24C0 10.7452 10.7452 2.73809e-07 24 0H236C249.255 0 260 10.7452 260 24V236C260 249.048 249.588 259.664 236.619 259.992L236 260V251C244.284 251 251 244.284 251 236Z" fill="black"/>
<path d="M222.672 193.527V198.707H206.676V193.527H222.672ZM210.637 186.748H217.949V212.723C217.949 213.518 218.051 214.128 218.254 214.551C218.474 214.974 218.796 215.27 219.219 215.439C219.642 215.592 220.175 215.668 220.818 215.668C221.275 215.668 221.682 215.651 222.037 215.617C222.41 215.566 222.723 215.516 222.977 215.465L223.002 220.848C222.376 221.051 221.699 221.212 220.971 221.33C220.243 221.449 219.439 221.508 218.559 221.508C216.951 221.508 215.546 221.245 214.344 220.721C213.159 220.179 212.245 219.316 211.602 218.131C210.958 216.946 210.637 215.389 210.637 213.459V186.748Z" fill="black"/>
<path d="M178.695 207.543V207.01C178.695 204.995 178.983 203.142 179.559 201.449C180.134 199.74 180.972 198.258 182.072 197.006C183.173 195.753 184.527 194.78 186.135 194.086C187.743 193.375 189.588 193.02 191.67 193.02C193.752 193.02 195.605 193.375 197.23 194.086C198.855 194.78 200.218 195.753 201.318 197.006C202.436 198.258 203.282 199.74 203.857 201.449C204.433 203.142 204.721 204.995 204.721 207.01V207.543C204.721 209.54 204.433 211.394 203.857 213.104C203.282 214.796 202.436 216.277 201.318 217.547C200.218 218.799 198.864 219.773 197.256 220.467C195.648 221.161 193.803 221.508 191.721 221.508C189.639 221.508 187.785 221.161 186.16 220.467C184.552 219.773 183.189 218.799 182.072 217.547C180.972 216.277 180.134 214.796 179.559 213.104C178.983 211.394 178.695 209.54 178.695 207.543ZM186.008 207.01V207.543C186.008 208.694 186.109 209.769 186.312 210.768C186.516 211.766 186.837 212.646 187.277 213.408C187.734 214.153 188.327 214.737 189.055 215.16C189.783 215.583 190.671 215.795 191.721 215.795C192.736 215.795 193.608 215.583 194.336 215.16C195.064 214.737 195.648 214.153 196.088 213.408C196.528 212.646 196.85 211.766 197.053 210.768C197.273 209.769 197.383 208.694 197.383 207.543V207.01C197.383 205.893 197.273 204.843 197.053 203.861C196.85 202.863 196.52 201.982 196.062 201.221C195.622 200.442 195.038 199.833 194.311 199.393C193.583 198.952 192.702 198.732 191.67 198.732C190.637 198.732 189.757 198.952 189.029 199.393C188.318 199.833 187.734 200.442 187.277 201.221C186.837 201.982 186.516 202.863 186.312 203.861C186.109 204.843 186.008 205.893 186.008 207.01Z" fill="black"/>
<path d="M157.926 198.809V231.562H150.613V193.527H157.393L157.926 198.809ZM175.318 206.959V207.492C175.318 209.49 175.081 211.343 174.607 213.053C174.15 214.762 173.473 216.252 172.576 217.521C171.679 218.774 170.562 219.756 169.225 220.467C167.904 221.161 166.381 221.508 164.654 221.508C162.979 221.508 161.523 221.169 160.287 220.492C159.051 219.815 158.01 218.867 157.164 217.648C156.335 216.413 155.666 214.982 155.158 213.357C154.65 211.732 154.261 209.989 153.99 208.127V206.73C154.261 204.733 154.65 202.905 155.158 201.246C155.666 199.57 156.335 198.123 157.164 196.904C158.01 195.669 159.043 194.712 160.262 194.035C161.497 193.358 162.945 193.02 164.604 193.02C166.347 193.02 167.879 193.35 169.199 194.01C170.536 194.67 171.654 195.618 172.551 196.854C173.465 198.089 174.15 199.562 174.607 201.271C175.081 202.981 175.318 204.877 175.318 206.959ZM167.98 207.492V206.959C167.98 205.791 167.879 204.716 167.676 203.734C167.49 202.736 167.185 201.864 166.762 201.119C166.355 200.374 165.814 199.799 165.137 199.393C164.477 198.969 163.673 198.758 162.725 198.758C161.726 198.758 160.871 198.919 160.16 199.24C159.466 199.562 158.899 200.027 158.459 200.637C158.019 201.246 157.689 201.974 157.469 202.82C157.249 203.667 157.113 204.623 157.062 205.689V209.219C157.147 210.471 157.384 211.597 157.773 212.596C158.163 213.577 158.764 214.356 159.576 214.932C160.389 215.507 161.455 215.795 162.775 215.795C163.74 215.795 164.553 215.583 165.213 215.16C165.873 214.72 166.406 214.119 166.812 213.357C167.236 212.596 167.532 211.715 167.701 210.717C167.887 209.718 167.98 208.643 167.98 207.492Z" fill="black"/>
<path d="M130.148 181.975V221H122.836V181.975H130.148ZM147.465 193.527L135.531 207.137L129.133 213.611L126.467 208.33L131.545 201.881L138.68 193.527H147.465ZM139.873 221L131.748 208.305L136.801 203.887L148.303 221H139.873Z" fill="black"/>
<path d="M107.068 215.795C107.965 215.795 108.761 215.626 109.455 215.287C110.149 214.932 110.691 214.441 111.08 213.814C111.486 213.171 111.698 212.418 111.715 211.555H118.596C118.579 213.484 118.062 215.202 117.047 216.709C116.031 218.199 114.669 219.375 112.959 220.238C111.249 221.085 109.337 221.508 107.221 221.508C105.088 221.508 103.226 221.152 101.635 220.441C100.061 219.73 98.7487 218.749 97.6992 217.496C96.6497 216.227 95.8626 214.754 95.3379 213.078C94.8132 211.385 94.5508 209.574 94.5508 207.645V206.908C94.5508 204.962 94.8132 203.15 95.3379 201.475C95.8626 199.782 96.6497 198.309 97.6992 197.057C98.7487 195.787 100.061 194.797 101.635 194.086C103.209 193.375 105.054 193.02 107.17 193.02C109.421 193.02 111.393 193.451 113.086 194.314C114.796 195.178 116.133 196.413 117.098 198.021C118.079 199.613 118.579 201.5 118.596 203.684H111.715C111.698 202.77 111.503 201.94 111.131 201.195C110.775 200.451 110.251 199.858 109.557 199.418C108.88 198.961 108.042 198.732 107.043 198.732C105.977 198.732 105.105 198.961 104.428 199.418C103.751 199.858 103.226 200.467 102.854 201.246C102.481 202.008 102.219 202.88 102.066 203.861C101.931 204.826 101.863 205.842 101.863 206.908V207.645C101.863 208.711 101.931 209.735 102.066 210.717C102.202 211.699 102.456 212.57 102.828 213.332C103.217 214.094 103.751 214.695 104.428 215.135C105.105 215.575 105.985 215.795 107.068 215.795Z" fill="black"/>
<path d="M82.7188 214.805V202.566C82.7188 201.686 82.5749 200.933 82.2871 200.307C81.9993 199.663 81.5508 199.164 80.9414 198.809C80.349 198.453 79.5788 198.275 78.6309 198.275C77.8184 198.275 77.1159 198.419 76.5234 198.707C75.931 198.978 75.474 199.376 75.1523 199.9C74.8307 200.408 74.6699 201.009 74.6699 201.703H67.3574C67.3574 200.535 67.6283 199.426 68.1699 198.377C68.7116 197.327 69.4987 196.405 70.5312 195.609C71.5638 194.797 72.791 194.162 74.2129 193.705C75.6517 193.248 77.2598 193.02 79.0371 193.02C81.1699 193.02 83.0658 193.375 84.7246 194.086C86.3835 194.797 87.6868 195.863 88.6348 197.285C89.5996 198.707 90.082 200.484 90.082 202.617V214.373C90.082 215.88 90.1751 217.115 90.3613 218.08C90.5475 219.028 90.8184 219.857 91.1738 220.568V221H83.7852C83.4297 220.255 83.1589 219.324 82.9727 218.207C82.8034 217.073 82.7188 215.939 82.7188 214.805ZM83.6836 204.268L83.7344 208.406H79.6465C78.6816 208.406 77.8438 208.516 77.1328 208.736C76.4219 208.956 75.8379 209.27 75.3809 209.676C74.9238 210.065 74.5853 210.522 74.3652 211.047C74.1621 211.572 74.0605 212.147 74.0605 212.773C74.0605 213.4 74.2044 213.967 74.4922 214.475C74.7799 214.965 75.1947 215.355 75.7363 215.643C76.278 215.913 76.9128 216.049 77.6406 216.049C78.7409 216.049 79.6973 215.829 80.5098 215.389C81.3223 214.949 81.9486 214.407 82.3887 213.764C82.8457 213.12 83.0827 212.511 83.0996 211.936L85.0293 215.033C84.7585 215.727 84.3861 216.447 83.9121 217.191C83.4551 217.936 82.8711 218.639 82.1602 219.299C81.4492 219.942 80.5944 220.475 79.5957 220.898C78.597 221.305 77.4121 221.508 76.041 221.508C74.2975 221.508 72.7148 221.161 71.293 220.467C69.888 219.756 68.7708 218.783 67.9414 217.547C67.1289 216.294 66.7227 214.872 66.7227 213.281C66.7227 211.842 66.9935 210.564 67.5352 209.447C68.0768 208.33 68.8724 207.391 69.9219 206.629C70.9883 205.85 72.3171 205.266 73.9082 204.877C75.4993 204.471 77.3444 204.268 79.4434 204.268H83.6836Z" fill="black"/>
<path d="M54.2559 209.65V184.031H61.8477V209.65C61.8477 212.122 61.306 214.246 60.2227 216.023C59.1393 217.784 57.6582 219.138 55.7793 220.086C53.9173 221.034 51.8184 221.508 49.4824 221.508C47.0618 221.508 44.9206 221.102 43.0586 220.289C41.1966 219.477 39.7324 218.232 38.666 216.557C37.5996 214.864 37.0664 212.723 37.0664 210.133H44.709C44.709 211.487 44.8952 212.562 45.2676 213.357C45.6569 214.153 46.207 214.72 46.918 215.059C47.6289 215.397 48.4837 215.566 49.4824 215.566C50.4473 215.566 51.2852 215.338 51.9961 214.881C52.707 214.424 53.2572 213.755 53.6465 212.875C54.0527 211.995 54.2559 210.92 54.2559 209.65Z" fill="black"/>
<path d="M167.577 152.748C166.709 152.752 165.861 152.481 165.156 151.975L131.999 127.937L98.8421 151.975C98.1337 152.489 97.2804 152.764 96.4054 152.761C95.5303 152.758 94.6789 152.476 93.9744 151.957C93.2697 151.438 92.7485 150.709 92.4857 149.874C92.223 149.04 92.2326 148.143 92.5131 147.314L105.445 109.011L71.9295 86.0277C71.2036 85.5302 70.6557 84.8138 70.3659 83.9828C70.0761 83.152 70.0595 82.2503 70.3187 81.4093C70.5779 80.5684 71.0992 79.8325 71.8065 79.3092C72.5138 78.7856 73.3699 78.5018 74.2498 78.4996H115.597L128.075 40.0988C128.344 39.2698 128.869 38.5471 129.573 38.0346C130.278 37.5221 131.127 37.2461 131.999 37.2461C132.871 37.2461 133.72 37.5221 134.425 38.0346C135.13 38.5471 135.654 39.2698 135.923 40.0988L148.401 78.5125H189.748C190.629 78.5119 191.487 78.7938 192.197 79.316C192.906 79.8385 193.43 80.5747 193.69 81.4162C193.951 82.2577 193.936 83.1608 193.646 83.9927C193.357 84.8248 192.808 85.5423 192.081 86.0403L158.553 109.011L171.477 147.304C171.687 147.923 171.746 148.584 171.649 149.231C171.553 149.879 171.304 150.494 170.923 151.026C170.542 151.558 170.039 151.991 169.457 152.291C168.876 152.591 168.231 152.747 167.577 152.748Z" fill="black"/>
</svg>
