<svg width="260" height="260" viewBox="0 0 260 260" fill="none" xmlns="http://www.w3.org/2000/svg">
<path d="M0 24C0 10.7452 10.7452 0 24 0H236C249.255 0 260 10.7452 260 24V236C260 249.255 249.255 260 236 260H24C10.7452 260 0 249.255 0 236V24Z" fill="#D4EEC9"/>
<path d="M236 251V260H24V251H236ZM251 236V24C251 15.7157 244.284 9 236 9H24C15.7157 9 9 15.7157 9 24V236C9 244.284 15.7157 251 24 251V260L23.3809 259.992C10.6179 259.669 0.331002 249.382 0.0078125 236.619L0 236V24C0 10.7452 10.7452 2.73809e-07 24 0H236C249.255 0 260 10.7452 260 24V236C260 249.048 249.588 259.664 236.619 259.992L236 260V251C244.284 251 251 244.284 251 236Z" fill="black"/>
<g clip-path="url(#clip0_1_699)">
<path d="M60 101C60 82.4348 67.375 64.6301 80.5025 51.5025C93.6301 38.375 111.435 31 130 31C148.565 31 166.37 38.375 179.497 51.5025C192.625 64.6301 200 82.4348 200 101C200 119.565 192.625 137.37 179.497 150.497C166.37 163.625 148.565 171 130 171C111.435 171 93.6301 163.625 80.5025 150.497C67.375 137.37 60 119.565 60 101ZM125.625 40.4237C119.762 42.2087 113.944 47.5987 109.114 56.655C107.86 59.0058 106.708 61.5492 105.658 64.285C111.826 65.6587 118.537 66.5337 125.625 66.7962V40.4237ZM97.1787 61.9662C98.4271 58.6004 99.83 55.4563 101.388 52.5338C102.91 49.6788 104.657 46.949 106.611 44.37C99.161 47.455 92.3932 51.9807 86.6963 57.6875C89.8696 59.3033 93.3637 60.7237 97.1787 61.9662ZM90.7038 96.625C91.0188 87.2625 92.3487 78.3638 94.5187 70.305C89.7801 68.7963 85.1951 66.8422 80.825 64.4688C73.8543 73.8246 69.7177 84.986 68.9075 96.625H90.7038ZM102.954 72.6412C100.888 80.4785 99.7136 88.5241 99.4537 96.625H125.625V75.5462C117.662 75.2837 110.024 74.2775 102.954 72.6412ZM134.375 75.5375V96.625H160.537C160.28 88.5245 159.109 80.4789 157.046 72.6412C149.976 74.2775 142.338 75.2663 134.375 75.5375ZM99.4625 105.375C99.7688 114.011 101.003 122.122 102.954 129.359C110.4 127.668 117.992 126.698 125.625 126.463V105.375H99.4625ZM134.375 105.375V126.454C142.338 126.716 149.976 127.722 157.046 129.359C158.997 122.122 160.231 114.011 160.546 105.375H134.375ZM105.658 137.715C106.708 140.451 107.86 142.994 109.114 145.345C113.944 154.401 119.771 159.782 125.625 161.576V135.213C118.537 135.475 111.826 136.341 105.658 137.715ZM106.62 157.63C104.663 155.051 102.913 152.322 101.388 149.466C99.7793 146.415 98.3734 143.261 97.1787 140.025C93.5795 141.182 90.0749 142.616 86.6963 144.312C92.3932 150.019 99.1697 154.545 106.62 157.63ZM94.5187 131.695C92.25 123.095 90.9672 114.265 90.695 105.375H68.9075C69.7177 117.014 73.8543 128.175 80.825 137.531C84.9375 135.274 89.5312 133.314 94.5187 131.695ZM153.389 157.63C160.835 154.547 167.6 150.024 173.295 144.321C169.919 142.625 166.418 141.192 162.821 140.034C161.626 143.267 160.22 146.418 158.613 149.466C157.09 152.321 155.343 155.051 153.389 157.63ZM134.375 135.204V161.576C140.238 159.791 146.056 154.401 150.886 145.345C152.146 142.994 153.298 140.451 154.342 137.715C147.777 136.274 141.093 135.427 134.375 135.204ZM165.481 131.695C170.469 133.314 175.062 135.274 179.175 137.531C186.146 128.175 190.282 117.014 191.092 105.375H169.305C169.033 114.265 167.75 123.095 165.481 131.695ZM191.092 96.625C190.282 84.986 186.146 73.8246 179.175 64.4688C175.062 66.7262 170.469 68.6863 165.481 70.305C167.651 78.355 168.981 87.2625 169.305 96.625H191.092ZM158.613 52.5338C160.164 55.4621 161.57 58.6062 162.83 61.9662C166.423 60.808 169.922 59.3746 173.295 57.6788C167.599 51.9792 160.834 47.4595 153.389 44.3788C155.296 46.855 157.046 49.6025 158.613 52.5338ZM154.342 64.285C153.344 61.675 152.19 59.1271 150.886 56.655C146.056 47.5987 140.238 42.2175 134.375 40.4237V66.7875C141.463 66.525 148.174 65.6587 154.342 64.285Z" fill="black"/>
</g>
<path d="M172.178 215.008V182H179.541V221H172.914L172.178 215.008ZM154.811 207.594V207.061C154.811 204.962 155.048 203.057 155.521 201.348C155.995 199.621 156.689 198.14 157.604 196.904C158.518 195.669 159.643 194.712 160.98 194.035C162.318 193.358 163.841 193.02 165.551 193.02C167.159 193.02 168.564 193.358 169.766 194.035C170.984 194.712 172.017 195.677 172.863 196.93C173.727 198.165 174.421 199.63 174.945 201.322C175.47 202.998 175.851 204.835 176.088 206.832V208C175.851 209.913 175.47 211.69 174.945 213.332C174.421 214.974 173.727 216.413 172.863 217.648C172.017 218.867 170.984 219.815 169.766 220.492C168.547 221.169 167.125 221.508 165.5 221.508C163.79 221.508 162.267 221.161 160.93 220.467C159.609 219.773 158.492 218.799 157.578 217.547C156.681 216.294 155.995 214.822 155.521 213.129C155.048 211.436 154.811 209.591 154.811 207.594ZM162.123 207.061V207.594C162.123 208.728 162.208 209.786 162.377 210.768C162.563 211.749 162.859 212.621 163.266 213.383C163.689 214.128 164.23 214.712 164.891 215.135C165.568 215.541 166.389 215.744 167.354 215.744C168.606 215.744 169.639 215.465 170.451 214.906C171.264 214.331 171.882 213.544 172.305 212.545C172.745 211.546 172.999 210.395 173.066 209.092V205.766C173.016 204.699 172.863 203.743 172.609 202.896C172.372 202.033 172.017 201.297 171.543 200.688C171.086 200.078 170.51 199.604 169.816 199.266C169.139 198.927 168.335 198.758 167.404 198.758C166.456 198.758 165.644 198.978 164.967 199.418C164.29 199.841 163.74 200.425 163.316 201.17C162.91 201.915 162.605 202.795 162.402 203.811C162.216 204.809 162.123 205.893 162.123 207.061Z" fill="black"/>
<path d="M133.965 199.393V221H126.652V193.527H133.508L133.965 199.393ZM132.898 206.299H130.918C130.918 204.268 131.18 202.439 131.705 200.814C132.23 199.173 132.966 197.776 133.914 196.625C134.862 195.457 135.988 194.568 137.291 193.959C138.611 193.333 140.084 193.02 141.709 193.02C142.995 193.02 144.172 193.206 145.238 193.578C146.305 193.951 147.219 194.543 147.98 195.355C148.759 196.168 149.352 197.243 149.758 198.58C150.181 199.917 150.393 201.551 150.393 203.48V221H143.029V203.455C143.029 202.236 142.86 201.288 142.521 200.611C142.183 199.934 141.684 199.46 141.023 199.189C140.38 198.902 139.585 198.758 138.637 198.758C137.655 198.758 136.8 198.952 136.072 199.342C135.361 199.731 134.769 200.273 134.295 200.967C133.838 201.644 133.491 202.439 133.254 203.354C133.017 204.268 132.898 205.249 132.898 206.299Z" fill="black"/>
<path d="M113.805 214.805V202.566C113.805 201.686 113.661 200.933 113.373 200.307C113.085 199.663 112.637 199.164 112.027 198.809C111.435 198.453 110.665 198.275 109.717 198.275C108.904 198.275 108.202 198.419 107.609 198.707C107.017 198.978 106.56 199.376 106.238 199.9C105.917 200.408 105.756 201.009 105.756 201.703H98.4434C98.4434 200.535 98.7142 199.426 99.2559 198.377C99.7975 197.327 100.585 196.405 101.617 195.609C102.65 194.797 103.877 194.162 105.299 193.705C106.738 193.248 108.346 193.02 110.123 193.02C112.256 193.02 114.152 193.375 115.811 194.086C117.469 194.797 118.773 195.863 119.721 197.285C120.686 198.707 121.168 200.484 121.168 202.617V214.373C121.168 215.88 121.261 217.115 121.447 218.08C121.633 219.028 121.904 219.857 122.26 220.568V221H114.871C114.516 220.255 114.245 219.324 114.059 218.207C113.889 217.073 113.805 215.939 113.805 214.805ZM114.77 204.268L114.82 208.406H110.732C109.768 208.406 108.93 208.516 108.219 208.736C107.508 208.956 106.924 209.27 106.467 209.676C106.01 210.065 105.671 210.522 105.451 211.047C105.248 211.572 105.146 212.147 105.146 212.773C105.146 213.4 105.29 213.967 105.578 214.475C105.866 214.965 106.281 215.355 106.822 215.643C107.364 215.913 107.999 216.049 108.727 216.049C109.827 216.049 110.783 215.829 111.596 215.389C112.408 214.949 113.035 214.407 113.475 213.764C113.932 213.12 114.169 212.511 114.186 211.936L116.115 215.033C115.844 215.727 115.472 216.447 114.998 217.191C114.541 217.936 113.957 218.639 113.246 219.299C112.535 219.942 111.68 220.475 110.682 220.898C109.683 221.305 108.498 221.508 107.127 221.508C105.383 221.508 103.801 221.161 102.379 220.467C100.974 219.756 99.8568 218.783 99.0273 217.547C98.2148 216.294 97.8086 214.872 97.8086 213.281C97.8086 211.842 98.0794 210.564 98.6211 209.447C99.1628 208.33 99.9583 207.391 101.008 206.629C102.074 205.85 103.403 205.266 104.994 204.877C106.585 204.471 108.43 204.268 110.529 204.268H114.77Z" fill="black"/>
<path d="M95.0664 215.059V221H76.4551V215.059H95.0664ZM78.918 184.031V221H71.3008V184.031H78.918Z" fill="black"/>
<defs>
<clipPath id="clip0_1_699">
<rect width="140" height="140" fill="white" transform="translate(60 31)"/>
</clipPath>
</defs>
</svg>
