<svg width="260" height="260" viewBox="0 0 260 260" fill="none" xmlns="http://www.w3.org/2000/svg">
<path d="M0 24C0 10.7452 10.7452 0 24 0H236C249.255 0 260 10.7452 260 24V236C260 249.255 249.255 260 236 260H24C10.7452 260 0 249.255 0 236V24Z" fill="#F9F0E9"/>
<path d="M236 251V260H24V251H236ZM251 236V24C251 15.7157 244.284 9 236 9H24C15.7157 9 9 15.7157 9 24V236C9 244.284 15.7157 251 24 251V260L23.3809 259.992C10.6179 259.669 0.331002 249.382 0.0078125 236.619L0 236V24C0 10.7452 10.7452 2.73809e-07 24 0H236C249.255 0 260 10.7452 260 24V236C260 249.048 249.588 259.664 236.619 259.992L236 260V251C244.284 251 251 244.284 251 236Z" fill="black"/>
<path d="M193.789 74.4701C192.196 70.6833 189.549 67.9531 186.132 66.578L186.086 66.5609C184.532 65.9517 182.876 65.64 181.206 65.6421H181.022C173.202 65.7597 165.218 72.4059 161.159 82.1811C158.182 89.3296 157.84 97.0177 160.246 102.748C161.836 106.538 164.489 109.268 167.92 110.643L167.957 110.657C169.512 111.266 171.167 111.577 172.837 111.576C180.732 111.576 188.799 104.93 192.934 95.0256C195.873 87.8857 196.198 80.2031 193.789 74.4701Z" fill="black"/>
<path d="M162.544 116.634C158.033 113.923 153.77 111.359 150.985 106.754C143.302 94.007 138.662 86.3125 126.498 86.3125C114.333 86.3125 109.682 94.007 101.982 106.754C99.1911 111.365 94.9189 113.932 90.3941 116.654C85.2062 119.772 79.8457 122.993 77.5316 129.332C76.632 131.618 76.1788 134.054 76.1965 136.51C76.1965 146.831 84.2357 155.229 94.1119 155.229C99.2082 155.229 104.632 153.464 110.371 151.595C115.889 149.797 121.594 147.94 126.526 147.94C131.459 147.94 137.149 149.797 142.647 151.595C148.375 153.452 153.772 155.218 158.883 155.218C168.745 155.218 176.77 146.82 176.77 136.499C176.778 134.041 176.315 131.604 175.406 129.321C173.092 122.976 167.729 119.752 162.544 116.634Z" fill="black"/>
<path d="M96.0676 76.2188C99.4838 80.505 103.819 82.865 108.274 82.865C108.883 82.865 109.49 82.82 110.092 82.73C119.385 81.3635 125.175 70.0236 123.275 56.8923C122.48 51.3715 120.355 46.2298 117.312 42.4173C113.901 38.1397 109.561 35.7827 105.108 35.7827C104.5 35.7827 103.892 35.8278 103.291 35.9176C93.9977 37.2842 88.2071 48.6241 90.1077 61.7555C90.8999 67.2674 93.0244 72.4035 96.0676 76.2188Z" fill="black"/>
<path d="M142.912 82.7298C143.513 82.8195 144.121 82.8648 144.729 82.8648C149.187 82.8648 153.519 80.5048 156.936 76.2186C159.976 72.4033 162.089 67.2672 162.893 61.7495C164.793 48.624 159.003 37.284 149.71 35.9118C149.109 35.8219 148.501 35.7769 147.893 35.7769C143.44 35.7826 139.099 38.1396 135.689 42.4172C132.645 46.2297 130.521 51.3713 129.729 56.8976C127.828 70.0234 133.619 81.3633 142.912 82.7298Z" fill="black"/>
<path d="M85.0377 110.657L85.0778 110.643C88.5029 109.268 91.1526 106.541 92.7402 102.754C95.1461 97.0122 94.8074 89.3324 91.8359 82.1839C87.722 72.2911 79.6576 65.6421 71.7713 65.6421C70.1013 65.6397 68.4457 65.9514 66.8908 66.5609L66.8506 66.5752C63.4343 67.9387 60.7845 70.6775 59.1969 74.4643C56.7911 80.2061 57.1299 87.8857 60.1012 95.0341C64.2152 104.927 72.2794 111.576 80.1657 111.576C81.8329 111.577 83.4854 111.266 85.0377 110.657Z" fill="black"/>
<path d="M167.246 199.52V221H159.934V193.527H166.814L167.246 199.52ZM175.523 193.35L175.396 200.129C175.041 200.078 174.609 200.036 174.102 200.002C173.611 199.951 173.162 199.926 172.756 199.926C171.723 199.926 170.826 200.061 170.064 200.332C169.32 200.586 168.693 200.967 168.186 201.475C167.695 201.982 167.322 202.6 167.068 203.328C166.831 204.056 166.696 204.885 166.662 205.816L165.189 205.359C165.189 203.582 165.367 201.949 165.723 200.459C166.078 198.952 166.594 197.641 167.271 196.523C167.965 195.406 168.812 194.543 169.811 193.934C170.809 193.324 171.952 193.02 173.238 193.02C173.645 193.02 174.059 193.053 174.482 193.121C174.906 193.172 175.253 193.248 175.523 193.35Z" fill="black"/>
<path d="M144.496 221.508C142.363 221.508 140.451 221.169 138.758 220.492C137.065 219.798 135.626 218.842 134.441 217.623C133.273 216.404 132.376 214.991 131.75 213.383C131.124 211.758 130.811 210.031 130.811 208.203V207.188C130.811 205.105 131.107 203.201 131.699 201.475C132.292 199.748 133.138 198.25 134.238 196.98C135.355 195.711 136.71 194.738 138.301 194.061C139.892 193.367 141.686 193.02 143.684 193.02C145.63 193.02 147.357 193.341 148.863 193.984C150.37 194.628 151.631 195.542 152.646 196.727C153.679 197.911 154.458 199.333 154.982 200.992C155.507 202.634 155.77 204.462 155.77 206.477V209.523H133.934V204.648H148.584V204.09C148.584 203.074 148.398 202.169 148.025 201.373C147.67 200.561 147.128 199.917 146.4 199.443C145.673 198.969 144.742 198.732 143.607 198.732C142.643 198.732 141.813 198.944 141.119 199.367C140.425 199.79 139.858 200.383 139.418 201.145C138.995 201.906 138.673 202.803 138.453 203.836C138.25 204.852 138.148 205.969 138.148 207.188V208.203C138.148 209.303 138.301 210.319 138.605 211.25C138.927 212.181 139.376 212.985 139.951 213.662C140.544 214.339 141.255 214.864 142.084 215.236C142.93 215.609 143.887 215.795 144.953 215.795C146.273 215.795 147.501 215.541 148.635 215.033C149.786 214.508 150.776 213.721 151.605 212.672L155.16 216.531C154.585 217.361 153.798 218.156 152.799 218.918C151.817 219.68 150.632 220.306 149.244 220.797C147.856 221.271 146.273 221.508 144.496 221.508Z" fill="black"/>
<path d="M125.809 193.527V221H118.471V193.527H125.809ZM118.014 186.367C118.014 185.301 118.386 184.421 119.131 183.727C119.876 183.033 120.874 182.686 122.127 182.686C123.363 182.686 124.353 183.033 125.098 183.727C125.859 184.421 126.24 185.301 126.24 186.367C126.24 187.434 125.859 188.314 125.098 189.008C124.353 189.702 123.363 190.049 122.127 190.049C120.874 190.049 119.876 189.702 119.131 189.008C118.386 188.314 118.014 187.434 118.014 186.367Z" fill="black"/>
<path d="M102.83 184.031V221H95.2383V184.031H102.83ZM114.205 184.031V189.998H84.041V184.031H114.205Z" fill="black"/>
</svg>
